<svg width="1440" height="613" viewBox="0 0 1440 613" fill="none" xmlns="http://www.w3.org/2000/svg">
<rect width="1440" height="613" fill="white"/>
<mask id="mask0_946_4053" style="mask-type:alpha" maskUnits="userSpaceOnUse" x="660" y="0" width="780" height="613">
<rect x="660" width="780" height="613" fill="#C4C4C4"/>
</mask>
<g mask="url(#mask0_946_4053)">
<path d="M795.267 414.532C724.784 508.827 731.348 588.038 869.23 613H1442V0H741.925C543.244 169.823 981.544 165.322 795.267 414.532Z" fill="#1B3764"/>
<path d="M1832.61 287C1832.61 416.882 1714.31 524.5 1565.34 524.5C1416.37 524.5 1298.07 416.882 1298.07 287C1298.07 157.118 1416.37 49.5 1565.34 49.5C1714.31 49.5 1832.61 157.118 1832.61 287Z" stroke="#F5F6F8" stroke-opacity="0.3" stroke-width="25"/>
</g>
<path d="M1197.34 309.59L1196.64 308.79C1198.41 307.25 1199.51 306.43 1199.56 306.39L1200.19 307.25C1200.19 307.25 1199.07 308.08 1197.34 309.59Z" fill="#CCC3BC"/>
<path d="M1183.02 466.88L1182.98 465.81C1185.49 465.72 1187.95 465.62 1190.34 465.5L1190.4 466.56C1188 466.69 1185.54 466.79 1183.02 466.88ZM1194.62 466.32L1194.55 465.26C1197.02 465.1 1199.49 464.92 1201.9 464.72L1201.99 465.78C1199.58 465.99 1197.1 466.17 1194.62 466.33V466.32ZM1206.19 465.39L1206.09 464.33C1208.58 464.09 1211.04 463.81 1213.41 463.51L1213.54 464.57C1211.16 464.87 1208.69 465.15 1206.19 465.39ZM1217.72 464.01L1217.57 462.95C1220.07 462.59 1222.51 462.2 1224.84 461.79L1225.03 462.84C1222.69 463.25 1220.24 463.65 1217.73 464.01H1217.72ZM1229.17 462.06L1228.96 461.01C1231.41 460.52 1233.83 459.99 1236.14 459.42L1236.39 460.46C1234.07 461.03 1231.64 461.57 1229.17 462.06ZM1240.49 459.4L1240.21 458.37C1242.64 457.7 1245.01 456.98 1247.23 456.22L1247.57 457.23C1245.33 457.99 1242.94 458.72 1240.49 459.4ZM1251.55 455.8L1251.17 454.8C1253.53 453.89 1255.79 452.92 1257.9 451.91L1258.36 452.87C1256.23 453.9 1253.94 454.88 1251.55 455.8ZM1262.13 450.93L1261.61 450C1263.82 448.77 1265.9 447.46 1267.79 446.11L1268.41 446.97C1266.49 448.35 1264.38 449.69 1262.13 450.93ZM1271.76 444.34L1271.07 443.53C1272.97 441.9 1274.7 440.17 1276.19 438.37L1277.01 439.05C1275.47 440.89 1273.71 442.67 1271.76 444.34ZM1279.56 435.63L1278.67 435.04C1280.01 433.01 1281.14 430.85 1282.03 428.62L1283.02 429.01C1282.1 431.31 1280.94 433.54 1279.56 435.63ZM1284.37 424.96L1283.34 424.68C1283.95 422.41 1284.37 420 1284.57 417.52L1285.63 417.61C1285.42 420.16 1285 422.63 1284.37 424.96ZM1284.72 413.35C1284.72 412.42 1284.68 411.46 1284.62 410.49C1284.53 408.98 1284.37 407.5 1284.15 406.07L1285.2 405.91C1285.43 407.37 1285.59 408.89 1285.68 410.42C1285.74 411.41 1285.77 412.39 1285.78 413.33H1284.71L1284.72 413.35ZM1283.31 402.01C1282.69 399.6 1281.86 397.31 1280.84 395.18L1281.8 394.72C1282.85 396.91 1283.71 399.27 1284.34 401.74L1283.31 402.01ZM1278.81 391.57C1277.5 389.53 1275.95 387.65 1274.22 385.97L1274.96 385.21C1276.75 386.95 1278.34 388.89 1279.7 391L1278.8 391.58L1278.81 391.57ZM1271.07 383.27C1269.19 381.85 1267.1 380.59 1264.86 379.52L1265.32 378.56C1267.63 379.66 1269.78 380.96 1271.72 382.42L1271.08 383.27H1271.07ZM1261.02 377.93C1258.82 377.14 1256.45 376.49 1253.99 375.99L1254.2 374.94C1256.71 375.45 1259.13 376.11 1261.38 376.92L1261.02 377.92V377.93ZM1209.81 377.51C1209.18 377.51 1208.55 377.51 1207.93 377.48L1207.96 376.41C1210.29 376.47 1212.76 376.41 1215.28 376.22L1215.36 377.28C1213.47 377.42 1211.61 377.49 1209.81 377.49V377.51ZM1203.69 377.22C1201.13 376.97 1198.66 376.56 1196.34 375.99L1196.59 374.95C1198.86 375.51 1201.28 375.91 1203.79 376.15L1203.69 377.21V377.22ZM1219.59 376.87L1219.46 375.81C1220.7 375.65 1221.97 375.47 1223.25 375.25C1224.43 375.05 1225.6 374.87 1226.75 374.71L1226.9 375.77C1225.76 375.93 1224.6 376.11 1223.43 376.31C1222.14 376.53 1220.85 376.72 1219.6 376.88L1219.59 376.87ZM1249.88 375.31C1247.55 375.01 1245.09 374.83 1242.58 374.77L1242.6 373.7C1245.15 373.76 1247.65 373.94 1250.01 374.25L1249.87 375.31H1249.88ZM1231.07 375.26L1230.96 374.2C1233.48 373.94 1235.97 373.78 1238.36 373.71L1238.39 374.78C1236.03 374.84 1233.56 375 1231.07 375.26ZM1192.26 374.77C1189.81 373.9 1187.54 372.83 1185.5 371.58L1186.06 370.67C1188.03 371.88 1190.24 372.92 1192.62 373.76L1192.26 374.77ZM1182.01 369.08C1180.03 367.43 1178.34 365.55 1176.99 363.5L1177.88 362.91C1179.17 364.87 1180.79 366.67 1182.7 368.26L1182.02 369.08H1182.01ZM1174.95 359.71C1173.98 357.41 1173.37 354.96 1173.15 352.42L1174.21 352.33C1174.42 354.76 1175 357.11 1175.93 359.3L1174.95 359.72V359.71ZM1174.19 348.2L1173.13 348.12C1173.28 346.14 1173.65 344.11 1174.23 342.09C1174.35 341.65 1174.49 341.22 1174.62 340.78L1175.64 341.1C1175.51 341.52 1175.38 341.95 1175.26 342.38C1174.7 344.33 1174.34 346.29 1174.2 348.2H1174.19ZM1177.05 337.17L1176.06 336.77C1176.96 334.53 1178.04 332.27 1179.26 330.05L1180.19 330.56C1178.99 332.74 1177.93 334.96 1177.04 337.16L1177.05 337.17ZM1182.33 326.97L1181.43 326.4C1182.73 324.36 1184.17 322.32 1185.73 320.33L1186.57 320.99C1185.04 322.95 1183.61 324.96 1182.34 326.97H1182.33ZM1189.23 317.75L1188.42 317.05C1190.04 315.19 1191.75 313.37 1193.53 311.65L1194.27 312.42C1192.52 314.12 1190.82 315.91 1189.23 317.75Z" fill="#CCC3BC"/>
<path d="M1174.79 467.09L1174.77 466.02C1176.03 466 1177.27 465.98 1178.5 465.95L1178.53 467.02C1177.3 467.05 1176.05 467.08 1174.79 467.09Z" fill="#CCC3BC"/>
<path d="M1199.87 295.3L1179.59 282.02L1267.07 264.89L1199.87 295.3Z" fill="#F2E2E5"/>
<path d="M1199.87 295.3L1205.77 308.61L1267.07 264.89L1199.87 295.3Z" fill="#E0D3D5"/>
<path d="M1208.56 301.54L1205.77 308.61L1218.89 299.91L1208.56 301.54Z" fill="#CCBEC1"/>
<path d="M1208.56 301.54L1225.26 329.62L1267.07 264.89L1208.56 301.54Z" fill="#F2E2E5"/>
<path d="M890.99 480.57C890.99 480.57 873.21 484.87 863.97 488.85C854.72 492.83 842.33 492.56 940.62 509.05C1038.91 525.54 1045.52 528.65 1042.4 533.19C1039.27 537.72 1083.28 541.72 1100.08 539.86C1116.88 538 1122.75 533.19 1122.75 533.19C1122.75 533.19 1160.9 536.66 1185.17 554.26C1224.02 537.99 1291.31 509.05 1291.31 509.05L1237.69 495.85L890.99 480.57Z" fill="#E8E2DD"/>
<path d="M1165.86 479.09L1156.46 478.01L1153.33 481.79L1165.86 479.09Z" fill="#0A6C8E"/>
<path d="M1129.14 256.48L1129.08 301.78C1129.08 301.78 1075.8 305.87 1064.24 302.21C1052.68 298.55 1058.11 283.27 1058.12 275.97C1058.13 268.67 1058.31 250.9 1060.17 246.71C1062.03 242.52 1070.82 244.71 1081.62 246.05C1092.42 247.39 1129.14 256.47 1129.14 256.47V256.48Z" fill="#EEE6DE"/>
<path d="M1058.11 275.97C1058.12 268.67 1058.3 250.9 1060.16 246.71C1062.02 242.52 1070.81 244.71 1081.61 246.05C1092.41 247.39 1129.13 256.47 1129.13 256.47V264.06C1119.24 261.66 1093.58 256.73 1084.99 255.66C1074.19 254.31 1066.57 252.89 1064.71 257.07C1062.85 261.25 1062.22 277.26 1062.21 284.56C1062.21 288.58 1060.56 295.01 1061.01 300.6C1053.81 295.28 1058.1 282.46 1058.11 275.97Z" fill="#EFD5BF"/>
<g opacity="0.58">
<g style="mix-blend-mode:multiply">
<path d="M1058.43 247.35L1128.61 260.15C1128.61 260.15 1072.29 247.76 1058.43 247.35Z" fill="#E8D3C1"/>
</g>
<g style="mix-blend-mode:multiply">
<path d="M1056.57 273.34L1127.38 278.86C1127.38 278.86 1070.36 272.41 1056.57 273.34Z" fill="#E8D3C1"/>
</g>
<g style="mix-blend-mode:multiply">
<path d="M1056.57 270.45L1127.34 277.78C1127.34 277.78 1070.38 269.78 1056.57 270.45Z" fill="#E8D3C1"/>
</g>
<g style="mix-blend-mode:multiply">
<path d="M1056.57 268.7L1127.34 276.03C1127.34 276.03 1070.38 268.03 1056.57 268.7Z" fill="#E8D3C1"/>
</g>
<g style="mix-blend-mode:multiply">
<path d="M1056.6 266.4L1127.32 274.43C1127.32 274.43 1070.42 265.86 1056.6 266.4Z" fill="#E8D3C1"/>
</g>
<g style="mix-blend-mode:multiply">
<path d="M1056.67 263.34L1127.26 272.86C1127.26 272.86 1070.51 263.1 1056.67 263.34Z" fill="#E8D3C1"/>
</g>
<g style="mix-blend-mode:multiply">
<path d="M1056.67 261.14L1127.26 270.64C1127.26 270.64 1070.51 260.89 1056.67 261.14Z" fill="#E8D3C1"/>
</g>
<g style="mix-blend-mode:multiply">
<path d="M1056.71 258.44L1127.23 268.63C1127.23 268.63 1070.56 258.33 1056.71 258.44Z" fill="#E8D3C1"/>
</g>
<g style="mix-blend-mode:multiply">
<path d="M1056.71 255.92L1127.23 266.11C1127.23 266.11 1070.56 255.81 1056.71 255.92Z" fill="#E8D3C1"/>
</g>
<g style="mix-blend-mode:multiply">
<path d="M1056.76 253.35L1127.19 264.3C1127.19 264.3 1070.61 253.39 1056.76 253.35Z" fill="#E8D3C1"/>
</g>
<g style="mix-blend-mode:multiply">
<path d="M1056.46 250.48L1126.89 261.43C1126.89 261.43 1070.31 250.52 1056.46 250.48Z" fill="#E8D3C1"/>
</g>
<g style="mix-blend-mode:multiply">
<path d="M1058.59 297.34L1126.89 297.25C1126.89 297.25 1072.35 299.3 1058.59 297.34Z" fill="#E8D3C1"/>
</g>
<g style="mix-blend-mode:multiply">
<path d="M1056.84 275.52L1127.09 280.26C1127.09 280.26 1070.69 278.05 1056.84 275.52Z" fill="#E8D3C1"/>
</g>
<g style="mix-blend-mode:multiply">
<path d="M1056.86 277.85L1127.06 281.88C1127.06 281.88 1070.57 280.76 1056.86 277.85Z" fill="#E8D3C1"/>
</g>
<g style="mix-blend-mode:multiply">
<path d="M1056.92 280.94L1127 283.45C1127 283.45 1070.65 283.55 1056.92 280.94Z" fill="#E8D3C1"/>
</g>
<g style="mix-blend-mode:multiply">
<path d="M1056.91 283.15L1126.99 285.68C1126.99 285.68 1070.64 285.77 1056.91 283.15Z" fill="#E8D3C1"/>
</g>
<g style="mix-blend-mode:multiply">
<path d="M1056.94 285.88L1126.95 287.7C1126.95 287.7 1070.68 288.36 1056.94 285.88Z" fill="#E8D3C1"/>
</g>
<g style="mix-blend-mode:multiply">
<path d="M1056.93 288.42L1126.94 290.24C1126.94 290.24 1070.67 290.9 1056.93 288.42Z" fill="#E8D3C1"/>
</g>
<g style="mix-blend-mode:multiply">
<path d="M1056.96 291.02L1126.89 292.06C1126.89 292.06 1070.71 293.35 1056.96 291.02Z" fill="#E8D3C1"/>
</g>
<g style="mix-blend-mode:multiply">
<path d="M1056.65 293.86L1126.58 294.9C1126.58 294.9 1070.4 296.19 1056.65 293.86Z" fill="#E8D3C1"/>
</g>
<g style="mix-blend-mode:multiply">
<path d="M1058.03 299.46L1128.28 300.27C1128.28 300.27 1071.81 301.48 1058.03 299.46Z" fill="#E8D3C1"/>
</g>
</g>
<path d="M1065.4 240.43C1065.4 240.43 949.25 252.94 939.78 255.76C930.31 258.58 932.46 286.7 934.08 295.42C935.7 304.14 942.09 306.69 948.88 306.96C955.67 307.23 1075.43 306.74 1075.43 306.74C1075.43 306.74 1059.28 303.78 1057.57 291.51C1055.86 279.24 1058.67 254.85 1059.22 250.7C1059.77 246.56 1065.4 240.43 1065.4 240.43Z" fill="#9E6718"/>
<path d="M1014.15 293.74C1012.56 281.77 1015.17 257.97 1015.68 253.93C1016.03 251.16 1018.61 247.47 1020.19 245.43C1020.19 245.43 1020.19 245.43 1020.18 245.43C1017.45 245.75 1014.67 246.09 1011.87 246.42C1010.28 248.51 1007.99 251.92 1007.67 254.52C1007.16 258.56 1004.55 282.36 1006.14 294.33C1007.07 301.32 1010.26 305.05 1012.76 306.94C1015.71 306.94 1018.66 306.92 1021.58 306.91C1019.01 305.23 1015.19 301.49 1014.16 293.72L1014.15 293.74Z" fill="#FFD773"/>
<path d="M1000.23 294.15C998.64 282.48 1001.25 259.29 1001.76 255.36C1002.11 252.67 1004.67 249.1 1006.25 247.11C1003.46 247.45 1000.67 247.79 997.88 248.13C996.3 250.17 994.06 253.43 993.74 255.94C993.23 259.88 990.62 283.07 992.21 294.73C993.13 301.5 996.29 305.13 998.79 307C1001.7 307 1004.64 306.99 1007.6 306.98C1005.03 305.33 1001.25 301.67 1000.23 294.16V294.15Z" fill="#FFD773"/>
<path d="M1054.55 272.97C1054.64 271.12 1054.73 269.33 1054.79 267.66C1054.83 266.55 1054.86 265.42 1054.89 264.29C1055.11 255.52 1055.35 246.46 1060.48 242.39C1062.8 240.55 1065.8 239.96 1069.39 240.61C1079.73 242.49 1123.42 251.81 1132.84 253.82V259.99C1126.68 258.67 1079.09 248.51 1068.5 246.59C1066.11 246.16 1065.04 246.73 1064.45 247.19C1061.44 249.58 1061.23 257.6 1061.05 264.68C1061.02 265.83 1060.99 266.98 1060.95 268.1C1060.89 269.8 1060.73 272.77 1060.7 273.5C1060.65 275.06 1059.84 297.01 1063.54 299.45C1067.65 301.46 1101.78 303.2 1132.76 301.68V307.78C1120.71 308.37 1092.97 307.43 1075.41 306.72C1068.19 306.43 1062.69 305.82 1060.71 304.73C1053.15 300.56 1053.86 286.52 1054.54 272.95L1054.55 272.97Z" fill="#87510A"/>
<g style="mix-blend-mode:multiply">
<path d="M1064.38 281.22C1064.38 281.22 1065.46 296.27 1065.34 305.94C1071.11 306.56 1077.32 306.81 1077.32 306.81C1077.32 306.81 1074.74 281.9 1064.38 281.22Z" fill="#EFD5BF"/>
</g>
<g style="mix-blend-mode:overlay" opacity="0.46">
<path d="M941.43 257.41C941.43 257.41 1020 248.24 1032.87 247.03C1045.74 245.82 1050.1 244.67 1051.86 245.9C1053.62 247.13 1052.86 258.5 1051.86 260.16C1050.86 261.83 1042.98 261.75 1034.32 261.98C1025.67 262.21 941.27 266.05 938.82 266.12C936.37 266.19 936.83 262.26 937.7 260.68C938.57 259.1 939.65 257.62 941.43 257.41Z" fill="white"/>
</g>
<path d="M1132.84 352.6C1132.84 352.6 1138.72 368.39 1138.52 381.4C1140.68 378.35 1142.83 374.23 1142.83 374.23L1149.83 380.5C1149.83 380.5 1145.51 351.5 1139.96 342.68C1134.41 333.86 1132.84 352.59 1132.84 352.59V352.6Z" fill="#EE6D4A"/>
<path d="M922.31 353.08L943.43 366.67H1120.39L1139.96 353.08C1139.96 353.08 1054.52 350.16 1026.51 348.09C998.5 346.02 922.31 353.08 922.31 353.08Z" fill="#007F7C"/>
<path d="M922.31 305.85C922.31 305.85 1131.58 306.73 1139.23 307.61C1143.93 309.08 1143.64 321.13 1143.93 331.42C1144.22 341.71 1144.52 351.53 1139.96 353.08C1135.4 354.64 925.74 353.19 922.31 353.08C918.88 352.97 916.53 346.31 916.14 335.53C915.75 324.75 914.58 305.81 922.31 305.84V305.85Z" fill="#00AAAC"/>
<path d="M944.27 305.95C941.52 305.94 938.97 305.93 936.67 305.91C935.84 307.03 934.95 308.98 934.95 312.21V342.14C934.95 346.05 936.85 350.62 938.3 353.21C941.1 353.23 944.22 353.25 947.61 353.27C945.82 351.27 943.07 347.52 942.47 342.8C941.56 335.66 941.71 317.59 942.08 313.33C942.37 309.99 943.27 307.2 944.27 305.93V305.95Z" fill="#4CEDE5"/>
<path d="M957.59 306.01C954.94 306 952.41 305.98 949.99 305.97C949.17 307.1 948.32 309.04 948.32 312.21V342.14C948.32 346.1 950.26 350.73 951.72 353.31C954.67 353.33 957.79 353.35 961.06 353.37C959.27 351.39 956.45 347.6 955.84 342.81C954.93 335.67 955.08 317.6 955.45 313.34C955.73 310.06 956.61 307.31 957.59 306.01Z" fill="#4CEDE5"/>
<path d="M1114.17 353.7C1117.52 353.68 1120.61 353.65 1123.41 353.62C1124.84 350.99 1126.62 346.61 1126.62 342.82V312.89C1126.62 310.21 1126.01 308.42 1125.33 307.25C1123.01 307.21 1120.44 307.18 1117.66 307.14C1118.52 308.56 1119.25 311.08 1119.5 314.02C1119.87 318.28 1120.01 336.36 1119.11 343.49C1118.53 348.03 1115.98 351.65 1114.19 353.7H1114.17Z" fill="#4CEDE5"/>
<path d="M1100.74 353.77C1103.97 353.76 1107.05 353.75 1109.97 353.73C1111.41 351.11 1113.23 346.66 1113.23 342.82V312.89C1113.23 310.08 1112.56 308.24 1111.84 307.07C1109.4 307.04 1106.84 307.01 1104.16 306.99C1105.06 308.38 1105.84 310.96 1106.11 314.02C1106.48 318.28 1106.62 336.36 1105.72 343.49C1105.14 348.08 1102.53 351.73 1100.74 353.77Z" fill="#4CEDE5"/>
<g style="mix-blend-mode:overlay">
<path d="M922.31 309.08H1134.33C1139.23 309.08 1140.89 311.28 1141.29 315.19C1141.68 319.1 1140.11 319.77 1130.32 319.65C1120.52 319.53 928.79 319.65 922.32 319.65C915.85 319.65 917.47 309.08 922.32 309.08H922.31Z" fill="#00C1BC"/>
</g>
<path d="M1038.44 517.58C1038.44 517.58 901.79 490.43 891.6 487.33C881.41 484.23 878.31 454.11 889.83 450.34C901.35 446.57 1031.59 438.6 1031.59 438.6L1183.2 447.3L1038.44 517.59V517.58Z" fill="#167BA8"/>
<path d="M891.61 487.32C901.8 490.42 1038.45 517.57 1038.45 517.57L1116.5 477.79L885.56 453.71C879.43 462.66 882.97 484.69 891.61 487.32Z" fill="#3989B4"/>
<path d="M1179.55 450.92C1151.43 453.24 1051.04 461.99 1037.35 469.6C1021.4 478.46 1026.72 513.46 1040.01 514.34C1050.78 515.06 1144.38 495.14 1179.55 487.54V450.91V450.92Z" fill="#EEE6DE"/>
<path d="M1044.72 480.56C1057.4 473.52 1144.41 465.49 1179.55 462.5V450.92C1151.43 453.24 1051.04 461.99 1037.35 469.6C1022.87 477.64 1025.92 507.23 1036.55 513.27C1033.08 502.01 1034.7 486.13 1044.72 480.56Z" fill="#EFD5BF"/>
<path d="M1183.2 483.36C1140.37 492.65 1053.02 511.05 1040.79 511.04C1040.58 511.04 1040.39 511.04 1040.23 511.02C1036.7 510.78 1033.28 505.91 1031.7 498.88C1029.49 489 1031.27 476.77 1038.96 472.5C1051.1 465.75 1143.66 457.12 1183.2 453.95V447.28C1159.31 449.19 1050.92 458.25 1035.73 466.69C1024.7 472.82 1022.55 488.43 1025.21 500.33C1027.5 510.56 1032.31 517.16 1039 517.61C1039.21 517.62 1040.23 517.67 1040.5 517.67C1055 517.67 1149.75 497.4 1183.19 490.15V483.35L1183.2 483.36Z" fill="#0A759B"/>
<g style="mix-blend-mode:multiply">
<path d="M1040.01 475.15L1177.78 456.32C1177.78 456.32 1066.37 468.5 1040.01 475.15Z" fill="#E8D3C1"/>
</g>
<g style="mix-blend-mode:multiply">
<path d="M1038.35 478.99L1176.12 460.16C1176.12 460.16 1064.71 472.34 1038.35 478.99Z" fill="#E8D3C1"/>
</g>
<g style="mix-blend-mode:multiply">
<path d="M1034.81 483.31L1175.01 463.62C1175.01 463.62 1061.17 476.66 1034.81 483.31Z" fill="#E8D3C1"/>
</g>
<g style="mix-blend-mode:multiply">
<path d="M1034.65 487.65L1174.79 466.55C1174.79 466.55 1061.01 481 1034.65 487.65Z" fill="#E8D3C1"/>
</g>
<g style="mix-blend-mode:multiply">
<path d="M1034.65 491.56L1174.79 469.58C1174.79 469.58 1061.01 484.92 1034.65 491.56Z" fill="#E8D3C1"/>
</g>
<g style="mix-blend-mode:multiply">
<path d="M1034.65 495.21L1174.79 472.09C1174.79 472.09 1061.01 488.57 1034.65 495.21Z" fill="#E8D3C1"/>
</g>
<g style="mix-blend-mode:multiply">
<path d="M1035.72 497.82L1175.01 474.92C1175.01 474.92 1062.08 491.17 1035.72 497.82Z" fill="#E8D3C1"/>
</g>
<g style="mix-blend-mode:multiply">
<path d="M1035.72 500.97L1174.79 477.8C1174.79 477.8 1062.08 494.33 1035.72 500.97Z" fill="#E8D3C1"/>
</g>
<g style="mix-blend-mode:multiply">
<path d="M1037.7 504.63L1175.34 479.74C1175.34 479.74 1064.05 497.99 1037.7 504.63Z" fill="#E8D3C1"/>
</g>
<g style="mix-blend-mode:multiply">
<path d="M1040.01 507.85L1176.12 482.15C1176.12 482.15 1066.36 501.21 1040.01 507.85Z" fill="#E8D3C1"/>
</g>
<path d="M887.34 455.65C887.34 455.65 979.87 469.27 999.14 472.1C1018.41 474.92 1023.06 474.09 1022.4 482.15C1021.74 490.21 1019.08 490.18 991.67 486.37C964.26 482.56 892.5 468.61 887.35 467.78C882.2 466.95 884.49 455.23 887.35 455.65H887.34Z" fill="#3C9CC6"/>
<path d="M974.44 501.9C974.26 501.9 974.09 501.89 973.91 501.86C949.16 497.85 919.38 491.57 910.84 489.74C909.2 489.39 907.9 488.12 907.51 486.5C906.34 481.62 904.25 469.42 910.08 461.53C910.91 460.41 912.32 459.83 913.76 460L976.5 467.69C977.46 467.81 978.32 468.33 978.87 469.12C979.41 469.91 979.6 470.89 979.37 471.82C978.25 476.4 976.55 485.93 977.69 498.29C977.78 499.32 977.41 500.31 976.66 501.01C976.05 501.58 975.26 501.89 974.44 501.89V501.9ZM913.25 460.76C912.24 460.76 911.3 461.21 910.72 462C905.09 469.62 907.14 481.54 908.29 486.31C908.61 487.64 909.68 488.68 911.02 488.96C919.55 490.79 949.32 497.06 974.05 501.07C974.82 501.19 975.57 500.96 976.13 500.44C976.7 499.91 976.99 499.15 976.92 498.36C975.77 485.89 977.49 476.26 978.62 471.63C978.79 470.92 978.65 470.17 978.24 469.57C977.82 468.96 977.16 468.56 976.42 468.47L913.68 460.78C913.54 460.76 913.4 460.75 913.27 460.75L913.25 460.76Z" fill="#B6E2FF"/>
<path d="M998.97 500.97C1003.01 500.97 1006.28 496.403 1006.28 490.77C1006.28 485.137 1003.01 480.57 998.97 480.57C994.933 480.57 991.66 485.137 991.66 490.77C991.66 496.403 994.933 500.97 998.97 500.97Z" fill="#003E60"/>
<path d="M993.49 491.1C993.49 485.47 996.76 480.9 1000.79 480.9C1000.21 480.69 999.6 480.57 998.97 480.57C994.93 480.57 991.66 485.14 991.66 490.77C991.66 496.4 994.93 500.97 998.97 500.97C995.82 499.84 993.48 495.86 993.48 491.1H993.49Z" fill="#0A759B"/>
<path d="M899.19 480.05C902.277 480.05 904.78 476.553 904.78 472.24C904.78 467.927 902.277 464.43 899.19 464.43C896.103 464.43 893.6 467.927 893.6 472.24C893.6 476.553 896.103 480.05 899.19 480.05Z" fill="#003E60"/>
<path d="M895 472.5C895 468.19 897.5 464.7 900.59 464.69C900.14 464.53 899.68 464.44 899.2 464.44C896.11 464.44 893.61 467.93 893.61 472.25C893.61 476.57 896.11 480.06 899.2 480.06C896.79 479.19 895 476.15 895 472.51V472.5Z" fill="#0A759B"/>
<g style="mix-blend-mode:multiply">
<path d="M1041.37 490.11C1041.37 490.11 1042.56 507 1042.44 517.57C1045.52 517.34 1055.01 515.95 1055.01 515.95C1055.01 515.95 1052.51 490.41 1041.37 490.11Z" fill="#EFD5BF"/>
</g>
<path d="M1041.37 490.05C1041.37 490.05 1052.73 497.26 1053.4 531.28C1058.72 525.76 1062.37 522.25 1062.37 522.25L1071.97 527.86C1071.97 527.86 1065.66 491.86 1058.21 486.82C1047.28 488.03 1041.36 490.05 1041.36 490.05H1041.37Z" fill="#EE6D4A"/>
<path d="M1021.94 463.63C1021.94 463.63 1141.25 449.17 1150.04 445.98C1158.84 442.79 1161.51 416.63 1151.57 413.96C1141.63 411.29 1029.2 405.43 1029.2 405.43L898.32 409.91L1021.93 463.63H1021.94Z" fill="#E0512F"/>
<path d="M1150.05 445.98C1141.25 449.17 1021.95 463.63 1021.95 463.63L963.92 429.42L1022.22 418.04L1155.28 416.67C1160.57 424.09 1157.51 443.28 1150.06 445.99L1150.05 445.98Z" fill="#EE6D4A"/>
<path d="M901.49 412.87C925.77 413.46 1012.42 415.94 1024.24 421.82C1038.01 428.66 1033.42 459.14 1021.95 460.58C1012.66 461.74 931.86 449.27 901.49 444.49V412.87Z" fill="#EEE6DE"/>
<path d="M1017.87 431.66C1006.93 426.22 931.81 423.68 901.48 422.87V412.87C925.76 413.46 1012.41 415.94 1024.23 421.82C1036.73 428.03 1034.1 453.73 1024.92 459.48C1027.92 449.59 1026.52 435.96 1017.87 431.66Z" fill="#EFD5BF"/>
<path d="M898.33 441.06C935.3 446.92 1010.7 458.39 1021.26 457.77C1021.44 457.76 1021.6 457.75 1021.75 457.73C1024.79 457.35 1027.75 452.97 1029.11 446.82C1031.02 438.18 1029.48 427.71 1022.84 424.41C1012.36 419.2 932.46 416.41 898.33 415.67V409.92C918.95 410.36 1012.51 412.71 1025.63 419.23C1035.15 423.96 1037.01 437.33 1034.71 447.74C1032.73 456.69 1027.91 462.7 1022.14 463.42C1021.96 463.44 1021.75 463.46 1021.52 463.48C1009 464.21 927.21 451.5 898.34 446.92V441.05L898.33 441.06Z" fill="#F48369"/>
<g opacity="0.58">
<g style="mix-blend-mode:multiply">
<path d="M1021.94 426.74L903.01 417.44C903.01 417.44 999.18 422.33 1021.94 426.74Z" fill="#E8D3C1"/>
</g>
<g style="mix-blend-mode:multiply">
<path d="M1023.37 429.97L904.44 420.67C904.44 420.67 1000.61 425.56 1023.37 429.97Z" fill="#E8D3C1"/>
</g>
<g style="mix-blend-mode:multiply">
<path d="M1026.43 433.52L905.41 423.6C905.41 423.6 1003.68 429.11 1026.43 433.52Z" fill="#E8D3C1"/>
</g>
<g style="mix-blend-mode:multiply">
<path d="M1026.57 437.27L905.6 426.13C905.6 426.13 1003.82 432.87 1026.57 437.27Z" fill="#E8D3C1"/>
</g>
<g style="mix-blend-mode:multiply">
<path d="M1026.57 440.64L905.6 428.74C905.6 428.74 1003.82 436.24 1026.57 440.64Z" fill="#E8D3C1"/>
</g>
<g style="mix-blend-mode:multiply">
<path d="M1026.57 443.79L905.6 430.9C905.6 430.9 1003.82 439.38 1026.57 443.79Z" fill="#E8D3C1"/>
</g>
<g style="mix-blend-mode:multiply">
<path d="M1025.65 446.09L905.41 433.35C905.41 433.35 1002.9 441.68 1025.65 446.09Z" fill="#E8D3C1"/>
</g>
<g style="mix-blend-mode:multiply">
<path d="M1025.65 448.82L905.6 435.83C905.6 435.83 1002.9 444.41 1025.65 448.82Z" fill="#E8D3C1"/>
</g>
<g style="mix-blend-mode:multiply">
<path d="M1023.94 452.07L905.12 437.53C905.12 437.53 1001.18 447.67 1023.94 452.07Z" fill="#E8D3C1"/>
</g>
<g style="mix-blend-mode:multiply">
<path d="M1021.94 454.97L904.44 439.65C904.44 439.65 999.18 450.56 1021.94 454.97Z" fill="#E8D3C1"/>
</g>
</g>
<path d="M1153.86 419.4C1153.86 419.4 1078.95 425.23 1059.33 427.18C1042.43 428.86 1037.65 427.7 1038.23 434.62C1038.8 441.54 1048.47 440.08 1072.45 437.52C1099.08 434.67 1149.28 429.86 1153.73 428.89C1158.18 427.91 1156.33 418.89 1153.86 419.4Z" fill="#F48369"/>
<path d="M1142.2 447.6C1142.03 447.59 1141.87 447.46 1141.82 447.29C1141.76 447.08 1141.88 446.87 1142.09 446.82C1143.37 446.54 1147.48 443.9 1148.12 441.06C1148.78 438.11 1149.62 431.36 1150.03 425.69C1150.41 420.33 1146.74 418.17 1146.58 418.08C1146.39 417.97 1146.31 417.73 1146.4 417.54C1146.5 417.35 1146.73 417.28 1146.93 417.4C1146.97 417.42 1151.23 419.89 1150.81 425.8C1150.4 431.5 1149.56 438.3 1148.89 441.28C1148.2 444.37 1143.87 447.26 1142.31 447.6C1142.27 447.6 1142.24 447.61 1142.2 447.6Z" fill="#F9A0A0"/>
<path d="M1137.06 448.14C1136.89 448.13 1136.73 448 1136.68 447.83C1136.62 447.62 1136.74 447.41 1136.95 447.36C1138.23 447.08 1142.34 444.44 1142.98 441.6C1143.64 438.65 1144.48 431.9 1144.89 426.23C1145.27 420.87 1141.6 418.71 1141.44 418.62C1141.25 418.51 1141.17 418.27 1141.26 418.08C1141.36 417.89 1141.59 417.82 1141.79 417.94C1141.83 417.96 1146.09 420.43 1145.67 426.34C1145.26 432.04 1144.42 438.84 1143.75 441.82C1143.06 444.91 1138.73 447.8 1137.17 448.14C1137.13 448.14 1137.1 448.15 1137.06 448.14Z" fill="#F9A0A0"/>
<path d="M1054.79 434.68C1055.25 444.27 1053.87 451.23 1049.86 460.18C1053.06 459.78 1056.43 459.35 1059.94 458.91C1060.32 457.99 1063.96 448.9 1064.08 436.17C1064.14 430 1062.38 425.77 1060.46 422.98L1051.11 423.6C1052.84 426.29 1054.56 430.06 1054.78 434.68H1054.79Z" fill="#CC3A1D"/>
<path d="M1069.5 433.72C1069.95 442.97 1068.65 449.79 1064.97 458.28C1068.25 457.86 1071.61 457.43 1075.02 457C1076.05 454.21 1078.69 446.02 1078.79 435.21C1078.85 429.03 1077.09 424.8 1075.17 422.01L1065.82 422.63C1067.55 425.32 1069.28 429.1 1069.5 433.72Z" fill="#CC3A1D"/>
<g style="mix-blend-mode:multiply">
<path d="M1017.23 435.83C1017.23 435.83 1016.13 453.49 1016.23 463.35C1013.36 463.13 1004.21 462.26 1004.21 462.26C1004.21 462.26 1006.84 436.1 1017.23 435.83Z" fill="#EFD5BF"/>
</g>
<path d="M1017.23 435.83C1017.23 435.83 1006.64 443.76 1006.02 475.47C1001.06 470.32 997.66 467.05 997.66 467.05L988.71 472.28C988.71 472.28 994.6 438.73 1001.53 434.02C1011.72 435.14 1017.23 435.83 1017.23 435.83Z" fill="#FFBC00"/>
<path d="M938.14 358.07V403.51C938.14 403.51 990.77 409.76 1002.19 406.56C1013.61 403.36 1008.27 387.81 1008.27 380.49C1008.27 373.17 1008.12 355.33 1006.29 351.06C1004.46 346.79 995.77 348.62 985.1 349.54C974.43 350.45 938.14 358.08 938.14 358.08V358.07Z" fill="#EEE6DE"/>
<path d="M1008.28 380.48C1008.28 373.16 1008.13 355.32 1006.3 351.05C1004.47 346.78 995.78 348.61 985.11 349.53C974.44 350.44 938.15 358.07 938.15 358.07V365.68C947.92 363.67 973.27 359.76 981.76 359.03C992.43 358.12 999.96 356.99 1001.79 361.26C1003.62 365.53 1004.22 381.61 1004.22 388.93C1004.22 392.96 1005.83 399.48 1005.38 405.07C1012.5 400.02 1008.28 387 1008.28 380.48Z" fill="#EFD5BF"/>
<g opacity="0.58">
<g style="mix-blend-mode:multiply">
<path d="M1008.01 351.76L938.66 361.77C938.66 361.77 994.32 351.61 1008.01 351.76Z" fill="#E8D3C1"/>
</g>
<g style="mix-blend-mode:multiply">
<path d="M1009.81 377.91L939.85 380.59C939.85 380.59 996.2 376.42 1009.81 377.91Z" fill="#E8D3C1"/>
</g>
<g style="mix-blend-mode:multiply">
<path d="M1009.81 375.01L939.88 379.51C939.88 379.51 996.16 373.78 1009.81 375.01Z" fill="#E8D3C1"/>
</g>
<g style="mix-blend-mode:multiply">
<path d="M1009.81 373.25L939.88 377.75C939.88 377.75 996.16 372.02 1009.81 373.25Z" fill="#E8D3C1"/>
</g>
<g style="mix-blend-mode:multiply">
<path d="M1009.79 370.94L939.91 376.15C939.91 376.15 996.13 369.85 1009.79 370.94Z" fill="#E8D3C1"/>
</g>
<g style="mix-blend-mode:multiply">
<path d="M1009.73 367.87L939.98 374.57C939.98 374.57 996.06 367.07 1009.73 367.87Z" fill="#E8D3C1"/>
</g>
<g style="mix-blend-mode:multiply">
<path d="M1009.73 365.66L939.98 372.34C939.98 372.34 996.06 364.85 1009.73 365.66Z" fill="#E8D3C1"/>
</g>
<g style="mix-blend-mode:multiply">
<path d="M1009.69 362.95L940.01 370.33C940.01 370.33 996.01 362.28 1009.69 362.95Z" fill="#E8D3C1"/>
</g>
<g style="mix-blend-mode:multiply">
<path d="M1009.69 360.43L940.01 367.81C940.01 367.81 996.01 359.76 1009.69 360.43Z" fill="#E8D3C1"/>
</g>
<g style="mix-blend-mode:multiply">
<path d="M1009.65 357.84L940.05 365.98C940.05 365.98 995.96 357.32 1009.65 357.84Z" fill="#E8D3C1"/>
</g>
<g style="mix-blend-mode:multiply">
<path d="M1009.95 354.97L940.35 363.11C940.35 363.11 996.26 354.45 1009.95 354.97Z" fill="#E8D3C1"/>
</g>
<g style="mix-blend-mode:multiply">
<path d="M1007.78 401.9L938.93 398.22C938.93 398.22 994.18 403.31 1007.78 401.9Z" fill="#E8D3C1"/>
</g>
<g style="mix-blend-mode:multiply">
<path d="M1009.54 380.08L940.13 382C940.13 382 995.86 382.06 1009.54 380.08Z" fill="#E8D3C1"/>
</g>
<g style="mix-blend-mode:multiply">
<path d="M1009.52 382.41L940.16 383.62C940.16 383.62 995.97 384.77 1009.52 382.41Z" fill="#E8D3C1"/>
</g>
<g style="mix-blend-mode:multiply">
<path d="M1009.46 385.51L940.22 385.21C940.22 385.21 995.89 387.58 1009.46 385.51Z" fill="#E8D3C1"/>
</g>
<g style="mix-blend-mode:multiply">
<path d="M1009.46 387.73L940.22 387.44C940.22 387.44 995.89 389.8 1009.46 387.73Z" fill="#E8D3C1"/>
</g>
<g style="mix-blend-mode:multiply">
<path d="M1009.43 390.47L940.26 389.47C940.26 389.47 995.85 392.4 1009.43 390.47Z" fill="#E8D3C1"/>
</g>
<g style="mix-blend-mode:multiply">
<path d="M1009.43 393.01L940.26 392.01C940.26 392.01 995.85 394.94 1009.43 393.01Z" fill="#E8D3C1"/>
</g>
<g style="mix-blend-mode:multiply">
<path d="M1009.4 395.62L940.31 393.85C940.31 393.85 995.81 397.41 1009.4 395.62Z" fill="#E8D3C1"/>
</g>
<g style="mix-blend-mode:multiply">
<path d="M1009.7 398.48L940.61 396.71C940.61 396.71 996.11 400.27 1009.7 398.48Z" fill="#E8D3C1"/>
</g>
<g style="mix-blend-mode:multiply">
<path d="M1008.33 404.05L938.33 400.81C938.33 400.81 994.71 405.52 1008.33 404.05Z" fill="#E8D3C1"/>
</g>
</g>
<path d="M1001.14 344.54C1001.14 344.54 1115.87 361.77 1125.22 364.98C1134.57 368.19 1133.34 392.24 1131.73 400.92C1130.12 409.6 1123.8 411.9 1117.09 411.9C1110.38 411.9 998.32 410.47 998.32 410.47C998.32 410.47 1007.1 408.33 1008.81 396.09C1010.52 383.85 1007.78 359.27 1007.24 355.09C1006.7 350.91 1001.15 344.54 1001.15 344.54H1001.14Z" fill="#FFBC00"/>
<path d="M1050.23 359.68C1050.73 363.56 1053.28 386.41 1051.69 397.79C1050.33 407.57 1044.12 410.41 1042.39 411.02C1045.54 411.06 1048.75 411.1 1051.99 411.14C1054.52 409.72 1058.54 406.33 1059.61 398.69C1061.2 387.31 1058.65 364.46 1058.15 360.58C1057.83 358.08 1055.57 354.73 1054.01 352.67C1051.24 352.23 1048.49 351.81 1045.79 351.38C1047.35 353.39 1049.89 357.02 1050.23 359.68Z" fill="#FFD773"/>
<path d="M1063.98 361.6C1064.48 365.39 1067.03 387.65 1065.44 398.74C1064.28 406.85 1059.61 410.06 1057.18 411.2C1060.29 411.24 1063.4 411.28 1066.48 411.31C1068.99 409.72 1072.4 406.36 1073.36 399.6C1074.95 388.51 1072.4 366.25 1071.9 362.46C1071.58 360.05 1069.38 356.85 1067.82 354.83C1065.07 354.39 1062.31 353.95 1059.55 353.52C1061.11 355.49 1063.63 359 1063.97 361.59L1063.98 361.6Z" fill="#FFD773"/>
<path d="M1011.8 377.62C1011.71 375.76 1011.62 373.96 1011.57 372.28C1011.53 371.17 1011.51 370.03 1011.48 368.9C1011.27 360.1 1011.05 350.99 1005.99 346.71C1003.7 344.77 1000.74 344.05 997.19 344.56C986.97 346.03 943.8 353.61 934.49 355.25V361.44C940.57 360.37 987.6 352.1 998.06 350.59C1000.43 350.25 1001.47 350.87 1002.06 351.36C1005.03 353.87 1005.22 361.93 1005.39 369.04C1005.42 370.19 1005.44 371.35 1005.48 372.48C1005.54 374.19 1005.69 377.17 1005.71 377.91C1005.76 379.48 1006.53 401.53 1002.86 403.82C998.79 405.67 965.08 403.93 934.48 401.16V407.28C946.38 408.35 973.78 410.64 991.13 410.64C998.26 410.64 1003.7 410.25 1005.66 409.24C1013.13 405.36 1012.46 391.26 1011.8 377.62Z" fill="#F7A500"/>
<g style="mix-blend-mode:multiply">
<path d="M1002.08 385.49C1002.08 385.49 1000.99 400.54 1001.1 410.25C995.4 410.64 989.27 410.64 989.27 410.64C989.27 410.64 991.86 385.76 1002.09 385.49H1002.08Z" fill="#EFD5BF"/>
</g>
<path d="M1002.08 385.48C1002.08 385.48 990.98 394.61 990.38 425.96C985.51 421.62 982.16 418.91 982.16 418.91L973.36 425.41C973.36 425.41 979.56 391.09 986.39 385.41C996.41 384.99 1002.09 385.48 1002.09 385.48H1002.08Z" fill="#3989B4"/>
<g style="mix-blend-mode:overlay" opacity="0.37">
<path d="M1012.96 349.68C1012.96 349.68 1116.94 366 1120.7 366.68C1124.45 367.35 1125.11 371.1 1125.89 373.94C1126.67 376.78 1123.64 375.61 1117.37 375.02C1111.1 374.43 1024.29 363.4 1019.59 362.74C1014.89 362.08 1014.2 360.36 1013.42 357.79C1012.64 355.22 1011.51 351.4 1011.66 350.62C1011.81 349.84 1012.17 349.55 1012.97 349.68H1012.96Z" fill="white"/>
</g>
<path d="M1019.64 410.45C1019.47 410.45 1019.3 410.37 1019.2 410.21C1019.04 409.97 1019.1 409.63 1019.35 409.47C1020.26 408.86 1023.78 403 1024.05 396.68C1024.31 390.53 1024.31 376.57 1024.05 364.91C1023.79 353.57 1020.1 349.43 1020.06 349.39C1019.86 349.17 1019.87 348.84 1020.09 348.64C1020.3 348.44 1020.64 348.45 1020.84 348.67C1021 348.85 1024.85 353.09 1025.12 364.89C1025.39 376.57 1025.39 390.56 1025.12 396.73C1024.85 403.03 1021.31 409.45 1019.95 410.36C1019.86 410.42 1019.76 410.45 1019.65 410.45H1019.64Z" fill="#CC8200"/>
<path d="M1025.56 411.05C1025.39 411.05 1025.22 410.97 1025.12 410.81C1024.96 410.57 1025.02 410.23 1025.27 410.07C1026.18 409.46 1029.7 403.6 1029.97 397.28C1030.23 391.13 1030.23 377.17 1029.97 365.51C1029.71 354.17 1026.02 350.03 1025.98 349.99C1025.78 349.77 1025.79 349.44 1026.01 349.24C1026.22 349.04 1026.56 349.05 1026.76 349.27C1026.92 349.44 1030.77 353.69 1031.04 365.49C1031.31 377.17 1031.31 391.16 1031.04 397.33C1030.77 403.63 1027.23 410.05 1025.87 410.96C1025.78 411.02 1025.68 411.05 1025.57 411.05H1025.56Z" fill="#CC8200"/>
<path d="M1064.38 281.21C1064.38 281.21 1075.6 290.76 1076.17 322.04C1081.11 317.92 1084.5 315.35 1084.5 315.35L1093.4 322.19C1093.4 322.19 1087.17 287.72 1080.27 281.78C1070.13 280.96 1064.37 281.21 1064.37 281.21H1064.38Z" fill="#FFBC00"/>
<path d="M1035.4 435.15C1035.4 435.15 1063.95 453.78 1079.84 503.51C1076.34 511.6 1081.4 522.01 1092.52 517.74C1100.22 515.82 1142.94 504.47 1172.59 542.97C1216.5 525.29 1266.6 508.66 1266.6 508.66C1266.6 508.66 1268.45 503.53 1268.14 503.3C1266.78 502.33 1260.87 505.88 1257.89 504.53C1240.83 496.83 1202.64 481.48 1179.27 486.62C1170.15 488.56 1165.3 487.16 1165.3 482.15C1165.3 477.14 1149.8 434.92 1137.93 424.03C1108.54 424.32 1062.1 433.32 1043.83 433.6C1043.18 433.6 1038.9 429.41 1037.71 429.61C1036.93 429.74 1035.41 435.16 1035.41 435.16L1035.4 435.15Z" fill="#87510A"/>
<path d="M1037.7 429.6C1037.7 429.6 1068.83 451.85 1084.72 501.58C1081.22 509.67 1084.67 516.92 1095.79 512.65C1103.49 510.73 1145.75 502.69 1174.8 537.99C1218.71 520.31 1268.15 503.3 1268.15 503.3C1268.15 503.3 1214.24 475.29 1183.44 482.07C1174.32 484.01 1169.47 482.61 1169.47 477.6C1169.47 472.59 1153.97 430.37 1142.1 419.48C1105.31 419.85 1037.72 429.61 1037.72 429.61L1037.7 429.6Z" fill="#6D3E06"/>
<path d="M1143.07 411.9L1053.11 417.88C1049.65 428.83 1089.25 482.1 1089.25 482.1C1089.25 482.1 1091.32 489.27 1096.74 500.13L1174.74 477.56C1166.4 442.37 1143.09 411.9 1143.09 411.9H1143.07Z" fill="#EADBCE"/>
<path d="M1174.79 477.8C1174.77 477.72 1174.75 477.64 1174.73 477.56L1096.73 500.13C1096.87 500.41 1097 500.68 1097.15 500.97C1139.29 493.1 1177.78 521.98 1177.78 521.98C1177.78 521.98 1197.13 515.76 1270.73 487.65C1251.88 478.39 1190.72 473.97 1174.79 477.79V477.8Z" fill="#E5D1C3"/>
<path d="M1179.59 515.57H1179.55C1179.55 515.57 1146.86 488.75 1098.98 499.31C1093.38 475.31 1068.3 424.79 1053.11 417.88C1048.31 421.7 1042.39 425.96 1042.39 425.96C1042.39 425.96 1076.75 457.91 1086.89 500.97C1094.53 500.65 1098.27 509.04 1098.27 509.04C1098.27 509.04 1124.18 503.57 1144.32 509.84C1164.46 516.11 1177.12 533.18 1177.12 533.18L1177.38 533.09L1269.66 499.85L1270.73 487.66L1179.59 515.58V515.57Z" fill="#D6B8A1"/>
<path d="M1179.55 515.58C1179.55 515.58 1146.86 488.75 1098.98 499.31C1093.38 475.31 1068.3 424.79 1053.11 417.88C1048.31 421.7 1042.39 425.96 1042.39 425.96C1042.39 425.96 1076.75 457.91 1086.89 500.97C1094.53 500.65 1098.27 509.04 1098.27 509.04C1098.27 509.04 1124.18 503.57 1144.32 509.84C1164.46 516.11 1177.12 533.18 1177.12 533.18L1177.38 533.09L1179.59 515.57H1179.55V515.58Z" fill="#DBC2AD"/>
<path d="M1098.98 500.13C1098.98 500.13 1133.52 485.64 1179.59 507.85C1228.59 494.25 1267 482.1 1267 482.1C1267 482.1 1215.13 468.02 1174.79 477.8C1134.45 487.58 1102.98 497.47 1098.98 500.14V500.13Z" fill="#EADBCE"/>
<path d="M1098.98 499.31C1098.98 499.31 1101.83 451.61 1066.48 411.32C1089.38 408.64 1154.98 407.47 1154.98 407.47C1154.98 407.47 1176.45 446.15 1174.78 477.8C1139.26 486.82 1098.97 499.32 1098.97 499.32L1098.98 499.31Z" fill="#EEE6DE"/>
<path d="M1181.38 476.42C1181.38 476.42 1119.75 492.91 1106.52 497.93C1093.29 502.95 1094.18 534.42 1094.18 534.42L1088.49 526.24L1083.16 531.27C1083.16 531.27 1085.45 505.14 1098.17 496.14C1110.89 487.13 1169.55 476.38 1181.38 476.42Z" fill="#FFBC00"/>
<g style="mix-blend-mode:multiply">
<path d="M1163.65 469.04C1154.95 469.04 1146.81 469.72 1139.88 470.91C1140.37 464.61 1139.65 457.2 1137.57 449.53C1132.36 430.35 1120.58 416.85 1111.25 419.38C1101.92 421.91 1098.59 439.52 1103.8 458.7C1107.41 471.98 1114.16 482.52 1121.07 486.92C1127.93 491.65 1144.41 494.99 1163.66 494.99C1189.07 494.99 1209.66 489.18 1209.66 482.01C1209.66 474.84 1189.06 469.03 1163.66 469.03L1163.65 469.04Z" fill="#EEE6DE"/>
</g>
<path d="M1209.22 404.5C1226.56 428.26 1221.36 461.57 1197.6 478.91C1173.84 496.25 1140.53 491.05 1123.19 467.29C1105.85 443.53 1111.05 410.22 1134.81 392.88C1158.57 375.54 1191.88 380.74 1209.22 404.5Z" fill="#003E60"/>
<g style="mix-blend-mode:multiply">
<path d="M1172.49 466.89C1172.46 466.81 1172.41 466.72 1172.35 466.62C1172.33 466.62 1172.32 466.61 1172.3 466.6L1172.49 466.89Z" fill="#C4C4C3"/>
</g>
<path d="M1122.96 407.67C1123.39 407.29 1123.83 407.22 1124.28 406.88C1125.29 406.1 1125.72 405.08 1126.49 404.08C1126.93 403.5 1128.27 401.65 1129.13 402.2C1129.1 402.47 1128.68 403.22 1128.93 403.48C1129.24 403.81 1129.81 403.26 1130.07 403.22C1130.1 403.77 1129.95 404.52 1130.15 405.03C1131 405.14 1131 404.17 1131.09 403.59C1131.19 402.91 1131.31 402.37 1131.67 401.76C1131.97 401.25 1132.24 400.94 1132.39 400.37C1132.56 399.77 1132.53 399.19 1132.83 398.66C1133.43 397.62 1134.24 396.85 1134.99 395.95C1135.38 395.47 1135.92 395.13 1136.33 394.69C1136.79 394.19 1137.14 393.62 1137.58 393.11C1138.22 392.38 1139.47 390.81 1140.6 390.98C1140.19 391.67 1139.15 392.08 1138.79 392.8C1138.54 393.29 1138.77 393.37 1138.28 393.74C1137.9 394.03 1137.25 394.2 1137.34 394.8C1137.62 394.79 1137.9 394.74 1138.04 394.99C1138.59 394.95 1139.02 394.17 1139.42 394.62C1139.92 395.18 1138.94 395.63 1139.04 396.07C1139.17 396.67 1140.04 395.57 1140.16 395.31C1140.4 394.81 1140.4 394.19 1140.74 393.73C1141.15 393.18 1141.86 392.78 1142.34 392.29C1142.77 391.85 1143.13 391.6 1143.71 391.33C1144.33 391.04 1145.01 390.79 1145.59 390.43C1145.97 390.2 1146.38 389.7 1146.85 389.76C1146.86 389.77 1146.91 389.87 1146.92 389.88C1147.2 389.65 1147.59 389.44 1147.87 389.24C1148.13 389.05 1148.47 388.69 1148.7 388.55C1149.48 388.07 1150.63 387.68 1151.53 387.29C1152.07 387.05 1152.35 386.52 1152.87 386.45C1153.1 386.42 1153.19 386.55 1153.5 386.42C1153.76 386.31 1153.94 386.04 1154.13 385.91C1154.53 385.65 1157.12 385.28 1156.78 384.68C1156.48 384.16 1153.68 384.67 1153.15 384.7C1152.22 384.75 1151.28 384.86 1150.35 385.02C1144.92 386.71 1139.66 389.32 1134.81 392.86C1132.5 394.54 1130.38 396.38 1128.42 398.34C1126.54 400.35 1124.8 402.46 1123.15 404.69C1122.7 405.3 1122.23 405.88 1121.79 406.47C1121.26 407.27 1120.76 408.08 1120.28 408.9C1120.06 409.38 1119.89 409.89 1119.79 410.44C1120.46 409.84 1121.2 409.3 1121.89 408.73C1122.27 408.41 1122.58 407.98 1122.96 407.65V407.67Z" fill="#3989B4"/>
<path d="M1151.92 395.05C1151.28 394.85 1151.11 395.43 1150.62 395.59C1150.62 395.48 1150.6 395.35 1150.59 395.24C1150.26 395.24 1149.98 395.26 1149.67 395.3C1149.65 395.21 1149.65 394.82 1149.67 394.67C1149.71 394.63 1149.86 394.58 1149.92 394.54C1149.94 394.44 1149.82 394.39 1149.85 394.29C1150.14 394.06 1150.07 393.96 1150.1 393.63C1150.05 393.58 1149.96 393.48 1149.91 393.44C1149.67 393.52 1149.09 393.75 1149 393.8C1148.8 393.92 1148.38 393.69 1148.4 394.22C1147.99 394.31 1147.14 394.55 1147.09 394.65C1146.63 395.44 1147.8 395.11 1147.45 395.77C1147.02 395.45 1146.58 395.54 1146.14 395.64C1145.84 395.78 1145.53 395.86 1145.21 395.9C1145.42 396.63 1145.25 396.54 1144.94 397.04C1144.86 397.17 1144.59 397.15 1144.46 397.32C1144.33 397.5 1144.55 397.86 1144.42 398.04C1143.97 398.65 1142.23 398.75 1142.85 399.84C1143.38 399.36 1143.97 400.08 1144.44 399.46C1144.78 399.65 1145.93 398.67 1146.17 398.36C1146.47 397.97 1146.41 397.63 1146.81 397.39C1146.93 397.32 1147.53 397.4 1147.74 397.32C1147.57 398.06 1146.3 398.61 1146.21 399.28C1146.11 400.09 1146.69 399.66 1147 399.48C1147.16 399.38 1147.25 398.33 1147.68 399.18C1148.24 398.98 1149.1 398.56 1149.27 397.97C1149.46 398.24 1149.75 398.38 1150.11 398.33C1150.24 397.8 1150.89 397.73 1150.8 397.03C1150.88 397.08 1151.06 397.12 1151.17 397.22C1151.44 396.92 1151.31 396.53 1151.09 396.28C1151.71 396.15 1151.84 395.55 1151.91 395.05H1151.92Z" fill="#3989B4"/>
<path d="M1172.17 466.45C1172.14 466.37 1172.09 466.28 1172.03 466.18C1172.01 466.18 1172 466.17 1171.98 466.16L1172.17 466.44V466.45Z" fill="url(#paint0_radial_946_4053)"/>
<path d="M1216.31 417.85C1214.63 413.2 1212.28 408.7 1209.21 404.5C1198.68 390.08 1182.27 382.5 1165.69 382.64C1165.26 382.86 1164.9 383.14 1164.71 383.48C1164.42 384.01 1164.45 383.81 1164.73 384.21C1165.01 384.61 1166.34 384.55 1166.56 384.84C1167.36 385.9 1165.43 385.51 1165.72 386.3C1165.39 386.44 1164.07 386.11 1164.94 387.01C1164.87 387.05 1164.76 387.05 1164.71 387.09C1164.83 388.03 1165.57 387.72 1166.31 387.83C1167.21 387.96 1167.69 388.56 1166.77 389.16C1167.1 389.61 1167.24 390.38 1166.51 390.47C1166.21 389.61 1165.96 390.58 1165.67 390.51C1165.33 390.43 1165.03 390.19 1165.42 389.72C1164.97 389.77 1164.45 389.7 1164.12 389.53C1164.22 389.48 1164.41 389.31 1164.51 389.27C1164.21 389.24 1163.57 389.47 1163.36 389.27C1162.98 388.92 1163.44 388.67 1163.75 388.6C1163.33 388.48 1162.93 388.52 1162.61 388.29C1162.9 388.01 1163.33 387.89 1163.58 387.53C1163.26 387.14 1162.34 387.26 1161.89 387.23C1161.31 387.19 1160.65 386.88 1160.07 386.97C1158.68 387.17 1157.54 387.52 1156.76 388.58C1155.92 389.72 1154.71 389.7 1153.54 390.49C1152.77 391.02 1151.44 392.22 1151.57 393.2C1151.63 393.3 1151.73 393.15 1151.75 393.15C1151.47 394.28 1153.2 393.62 1152.7 392.66C1152.9 392.75 1153.04 392.67 1153.26 392.84C1153.48 392.57 1154.37 390.92 1154.6 392.25C1155.11 392.21 1155.15 391.72 1155.71 391.81C1155.73 392.55 1155.52 393.44 1155.64 394.15C1156.47 394.37 1157.69 393.31 1157.34 392.49C1158.34 392.26 1157.5 391.29 1157.78 390.65C1157.87 390.45 1158.36 389.9 1158.46 389.82C1158.76 389.58 1158.81 389.25 1159.39 389.36C1159.48 389.99 1158.84 390.29 1158.95 390.94C1160.01 391.04 1159.89 391.67 1161.02 391.17C1161.69 390.87 1162.39 390.5 1162.35 391.7C1162.98 391.93 1163.72 391.61 1164.33 391.81C1164.58 391.89 1164.64 392.19 1164.82 392.27C1164.94 392.33 1165.59 392.45 1165.63 392.49C1167.02 394.12 1163.74 393.3 1163.59 393.41C1163.25 392.73 1161.93 393.26 1161.67 393.78C1161.3 394.53 1162.27 394.84 1161.08 394.87C1160.73 394.87 1160.62 394.64 1160.14 394.82C1159.82 394.94 1159.66 395.27 1159.31 395.41C1159.03 395.53 1158.49 395.52 1158.18 395.6C1157.93 395.67 1157.24 396.06 1157.05 396.05C1156.43 396.04 1155.96 395.37 1155.16 395.6C1154.57 395.76 1154.65 396.02 1154.21 396.33C1153.84 396.6 1153.42 396.45 1153.1 396.65C1152.34 397.13 1152.71 398.04 1152.25 398.64C1152.06 398.9 1151.67 398.89 1151.44 399.16C1151.23 399.41 1151.24 399.83 1150.97 400.12C1150.54 400.07 1150.23 400.13 1149.87 399.96C1149.39 400.63 1148.1 399.75 1147.69 400.78C1147.8 400.78 1147.93 400.8 1148.05 400.82C1147.91 400.96 1147.88 401.23 1147.79 401.35C1149.43 401.29 1148.58 403.16 1147.68 403.65C1147.36 403.31 1146.61 403.9 1146.17 404.01C1145.99 404.05 1145.94 404.3 1145.79 404.31C1145.6 404.33 1145.55 404.09 1145.41 404.11C1144.95 404.17 1144.63 404.31 1144.31 404C1143.93 404.33 1143.72 404.79 1143.52 405.25C1143.26 405.85 1143.22 406.2 1143.12 406.93C1142.99 407.88 1141.42 409.93 1143.5 409.58C1143.89 409.51 1144.54 409.01 1144.93 408.83C1145.12 408.74 1145.15 408.46 1145.31 408.39C1145.48 408.31 1145.72 408.45 1145.88 408.39C1146.21 408.24 1146.55 408.18 1146.83 407.91C1147.21 407.55 1147.47 407.14 1147.84 406.75C1148.1 406.48 1148.66 405.78 1148.73 405.37C1150.73 405.46 1149.17 403.97 1150.44 403.48C1151.09 403.23 1151.44 403.85 1152.1 403.44C1152.4 403.25 1152.32 402.86 1152.57 402.68C1152.83 402.49 1153.06 402.61 1153.33 402.5C1153.98 402.22 1154 402.01 1154.77 402.24C1154.97 402.3 1155.12 402.53 1155.34 402.62C1155.58 402.72 1155.85 402.61 1156.12 402.69C1156.68 402.87 1158.57 404.36 1158.73 402.82C1157.95 402.78 1156.36 402.51 1156.68 401.4C1158.51 400.63 1159.54 402 1160.83 402.8C1161.31 403.1 1162.07 403.56 1162.37 404.2C1162.7 404.93 1162.33 405.89 1163.56 405.63C1163.6 405.47 1163.72 405.15 1163.73 405C1163.73 404.95 1163.62 404.86 1163.59 404.82C1164.38 404.46 1163.63 404.29 1163.59 403.95C1163.56 403.75 1163.27 403.86 1163.37 403.45C1163.41 403.28 1163.97 403.31 1164.04 403.08C1164.21 402.51 1163.26 402.5 1164.15 402.13C1164.65 401.92 1165.28 402.08 1165.02 402.69C1165.34 402.84 1165.46 403.1 1165.4 403.46C1165.51 403.46 1165.64 403.48 1165.75 403.49C1165.9 404.1 1165.52 405.18 1166.22 405.48C1166.2 405.61 1166.24 405.79 1166.25 405.92C1167.08 406.04 1167.57 405.6 1168.32 405.36C1168.8 405.21 1169.78 404.78 1170.31 404.89C1170.72 404.97 1170.62 405.38 1171.07 405.35C1171.36 405.33 1171.66 404.79 1171.89 404.68C1173.07 404.11 1172.51 404.93 1172.92 405.66C1172.78 405.62 1172.67 405.63 1172.53 405.57C1172.81 405.81 1173.17 406 1173.42 406.2C1172.91 406.28 1172.5 406.11 1172 406.12C1172.35 406.21 1173.3 406.47 1173.26 407.15C1173.45 407.15 1173.64 407.17 1173.82 407.15C1173.82 407.24 1173.81 407.33 1173.8 407.42C1173.71 407.53 1173.7 407.56 1173.61 407.71C1173.47 407.71 1173.31 407.74 1173.16 407.74C1173.16 408.16 1172.88 408.31 1172.5 408.28C1172.45 408.2 1172.41 408.11 1172.37 408.03C1171.93 408.34 1169.85 409.25 1169.73 408.5C1169.42 408.48 1169.3 408.34 1169.01 408.47C1168.85 408.11 1168.53 407.91 1168.13 407.93C1167.86 408.29 1168.07 408.71 1167.88 408.99C1167.64 409.34 1167.21 409.36 1167.01 409.79C1167.25 410.05 1167.21 410.36 1166.97 410.65C1166.25 410.61 1166.48 409.92 1166.03 409.64C1165.84 409.52 1165.6 409.7 1165.39 409.62C1165.16 409.53 1164.7 409.25 1164.47 409.22C1162.61 408.96 1164.4 411.16 1163.05 411.31C1162.86 411.16 1159.55 412.81 1159.89 411.53C1158.89 411.41 1159.8 410.95 1159.55 410.56C1159.24 410.08 1158.64 410.35 1158.2 410.38C1157.66 410.41 1155.27 410.5 1156.11 409.17C1156 409.14 1155.88 409.07 1155.76 409.04C1155.93 408.28 1155.57 408.04 1155.26 407.46C1154.74 407.22 1154.51 407.67 1154.04 407.82C1153.62 407.96 1152.87 407.94 1152.51 407.94C1151.87 407.94 1150.25 407.83 1149.87 408.66C1148.71 408.77 1148.22 409.34 1147.33 410C1146.69 410.48 1146.79 410.52 1146.08 410.31C1145.64 410.18 1145.03 409.53 1144.76 410.27C1144.21 410.16 1144.06 410.47 1143.74 410.76C1143.55 410.93 1142.93 411.45 1142.82 411.64C1142.42 412.28 1142.38 413.65 1141.58 414C1141.64 414.52 1140.98 415.04 1140.71 415.4C1140.22 416.05 1139.99 416.18 1139.22 416.55C1139.27 417.05 1138.45 417.79 1138.08 418.12C1138.2 418.15 1138.31 418.23 1138.44 418.26C1138.31 418.99 1137.21 419.65 1136.95 420.4C1137.11 420.37 1137.33 420.45 1137.49 420.43C1137.43 420.98 1137.86 421.41 1137.58 421.91C1136.88 421.86 1136.7 422.58 1136.1 422.7C1136.21 423.01 1136.03 422.99 1136.36 423.18C1136.15 423.56 1135.81 424.38 1135.89 424.87C1136.03 425.66 1136.42 425.62 1136.11 426.48C1135.71 427.6 1134.81 428.34 1134.78 429.49C1134.89 429.49 1135.02 429.52 1135.13 429.52C1135.35 429.76 1135.48 430.09 1135.44 430.43C1135.57 430.41 1135.75 430.48 1135.88 430.46C1136.06 430.82 1136.03 431.24 1135.81 431.56C1135.88 431.83 1136.07 432.08 1136.27 432.23C1136.31 432.13 1136.42 431.98 1136.48 431.88C1137.43 431.74 1137.73 433.24 1138.19 433.85C1138.53 434.29 1138.66 434.53 1138.93 434.99C1139.15 435.36 1139.22 435.91 1139.4 436.22C1139.67 436.67 1140.09 436.7 1140.43 437.06C1140.89 437.56 1140.66 437.97 1141.49 438.1C1142.25 438.22 1143.71 437.84 1143.68 436.89C1144.24 436.74 1144.39 437.24 1144.81 437.25C1145.25 437.26 1145.4 437.07 1145.85 437.06C1146.5 437.06 1147.35 437.79 1147.56 436.51C1148.14 436.51 1148.39 436 1148.78 435.67C1149.23 435.3 1149.9 435.28 1150.27 434.96C1150.91 434.42 1151.03 432.35 1151.98 433.58C1152.02 433.67 1151.98 433.74 1152.01 433.83C1152.99 433.71 1153.38 435.04 1153.68 435.66C1153.79 435.9 1153.91 436.93 1153.98 436.97C1154.48 437.29 1155.12 436.72 1155.14 436.22C1155.55 436.11 1155.69 436.47 1156.05 436.38C1156.35 436.3 1156.51 435.93 1156.92 435.83C1157.21 435.76 1157.74 435.8 1157.98 435.9C1158.59 436.17 1158.2 436.12 1158.52 436.58C1158.87 437.08 1159.31 437.63 1159.38 438.38C1159.46 439.23 1158.85 439.93 1158.81 440.75C1158.77 441.54 1159.17 441.88 1159.69 442.33C1160.2 442.76 1160.42 443.16 1160.99 443.61C1161.64 444.13 1164.8 444.44 1163.56 445.55C1164.87 445.6 1163.86 446.41 1164.18 447.02C1164.21 447.07 1164.23 447.11 1164.26 447.15C1163.92 447.76 1163.88 448.57 1164.85 448.71C1164.8 449.1 1164.87 449.38 1164.87 449.74C1164.87 449.89 1164.55 450 1164.57 450.11C1164.62 450.33 1165.02 450.49 1165.03 450.61C1165.08 451.27 1164.81 451.67 1164.36 452.26C1163.86 452.92 1163.43 453.1 1163.18 453.89C1163.04 454.34 1162.99 454.28 1162.99 454.72C1162.99 454.68 1163.16 455.88 1163.16 455.88C1163.39 456.41 1164.49 456.73 1165.03 456.94C1165.82 457.25 1166.01 457.79 1166.55 458.07C1166.86 458.24 1167.26 458.07 1167.61 458.14C1167.97 458.21 1168.2 458.45 1168.56 458.52C1169.49 458.71 1170.17 458.46 1169.32 459.37C1169.06 459.65 1168.57 459.56 1168.58 460.11C1169.56 460.57 1167.48 461.61 1168.35 462.42C1168.69 462.74 1169.36 462.54 1169.68 462.86C1170.04 463.22 1169.7 463.98 1170.34 464.3C1170.36 464.44 1170.37 464.6 1170.37 464.74C1170.68 464.93 1170.54 464.84 1170.75 465.12C1171.23 465.16 1171.83 465.74 1172.11 466.19C1172.31 466.27 1172.21 466.38 1172.35 466.65C1172.39 466.73 1172.22 466.96 1172.27 467.1C1172.32 467.25 1172.6 467.18 1172.64 467.28C1172.84 467.85 1172.84 468.16 1172.84 468.81C1173.59 468.91 1174.37 469.04 1174.35 469.94C1175.1 470.04 1174.95 469.2 1175.17 468.72C1175.39 468.24 1175.66 467.99 1176.02 467.56C1176.56 466.91 1176.2 467.07 1177.08 466.83C1177.64 466.68 1178.2 466.65 1178.23 465.9C1179.47 465.84 1180.32 465.29 1181.38 464.77C1181.93 464.5 1182.39 464.35 1182.76 463.78C1183.23 463.05 1182.83 462.98 1182.93 462.31C1182.02 461.98 1183.08 460.86 1182.01 460.66C1182.32 459.57 1184.23 460.28 1184.38 459.28C1184.98 459.04 1185.51 458.94 1185.95 458.39C1186.46 457.75 1186.51 457.31 1186.26 456.79C1186.11 456.49 1185.85 456.26 1185.69 455.95C1185.55 455.68 1185.81 455.68 1185.43 455.27C1184.96 454.78 1184.22 454.96 1184.07 454.25C1183.87 453.31 1184.96 453.41 1185.61 453.21C1186.65 452.89 1186.44 452.42 1187.1 451.69C1187.34 451.42 1187.81 451.42 1187.98 451.2C1188.21 450.89 1188.06 450.34 1188.25 450C1188.42 449.69 1188.76 449.67 1188.92 449.23C1189.03 448.93 1189.06 448.72 1189.09 448.39C1188.93 448.23 1189.18 447.31 1189.11 446.86C1189.01 446.17 1188.59 445.66 1188.81 444.98C1188.68 444.95 1188.59 444.88 1188.46 444.85C1188.84 443.81 1187.79 443.73 1187.12 443.54C1187.11 443.54 1187.1 443.54 1187.09 443.53C1187.06 443.47 1187.04 443.42 1187.01 443.38C1186.77 442.98 1186.5 442.68 1186.17 442.34C1185.82 441.98 1185.34 441.92 1185.21 441.39C1184.7 441.23 1182.37 441.67 1183.36 440.35C1183.68 439.92 1184.36 440.15 1184.76 439.95C1185.38 439.64 1185.22 439.67 1185.44 438.93C1185.64 439.01 1185.95 438.93 1186.16 438.99C1186.42 438.42 1186.12 437.62 1186.38 437.11C1186.5 436.86 1187.01 436.67 1187.21 436.45C1187.56 436.07 1187.49 436.03 1187.69 435.6C1187.98 434.96 1188.14 434.61 1188.71 434.08C1189.27 433.56 1189.46 433.39 1189.48 432.49C1189.34 432.49 1189.17 432.45 1189.04 432.46C1188.98 431.95 1189.46 431.74 1189.51 431.26C1190.75 431.01 1190.04 430.04 1190.44 429.35C1190.64 429.01 1191.23 428.97 1191.37 428.67C1191.56 428.28 1191.08 427.79 1191.22 427.29C1192.33 427.09 1193.08 426.32 1193.18 425.19C1193.1 425.15 1193.01 425.12 1192.92 425.09C1192.88 424.15 1193.69 423.33 1193.88 422.36C1194.05 421.52 1194.64 420.09 1194.22 419.35C1193.28 419.2 1193.65 420.34 1193.27 420.73C1192.81 421.22 1191.78 420.6 1191.76 421.49C1190.92 421.58 1190.72 422.73 1189.96 423C1189.27 423.24 1188 422.7 1187.98 424.05C1187.08 423.94 1184.66 425.37 1184.32 423.99C1184.76 423.8 1186.69 422.75 1185.07 422.63C1185.22 422.3 1185.15 421.94 1184.95 421.62C1183.86 421.46 1183.59 422.94 1182.97 421.43C1182.6 421.43 1182.32 421.48 1181.96 421.5C1182.01 420.6 1181.79 420.57 1181.29 420.02C1180.96 419.66 1181.04 419.99 1180.82 419.42C1180.68 419.06 1180.69 418.43 1180.62 418.03C1180.15 417.96 1179.47 417.8 1179.19 417.47C1179 417.25 1179.15 416.83 1179.01 416.68C1178.78 416.44 1178.43 416.53 1178.17 416.41C1177.28 415.98 1176.37 415.81 1175.44 415.35C1175.82 414.38 1174.27 414.67 1173.84 414.4C1172.9 413.82 1173.33 413.28 1174.01 413C1174.54 412.78 1175.69 413.1 1175.4 412.55C1174.97 411.73 1174.2 412.38 1173.55 412.23C1173.17 411.55 1174.07 411.13 1174.98 410.7C1175.46 410.94 1175.84 411.66 1176.09 411.96C1176.38 412.31 1177.13 412.67 1177.05 413.27C1177.56 413.2 1177.99 413.48 1178.19 413.93C1179.45 413.84 1180.57 414.68 1181.67 415.18C1182.26 415.44 1185 416.4 1185 416.77C1186.23 416.91 1185.94 417.9 1185.75 418.76C1186.7 418.81 1185.47 420.25 1186.68 420.67C1187.62 420.99 1188.51 420.65 1189.42 420.29C1189.97 420.08 1190.48 419.96 1191.03 419.82C1191.3 419.75 1191.64 419.79 1191.88 419.61C1192.32 419.27 1191.97 419.23 1192.16 418.97C1192.67 418.27 1193.61 417.87 1194.25 417.17C1193.68 416.59 1194.72 415.89 1194.89 415.27C1193.84 415.25 1194.04 414.09 1194.22 413.4C1194.06 413.46 1193.74 413.4 1193.58 413.47C1193.58 413.13 1194.49 410.49 1193.11 411.77C1193.16 410.92 1192.66 411.32 1192.24 411.21C1191.52 411.03 1191.77 411.36 1191.49 410.55C1191.28 409.95 1191.02 408.6 1190.08 408.86C1189.8 409.54 1189.95 410.79 1188.74 410.64C1188.33 410.59 1188.35 410.14 1187.99 410.06C1187.5 409.95 1187.39 410.29 1186.92 410.06C1186.37 409.79 1185.99 408.82 1185.62 408.45C1185.14 407.96 1184.04 407.83 1184.47 406.86C1183.5 406.73 1184.04 405.08 1185.06 405.42C1185.74 405.64 1185.6 406.83 1186.74 406.39C1186.78 407.11 1186.71 407.23 1187.13 407.61C1187.45 407.9 1187.84 407.64 1188.09 408.25C1188.8 408.46 1189.15 407.67 1189.85 407.72C1189.97 407.99 1190.89 408.66 1191.11 408.75C1191.37 408.86 1192.77 408.84 1193.06 408.73C1193.4 408.59 1193.27 408.16 1193.57 408.01C1193.88 407.85 1194.13 408.05 1194.4 408C1194.98 407.88 1195.99 407.41 1195.74 408.64C1196.24 408.57 1196.74 408.84 1197.17 408.87C1198.04 408.93 1197.85 408.69 1198.46 409.34C1198.35 410.3 1201.16 410.49 1201.85 410.38C1202.27 410.84 1203.08 410.69 1202.93 411.48C1203.58 411.75 1203.01 412.1 1203.18 412.54C1203.37 413.03 1203.64 412.9 1204.13 413.32C1204.25 413.42 1204.29 413.74 1204.33 413.77C1204.35 413.79 1204.95 414.1 1204.91 414.05C1205.27 414.53 1205.26 414.65 1205.3 415.36C1206.26 415.54 1206.8 416.48 1206.8 417.36C1206.8 417.78 1206.51 418.16 1206.68 418.52C1206.96 419.09 1207.34 418.79 1207.72 419.09C1208.52 419.72 1208.19 420.42 1208.89 420.9V413.64C1208.1 413.36 1209.06 412.47 1208.58 411.89C1208.24 411.48 1207.06 411.45 1206.64 411.09C1206.37 410.86 1206.3 410.51 1206.15 410.26C1205.97 409.96 1205.44 409.91 1205.69 409.33C1205.83 409.01 1206.34 409.16 1206.52 408.84C1206.72 408.49 1206.49 408.02 1206.63 407.62C1206.76 407.64 1206.94 407.58 1207.07 407.59C1207.1 407.04 1206.87 406.13 1207.73 406.39C1207.63 407.09 1207.84 408.24 1208.67 408.19C1209.05 408.95 1208.16 409.35 1208.85 410C1209.13 410.26 1209.6 410.02 1209.85 410.33C1210.02 410.53 1209.93 411.12 1209.93 411.38C1210.87 411.78 1210.93 413.02 1212.07 412.8C1212 412.5 1212.04 412.3 1211.79 412.06C1212.44 411.4 1212.29 412.46 1212.39 412.63C1212.58 412.94 1212.9 413.17 1213.04 413.57C1213.16 413.92 1213.03 414.47 1213.1 414.83C1213.18 415.22 1213.51 415.38 1213.43 415.92C1213.88 416.12 1215.68 417.74 1216.41 417.85H1216.31ZM1171.79 401.65C1170.82 400.57 1171.09 402.29 1170.54 402.58C1170.02 402.86 1169.67 402.3 1169.23 402.22C1168.84 402.14 1168.38 402.33 1168 402.21C1167.26 401.97 1166.92 401.31 1166.31 400.88C1165.8 400.52 1165.68 400.83 1165.43 400.31C1165.33 400.11 1166.18 399.83 1165.38 399.66C1165.4 399.53 1165.37 399.34 1165.35 399.22C1164.78 399.15 1163.67 399.82 1163.55 399.13C1162.9 399.09 1162.33 399.21 1161.68 399.1C1161.95 397.96 1163.05 397.93 1164.04 397.79C1164.91 397.67 1165.95 397.39 1166.78 397.24C1167.04 397.19 1167.78 396.94 1167.91 396.95C1168.35 396.98 1168.62 397.3 1169.03 397.43C1169.54 397.59 1169.67 397.51 1170.12 397.24C1170.32 397.12 1170.56 396.24 1170.95 396.94L1171.42 397.13C1171.53 397.26 1171.66 397.26 1171.62 397.49C1171.73 397.5 1171.85 397.51 1171.97 397.52C1172 397.67 1172.04 397.84 1172.07 397.96C1171.92 398.05 1171.92 398.15 1171.81 398.25C1172.04 398.26 1172.16 398.4 1172.36 398.45C1172.25 399.05 1170.26 398.99 1171.52 399.59C1172.31 399.97 1173.43 399.47 1174.25 399.6C1174.21 399.71 1174.2 399.85 1174.18 399.95C1174.59 399.91 1174.73 399.99 1174.85 400.33C1174.9 400.34 1174.95 400.35 1175.01 400.36C1175.18 402.29 1172.06 400.17 1171.81 401.66L1171.79 401.65ZM1180.23 402.39C1179.19 401.9 1179.45 401.52 1179.26 400.52C1179.08 399.58 1177.95 399.39 1178.02 398.45C1177.44 398.4 1176.81 398.22 1176.98 397.5C1176.27 397.66 1176.15 397.2 1175.87 396.81C1175.93 396.35 1176.31 395.59 1175.68 395.39C1176 394.83 1176.49 394.75 1176.25 394.01C1176.91 393.96 1177.19 393.34 1177.83 393.22C1177.81 393.09 1177.87 392.91 1177.86 392.78C1178.32 392.76 1178.8 392.76 1179.25 392.78C1179.33 392.94 1179.18 392.89 1179.17 392.95L1179.26 393.52C1179.86 394.61 1177.66 394.99 1177.82 395.91C1178.05 397.22 1179.98 397.26 1181.05 397.31C1180.97 397.73 1181.1 398.15 1181.5 398.34C1180.27 399.01 1182.3 399.7 1182.85 399.68C1182.84 399.81 1182.9 399.99 1182.88 400.12C1183.37 400.12 1183.79 399.79 1184.27 400.06C1184.01 401.26 1185.46 400.79 1184.68 402.02C1185.16 402.02 1185.54 402.25 1185.82 402.61C1184.45 403.94 1181.68 403.07 1180.25 402.4L1180.23 402.39Z" fill="#3989B4"/>
<path d="M1189.81 461.34C1190.45 461.56 1190.9 461.44 1191.36 460.96C1191.54 460.77 1191.58 460.42 1191.73 460.27C1191.93 460.08 1192.34 460.1 1192.5 459.9C1192.68 459.67 1192.5 459.26 1192.68 459.06C1192.92 458.8 1193.31 458.94 1193.56 458.71C1194.1 458.23 1193.8 457.79 1193.91 457.1C1194.1 455.98 1195.28 455.89 1196.27 455.35C1196.7 455.11 1197.36 454.88 1197.05 454.34C1196.77 453.84 1196.1 454.28 1195.55 454.14C1195.66 453.28 1195.88 453.17 1194.79 453.01C1194.72 452.42 1195.12 452.01 1195.71 451.97C1195.59 451.72 1195.7 451.48 1195.64 451.24C1196.59 451.22 1196.39 449.98 1196.48 449.43C1196.54 449.08 1196.73 448.82 1196.77 448.39C1196.8 448.02 1196.62 447.63 1196.65 447.37C1196.72 446.7 1197.28 443.83 1195.94 443.46C1195.79 443.21 1195.61 443.1 1195.45 442.91L1194.88 443C1195.68 444.03 1195.25 444.09 1194.78 444.99C1194.47 445.59 1194.83 446.55 1194.43 447.09C1194.2 447.4 1193.64 447.47 1193.36 447.73C1193.12 447.96 1192.83 448.47 1192.68 448.77C1192.53 449.05 1192.46 449.59 1192.31 449.81C1192 450.25 1191.54 450.28 1191.19 450.61C1190.41 451.33 1190.69 451.86 1190.88 452.67C1191.02 453.27 1191.06 454.07 1190.91 454.82C1190.83 455.19 1190.63 455.59 1190.53 455.95C1190.53 455.98 1190.28 456.57 1190.26 456.44C1190.29 456.64 1190.62 456.88 1190.63 456.96C1190.67 457.7 1190.45 458.4 1190.25 459.16C1190.08 459.79 1190.21 460.81 1189.82 461.34H1189.81Z" fill="#3989B4"/>
<path d="M1134.03 477.61C1133.81 477.35 1133.64 476.86 1133.42 476.55C1132.98 475.92 1132.55 475.27 1132.05 474.7C1131.47 474.04 1130.59 473.56 1130.25 472.78C1129.94 472.08 1129.96 470.96 1129.06 470.68C1129.17 469.96 1128.52 469.65 1128.65 468.92C1128.31 468.89 1127.69 468.36 1127.53 468.15C1127.18 467.69 1127.21 467.45 1127.04 466.85C1126.99 466.67 1126.68 466.55 1126.61 466.28C1126.61 466.29 1126.77 465.73 1126.78 465.69C1126.94 465.12 1126.83 465.03 1127.44 464.74C1128 464.48 1128.21 464.99 1128.48 464.28C1128.57 464.03 1128.3 463.36 1128.17 463.07C1127.77 462.15 1127.76 461.57 1126.68 461.49C1126.23 461.19 1126.44 460.91 1126.29 460.49C1126.06 459.86 1125.81 459.27 1125.65 458.6C1125.57 458.27 1125.67 457.65 1125.47 457.37C1125.27 457.09 1124.9 457.16 1124.68 456.93C1123.93 456.11 1124.44 456.07 1124.9 455.58C1125.22 455.24 1125.15 455.31 1125.35 454.84C1125.35 454.84 1125.14 454.59 1125.19 454.44C1125.26 454.26 1125.57 454.25 1125.63 454.14C1125.96 453.51 1126.38 452.93 1126.43 452.19C1126.48 451.43 1126.01 450.98 1125.93 450.27C1125.84 449.44 1126.24 449.16 1125.34 448.5C1124.9 448.18 1123.75 448.02 1123.65 447.54C1122.99 447.4 1122.06 448.31 1122.04 447.16C1120.99 446.84 1121.09 448.19 1120.18 447.98C1119.97 447.4 1119.31 445.96 1118.67 445.8C1118.55 445.19 1119.37 443.57 1118.1 443.82C1118.1 443.49 1118.08 443.14 1118.07 442.81C1117.8 442.65 1117.86 442.74 1117.8 442.42C1117.58 441.27 1118.36 439.41 1117.07 438.61C1116.51 438.26 1115.87 438.81 1115.27 438.33C1114.76 437.92 1114.8 436.77 1114.89 436.19C1115.04 435.21 1114.93 434.9 1114.58 434C1114.27 433.2 1114.51 432.64 1114.3 431.83C1113.98 430.58 1113.82 429.37 1113.54 428.03C1111.54 441.39 1114.6 455.52 1123.19 467.29C1126.32 471.58 1129.98 475.27 1134.01 478.32C1134.37 478.35 1134.74 478.35 1135.07 478.36C1134.75 478.03 1134.34 477.95 1134.04 477.6L1134.03 477.61Z" fill="#3989B4"/>
<path d="M1198.44 475.59V475.46C1198.29 475.9 1198.2 476.18 1197.89 476.53C1197.52 476.94 1197.55 476.89 1197.37 477.42C1197.27 477.71 1197.23 477.76 1197.11 477.98C1197.11 477.98 1196.76 478.46 1196.8 478.43C1196.56 478.61 1196.21 478.65 1195.98 478.88C1195.62 479.24 1195.69 479.4 1195.16 479.64C1194.81 479.8 1194.4 480.06 1194.02 480.12C1193.02 480.27 1193.14 478.99 1192.27 479.13C1192.14 479.41 1191.78 479.41 1191.51 479.55C1191.24 479.1 1190.88 479.3 1190.5 479.38C1190.1 480.1 1189.54 480.74 1188.72 480.93C1188.1 481.07 1188.2 480.84 1187.65 480.76C1187.51 480.74 1187.08 480.82 1186.95 480.9C1186.69 481.08 1186.78 481.25 1186.57 481.39C1186.23 481.63 1185.86 481.65 1185.5 481.88C1185.12 482.12 1184.85 482.48 1184.41 482.64C1183.85 482.85 1183.33 482.81 1182.78 483.05C1182.37 483.23 1181.66 483.28 1181.33 483.53C1181.13 483.39 1180.9 483.27 1180.65 483.3C1180.67 483.4 1180.61 483.56 1180.63 483.66C1180.3 483.66 1180.14 483.94 1179.88 484.11C1179.73 484.21 1179.58 484.16 1179.42 484.28C1179.26 484.41 1179.21 484.48 1179.13 484.66C1179.53 484.74 1179.36 484.89 1179.3 485.16C1179.3 485.13 1178.91 485.74 1178.92 485.73C1178.5 486.03 1177.49 485.97 1177.28 485.44C1177.03 485.69 1176.55 485.75 1176.4 486.05C1176.05 485.96 1175.78 485.74 1175.4 485.68C1174.79 485.58 1174.66 485.89 1174.21 486.05C1173.49 486.3 1172.76 485.82 1172.07 485.99C1172.01 485.42 1171.46 485.5 1171.55 486.05C1171.26 486.05 1170.97 486.01 1170.72 486.18C1170.44 486.07 1170.06 485.98 1169.79 486.2C1169.15 485.56 1167.32 486.99 1166.76 487.45C1166.64 487.55 1166.64 487.8 1166.51 487.91C1166.4 488.01 1166.19 488.05 1166.07 488.16C1165.85 488.35 1165.68 488.55 1165.45 488.72C1165.31 488.83 1165.1 489 1164.91 489.14C1176.23 489.42 1187.72 486.11 1197.58 478.92C1197.67 478.85 1197.76 478.78 1197.85 478.71C1197.88 478.42 1197.88 478.13 1197.97 477.86C1198.04 477.63 1198.85 477.06 1198.11 477.03C1198.49 476.76 1198.25 476.62 1198.31 476.35C1198.37 476.09 1198.56 475.87 1198.42 475.59H1198.44Z" fill="#3989B4"/>
<path d="M1145.03 393.98C1145.03 393.98 1146.27 393.4 1146.36 393.34C1146.77 393.02 1146.47 392.34 1147.28 392.47C1147.73 391.66 1148.21 391.2 1148.64 390.42C1148.87 390.38 1148.94 390.22 1149.1 390.12L1149.57 389.65C1149.28 389.89 1147.72 390.65 1147.21 390.77C1146.79 390.86 1146.48 390.78 1146.08 390.89C1145.14 391.13 1145.61 391.18 1145.22 391.83C1144.98 392.24 1143.73 393.84 1145.03 393.99V393.98Z" fill="#3989B4"/>
<mask id="mask1_946_4053" style="mask-type:luminance" maskUnits="userSpaceOnUse" x="1112" y="382" width="108" height="108">
<path d="M1209.22 404.5C1226.56 428.26 1221.36 461.57 1197.6 478.91C1173.84 496.25 1140.53 491.05 1123.19 467.29C1105.85 443.53 1111.05 410.22 1134.81 392.88C1158.57 375.54 1191.88 380.74 1209.22 404.5Z" fill="white"/>
</mask>
<g mask="url(#mask1_946_4053)">
</g>
<g style="mix-blend-mode:overlay" opacity="0.4">
<path d="M1147.36 386.09C1139.3 390.25 1133.2 396.78 1130.57 405.15C1124.37 424.88 1139.73 447.28 1164.88 455.19C1187.61 462.34 1210.56 455.19 1219.34 439.18C1220.09 427.22 1216.82 414.94 1209.2 404.5C1194.75 384.7 1169.21 377.81 1147.35 386.09H1147.36Z" fill="#E9F8FF"/>
</g>
<defs>
<radialGradient id="paint0_radial_946_4053" cx="0" cy="0" r="1" gradientUnits="userSpaceOnUse" gradientTransform="translate(1172.08 466.3) scale(0.120002 0.120004)">
<stop stop-color="white"/>
<stop offset="0.21" stop-color="#E9E9F2"/>
<stop offset="1" stop-color="#9997C6"/>
</radialGradient>
</defs>
</svg>
