<svg width="1440" height="757" viewBox="0 0 1440 757" fill="none" xmlns="http://www.w3.org/2000/svg">
<rect width="1440" height="399" fill="#1B3764"/>
<mask id="mask0_950_4564" style="mask-type:alpha" maskUnits="userSpaceOnUse" x="0" y="181" width="585" height="613">
<rect x="585" y="794" width="585" height="613" transform="rotate(180 585 794)" fill="#C4C4C4"/>
</mask>
<g mask="url(#mask0_950_4564)">
<circle cx="427.5" cy="595.5" r="3.5" transform="rotate(180 427.5 595.5)" fill="#F5F6F8" fill-opacity="0.6"/>
<circle cx="427.5" cy="578.5" r="3.5" transform="rotate(180 427.5 578.5)" fill="#F5F6F8" fill-opacity="0.6"/>
<circle cx="427.5" cy="561.5" r="3.5" transform="rotate(180 427.5 561.5)" fill="#F5F6F8" fill-opacity="0.6"/>
<circle cx="427.5" cy="544.5" r="3.5" transform="rotate(180 427.5 544.5)" fill="#F5F6F8" fill-opacity="0.6"/>
<circle cx="427.5" cy="527.5" r="3.5" transform="rotate(180 427.5 527.5)" fill="#F5F6F8" fill-opacity="0.6"/>
<circle cx="427.5" cy="510.5" r="3.5" transform="rotate(180 427.5 510.5)" fill="#F5F6F8" fill-opacity="0.6"/>
<circle cx="410.5" cy="595.5" r="3.5" transform="rotate(180 410.5 595.5)" fill="#F5F6F8" fill-opacity="0.6"/>
<circle cx="410.5" cy="578.5" r="3.5" transform="rotate(180 410.5 578.5)" fill="#F5F6F8" fill-opacity="0.6"/>
<circle cx="410.5" cy="561.5" r="3.5" transform="rotate(180 410.5 561.5)" fill="#F5F6F8" fill-opacity="0.6"/>
<circle cx="410.5" cy="544.5" r="3.5" transform="rotate(180 410.5 544.5)" fill="#F5F6F8" fill-opacity="0.6"/>
<circle cx="410.5" cy="527.5" r="3.5" transform="rotate(180 410.5 527.5)" fill="#F5F6F8" fill-opacity="0.6"/>
<circle cx="410.5" cy="510.5" r="3.5" transform="rotate(180 410.5 510.5)" fill="#F5F6F8" fill-opacity="0.6"/>
<circle cx="393.5" cy="595.5" r="3.5" transform="rotate(180 393.5 595.5)" fill="#F5F6F8" fill-opacity="0.6"/>
<circle cx="393.5" cy="578.5" r="3.5" transform="rotate(180 393.5 578.5)" fill="#F5F6F8" fill-opacity="0.6"/>
<circle cx="393.5" cy="561.5" r="3.5" transform="rotate(180 393.5 561.5)" fill="#F5F6F8" fill-opacity="0.6"/>
<circle cx="393.5" cy="544.5" r="3.5" transform="rotate(180 393.5 544.5)" fill="#F5F6F8" fill-opacity="0.6"/>
<circle cx="393.5" cy="527.5" r="3.5" transform="rotate(180 393.5 527.5)" fill="#F5F6F8" fill-opacity="0.6"/>
<circle cx="393.5" cy="510.5" r="3.5" transform="rotate(180 393.5 510.5)" fill="#F5F6F8" fill-opacity="0.6"/>
<circle cx="376.5" cy="595.5" r="3.5" transform="rotate(180 376.5 595.5)" fill="#F5F6F8" fill-opacity="0.6"/>
<circle cx="376.5" cy="578.5" r="3.5" transform="rotate(180 376.5 578.5)" fill="#F5F6F8" fill-opacity="0.6"/>
<circle cx="376.5" cy="561.5" r="3.5" transform="rotate(180 376.5 561.5)" fill="#F5F6F8" fill-opacity="0.6"/>
<circle cx="376.5" cy="544.5" r="3.5" transform="rotate(180 376.5 544.5)" fill="#F5F6F8" fill-opacity="0.6"/>
<circle cx="376.5" cy="527.5" r="3.5" transform="rotate(180 376.5 527.5)" fill="#F5F6F8" fill-opacity="0.6"/>
<circle cx="376.5" cy="510.5" r="3.5" transform="rotate(180 376.5 510.5)" fill="#F5F6F8" fill-opacity="0.6"/>
<circle cx="359.5" cy="595.5" r="3.5" transform="rotate(180 359.5 595.5)" fill="#F5F6F8" fill-opacity="0.6"/>
<circle cx="359.5" cy="578.5" r="3.5" transform="rotate(180 359.5 578.5)" fill="#F5F6F8" fill-opacity="0.6"/>
<circle cx="359.5" cy="561.5" r="3.5" transform="rotate(180 359.5 561.5)" fill="#F5F6F8" fill-opacity="0.6"/>
<circle cx="359.5" cy="544.5" r="3.5" transform="rotate(180 359.5 544.5)" fill="#F5F6F8" fill-opacity="0.6"/>
<circle cx="359.5" cy="527.5" r="3.5" transform="rotate(180 359.5 527.5)" fill="#F5F6F8" fill-opacity="0.6"/>
<circle cx="359.5" cy="510.5" r="3.5" transform="rotate(180 359.5 510.5)" fill="#F5F6F8" fill-opacity="0.6"/>
<circle cx="342.5" cy="595.5" r="3.5" transform="rotate(180 342.5 595.5)" fill="#F5F6F8" fill-opacity="0.6"/>
<circle cx="342.5" cy="578.5" r="3.5" transform="rotate(180 342.5 578.5)" fill="#F5F6F8" fill-opacity="0.6"/>
<circle cx="342.5" cy="561.5" r="3.5" transform="rotate(180 342.5 561.5)" fill="#F5F6F8" fill-opacity="0.6"/>
<circle cx="342.5" cy="544.5" r="3.5" transform="rotate(180 342.5 544.5)" fill="#F5F6F8" fill-opacity="0.6"/>
<circle cx="342.5" cy="527.5" r="3.5" transform="rotate(180 342.5 527.5)" fill="#F5F6F8" fill-opacity="0.6"/>
<circle cx="342.5" cy="510.5" r="3.5" transform="rotate(180 342.5 510.5)" fill="#F5F6F8" fill-opacity="0.6"/>
<circle cx="325.5" cy="595.5" r="3.5" transform="rotate(180 325.5 595.5)" fill="#F5F6F8" fill-opacity="0.6"/>
<circle cx="325.5" cy="578.5" r="3.5" transform="rotate(180 325.5 578.5)" fill="#F5F6F8" fill-opacity="0.6"/>
<circle cx="325.5" cy="561.5" r="3.5" transform="rotate(180 325.5 561.5)" fill="#F5F6F8" fill-opacity="0.6"/>
<circle cx="325.5" cy="544.5" r="3.5" transform="rotate(180 325.5 544.5)" fill="#F5F6F8" fill-opacity="0.6"/>
<circle cx="325.5" cy="527.5" r="3.5" transform="rotate(180 325.5 527.5)" fill="#F5F6F8" fill-opacity="0.6"/>
<circle cx="325.5" cy="510.5" r="3.5" transform="rotate(180 325.5 510.5)" fill="#F5F6F8" fill-opacity="0.6"/>
<circle cx="112.5" cy="269.5" r="3.5" transform="rotate(180 112.5 269.5)" fill="#F5F6F8" fill-opacity="0.6"/>
<circle cx="112.5" cy="252.5" r="3.5" transform="rotate(180 112.5 252.5)" fill="#F5F6F8" fill-opacity="0.6"/>
<circle cx="112.5" cy="235.5" r="3.5" transform="rotate(180 112.5 235.5)" fill="#F5F6F8" fill-opacity="0.6"/>
<circle cx="112.5" cy="218.5" r="3.5" transform="rotate(180 112.5 218.5)" fill="#F5F6F8" fill-opacity="0.6"/>
<circle cx="112.5" cy="201.5" r="3.5" transform="rotate(180 112.5 201.5)" fill="#F5F6F8" fill-opacity="0.6"/>
<circle cx="112.5" cy="184.5" r="3.5" transform="rotate(180 112.5 184.5)" fill="#F5F6F8" fill-opacity="0.6"/>
<circle cx="95.5" cy="269.5" r="3.5" transform="rotate(180 95.5 269.5)" fill="#F5F6F8" fill-opacity="0.6"/>
<circle cx="95.5" cy="252.5" r="3.5" transform="rotate(180 95.5 252.5)" fill="#F5F6F8" fill-opacity="0.6"/>
<circle cx="95.5" cy="235.5" r="3.5" transform="rotate(180 95.5 235.5)" fill="#F5F6F8" fill-opacity="0.6"/>
<circle cx="95.5" cy="218.5" r="3.5" transform="rotate(180 95.5 218.5)" fill="#F5F6F8" fill-opacity="0.6"/>
<circle cx="95.5" cy="201.5" r="3.5" transform="rotate(180 95.5 201.5)" fill="#F5F6F8" fill-opacity="0.6"/>
<circle cx="95.5" cy="184.5" r="3.5" transform="rotate(180 95.5 184.5)" fill="#F5F6F8" fill-opacity="0.6"/>
<circle cx="78.5" cy="269.5" r="3.5" transform="rotate(180 78.5 269.5)" fill="#F5F6F8" fill-opacity="0.6"/>
<circle cx="78.5" cy="252.5" r="3.5" transform="rotate(180 78.5 252.5)" fill="#F5F6F8" fill-opacity="0.6"/>
<circle cx="78.5" cy="235.5" r="3.5" transform="rotate(180 78.5 235.5)" fill="#F5F6F8" fill-opacity="0.6"/>
<circle cx="78.5" cy="218.5" r="3.5" transform="rotate(180 78.5 218.5)" fill="#F5F6F8" fill-opacity="0.6"/>
<circle cx="78.5" cy="201.5" r="3.5" transform="rotate(180 78.5 201.5)" fill="#F5F6F8" fill-opacity="0.6"/>
<circle cx="78.5" cy="184.5" r="3.5" transform="rotate(180 78.5 184.5)" fill="#F5F6F8" fill-opacity="0.6"/>
<circle cx="61.5" cy="269.5" r="3.5" transform="rotate(180 61.5 269.5)" fill="#F5F6F8" fill-opacity="0.6"/>
<circle cx="61.5" cy="252.5" r="3.5" transform="rotate(180 61.5 252.5)" fill="#F5F6F8" fill-opacity="0.6"/>
<circle cx="61.5" cy="235.5" r="3.5" transform="rotate(180 61.5 235.5)" fill="#F5F6F8" fill-opacity="0.6"/>
<circle cx="61.5" cy="218.5" r="3.5" transform="rotate(180 61.5 218.5)" fill="#F5F6F8" fill-opacity="0.6"/>
<circle cx="61.5" cy="201.5" r="3.5" transform="rotate(180 61.5 201.5)" fill="#F5F6F8" fill-opacity="0.6"/>
<circle cx="61.5" cy="184.5" r="3.5" transform="rotate(180 61.5 184.5)" fill="#F5F6F8" fill-opacity="0.6"/>
<circle cx="44.5" cy="269.5" r="3.5" transform="rotate(180 44.5 269.5)" fill="#F5F6F8" fill-opacity="0.6"/>
<circle cx="44.5" cy="252.5" r="3.5" transform="rotate(180 44.5 252.5)" fill="#F5F6F8" fill-opacity="0.6"/>
<circle cx="44.5" cy="235.5" r="3.5" transform="rotate(180 44.5 235.5)" fill="#F5F6F8" fill-opacity="0.6"/>
<circle cx="44.5" cy="218.5" r="3.5" transform="rotate(180 44.5 218.5)" fill="#F5F6F8" fill-opacity="0.6"/>
<circle cx="44.5" cy="201.5" r="3.5" transform="rotate(180 44.5 201.5)" fill="#F5F6F8" fill-opacity="0.6"/>
<circle cx="44.5" cy="184.5" r="3.5" transform="rotate(180 44.5 184.5)" fill="#F5F6F8" fill-opacity="0.6"/>
<circle cx="27.5" cy="269.5" r="3.5" transform="rotate(180 27.5 269.5)" fill="#F5F6F8" fill-opacity="0.6"/>
<circle cx="27.5" cy="252.5" r="3.5" transform="rotate(180 27.5 252.5)" fill="#F5F6F8" fill-opacity="0.6"/>
<circle cx="27.5" cy="235.5" r="3.5" transform="rotate(180 27.5 235.5)" fill="#F5F6F8" fill-opacity="0.6"/>
<circle cx="27.5" cy="218.5" r="3.5" transform="rotate(180 27.5 218.5)" fill="#F5F6F8" fill-opacity="0.6"/>
<circle cx="27.5" cy="201.5" r="3.5" transform="rotate(180 27.5 201.5)" fill="#F5F6F8" fill-opacity="0.6"/>
<circle cx="27.5" cy="184.5" r="3.5" transform="rotate(180 27.5 184.5)" fill="#F5F6F8" fill-opacity="0.6"/>
<circle cx="10.5" cy="269.5" r="3.5" transform="rotate(180 10.5 269.5)" fill="#F5F6F8" fill-opacity="0.6"/>
<circle cx="10.5" cy="252.5" r="3.5" transform="rotate(180 10.5 252.5)" fill="#F5F6F8" fill-opacity="0.6"/>
<circle cx="10.5" cy="235.5" r="3.5" transform="rotate(180 10.5 235.5)" fill="#F5F6F8" fill-opacity="0.6"/>
<circle cx="10.5" cy="218.5" r="3.5" transform="rotate(180 10.5 218.5)" fill="#F5F6F8" fill-opacity="0.6"/>
<circle cx="10.5" cy="201.5" r="3.5" transform="rotate(180 10.5 201.5)" fill="#F5F6F8" fill-opacity="0.6"/>
<circle cx="10.5" cy="184.5" r="3.5" transform="rotate(180 10.5 184.5)" fill="#F5F6F8" fill-opacity="0.6"/>
<circle cx="-112" cy="507" r="237.5" transform="rotate(180 -112 507)" stroke="#F5F6F8" stroke-opacity="0.3" stroke-width="25"/>
</g>
<mask id="mask1_950_4564" style="mask-type:alpha" maskUnits="userSpaceOnUse" x="855" y="-2" width="585" height="613">
<rect x="855" y="-2" width="585" height="613" fill="#C4C4C4"/>
</mask>
<g mask="url(#mask1_950_4564)">
<circle cx="1099.5" cy="3.5" r="3.5" fill="#F5F6F8" fill-opacity="0.6"/>
<circle cx="1099.5" cy="20.5" r="3.5" fill="#F5F6F8" fill-opacity="0.6"/>
<circle cx="1099.5" cy="37.5" r="3.5" fill="#F5F6F8" fill-opacity="0.6"/>
<circle cx="1099.5" cy="54.5" r="3.5" fill="#F5F6F8" fill-opacity="0.6"/>
<circle cx="1099.5" cy="71.5" r="3.5" fill="#F5F6F8" fill-opacity="0.6"/>
<circle cx="1099.5" cy="88.5" r="3.5" fill="#F5F6F8" fill-opacity="0.6"/>
<circle cx="1116.5" cy="3.5" r="3.5" fill="#F5F6F8" fill-opacity="0.6"/>
<circle cx="1116.5" cy="20.5" r="3.5" fill="#F5F6F8" fill-opacity="0.6"/>
<circle cx="1116.5" cy="37.5" r="3.5" fill="#F5F6F8" fill-opacity="0.6"/>
<circle cx="1116.5" cy="54.5" r="3.5" fill="#F5F6F8" fill-opacity="0.6"/>
<circle cx="1116.5" cy="71.5" r="3.5" fill="#F5F6F8" fill-opacity="0.6"/>
<circle cx="1116.5" cy="88.5" r="3.5" fill="#F5F6F8" fill-opacity="0.6"/>
<circle cx="1133.5" cy="3.5" r="3.5" fill="#F5F6F8" fill-opacity="0.6"/>
<circle cx="1133.5" cy="20.5" r="3.5" fill="#F5F6F8" fill-opacity="0.6"/>
<circle cx="1133.5" cy="37.5" r="3.5" fill="#F5F6F8" fill-opacity="0.6"/>
<circle cx="1133.5" cy="54.5" r="3.5" fill="#F5F6F8" fill-opacity="0.6"/>
<circle cx="1133.5" cy="71.5" r="3.5" fill="#F5F6F8" fill-opacity="0.6"/>
<circle cx="1133.5" cy="88.5" r="3.5" fill="#F5F6F8" fill-opacity="0.6"/>
<circle cx="1150.5" cy="3.5" r="3.5" fill="#F5F6F8" fill-opacity="0.6"/>
<circle cx="1150.5" cy="20.5" r="3.5" fill="#F5F6F8" fill-opacity="0.6"/>
<circle cx="1150.5" cy="37.5" r="3.5" fill="#F5F6F8" fill-opacity="0.6"/>
<circle cx="1150.5" cy="54.5" r="3.5" fill="#F5F6F8" fill-opacity="0.6"/>
<circle cx="1150.5" cy="71.5" r="3.5" fill="#F5F6F8" fill-opacity="0.6"/>
<circle cx="1150.5" cy="88.5" r="3.5" fill="#F5F6F8" fill-opacity="0.6"/>
<circle cx="1167.5" cy="3.5" r="3.5" fill="#F5F6F8" fill-opacity="0.6"/>
<circle cx="1167.5" cy="20.5" r="3.5" fill="#F5F6F8" fill-opacity="0.6"/>
<circle cx="1167.5" cy="37.5" r="3.5" fill="#F5F6F8" fill-opacity="0.6"/>
<circle cx="1167.5" cy="54.5" r="3.5" fill="#F5F6F8" fill-opacity="0.6"/>
<circle cx="1167.5" cy="71.5" r="3.5" fill="#F5F6F8" fill-opacity="0.6"/>
<circle cx="1167.5" cy="88.5" r="3.5" fill="#F5F6F8" fill-opacity="0.6"/>
<circle cx="1184.5" cy="3.5" r="3.5" fill="#F5F6F8" fill-opacity="0.6"/>
<circle cx="1184.5" cy="20.5" r="3.5" fill="#F5F6F8" fill-opacity="0.6"/>
<circle cx="1184.5" cy="37.5" r="3.5" fill="#F5F6F8" fill-opacity="0.6"/>
<circle cx="1184.5" cy="54.5" r="3.5" fill="#F5F6F8" fill-opacity="0.6"/>
<circle cx="1184.5" cy="71.5" r="3.5" fill="#F5F6F8" fill-opacity="0.6"/>
<circle cx="1184.5" cy="88.5" r="3.5" fill="#F5F6F8" fill-opacity="0.6"/>
<circle cx="1201.5" cy="3.5" r="3.5" fill="#F5F6F8" fill-opacity="0.6"/>
<circle cx="1201.5" cy="20.5" r="3.5" fill="#F5F6F8" fill-opacity="0.6"/>
<circle cx="1201.5" cy="37.5" r="3.5" fill="#F5F6F8" fill-opacity="0.6"/>
<circle cx="1201.5" cy="54.5" r="3.5" fill="#F5F6F8" fill-opacity="0.6"/>
<circle cx="1201.5" cy="71.5" r="3.5" fill="#F5F6F8" fill-opacity="0.6"/>
<circle cx="1201.5" cy="88.5" r="3.5" fill="#F5F6F8" fill-opacity="0.6"/>
<circle cx="1327.5" cy="522.5" r="3.5" fill="#F5F6F8" fill-opacity="0.6"/>
<circle cx="1327.5" cy="539.5" r="3.5" fill="#F5F6F8" fill-opacity="0.6"/>
<circle cx="1327.5" cy="556.5" r="3.5" fill="#F5F6F8" fill-opacity="0.6"/>
<circle cx="1327.5" cy="573.5" r="3.5" fill="#F5F6F8" fill-opacity="0.6"/>
<circle cx="1327.5" cy="590.5" r="3.5" fill="#F5F6F8" fill-opacity="0.6"/>
<circle cx="1327.5" cy="607.5" r="3.5" fill="#F5F6F8" fill-opacity="0.6"/>
<circle cx="1344.5" cy="522.5" r="3.5" fill="#F5F6F8" fill-opacity="0.6"/>
<circle cx="1344.5" cy="539.5" r="3.5" fill="#F5F6F8" fill-opacity="0.6"/>
<circle cx="1344.5" cy="556.5" r="3.5" fill="#F5F6F8" fill-opacity="0.6"/>
<circle cx="1344.5" cy="573.5" r="3.5" fill="#F5F6F8" fill-opacity="0.6"/>
<circle cx="1344.5" cy="590.5" r="3.5" fill="#F5F6F8" fill-opacity="0.6"/>
<circle cx="1344.5" cy="607.5" r="3.5" fill="#F5F6F8" fill-opacity="0.6"/>
<circle cx="1361.5" cy="522.5" r="3.5" fill="#F5F6F8" fill-opacity="0.6"/>
<circle cx="1361.5" cy="539.5" r="3.5" fill="#F5F6F8" fill-opacity="0.6"/>
<circle cx="1361.5" cy="556.5" r="3.5" fill="#F5F6F8" fill-opacity="0.6"/>
<circle cx="1361.5" cy="573.5" r="3.5" fill="#F5F6F8" fill-opacity="0.6"/>
<circle cx="1361.5" cy="590.5" r="3.5" fill="#F5F6F8" fill-opacity="0.6"/>
<circle cx="1361.5" cy="607.5" r="3.5" fill="#F5F6F8" fill-opacity="0.6"/>
<circle cx="1378.5" cy="522.5" r="3.5" fill="#F5F6F8" fill-opacity="0.6"/>
<circle cx="1378.5" cy="539.5" r="3.5" fill="#F5F6F8" fill-opacity="0.6"/>
<circle cx="1378.5" cy="556.5" r="3.5" fill="#F5F6F8" fill-opacity="0.6"/>
<circle cx="1378.5" cy="573.5" r="3.5" fill="#F5F6F8" fill-opacity="0.6"/>
<circle cx="1378.5" cy="590.5" r="3.5" fill="#F5F6F8" fill-opacity="0.6"/>
<circle cx="1378.5" cy="607.5" r="3.5" fill="#F5F6F8" fill-opacity="0.6"/>
<circle cx="1395.5" cy="522.5" r="3.5" fill="#F5F6F8" fill-opacity="0.6"/>
<circle cx="1395.5" cy="539.5" r="3.5" fill="#F5F6F8" fill-opacity="0.6"/>
<circle cx="1395.5" cy="556.5" r="3.5" fill="#F5F6F8" fill-opacity="0.6"/>
<circle cx="1395.5" cy="573.5" r="3.5" fill="#F5F6F8" fill-opacity="0.6"/>
<circle cx="1395.5" cy="590.5" r="3.5" fill="#F5F6F8" fill-opacity="0.6"/>
<circle cx="1395.5" cy="607.5" r="3.5" fill="#F5F6F8" fill-opacity="0.6"/>
<circle cx="1412.5" cy="522.5" r="3.5" fill="#F5F6F8" fill-opacity="0.6"/>
<circle cx="1412.5" cy="539.5" r="3.5" fill="#F5F6F8" fill-opacity="0.6"/>
<circle cx="1412.5" cy="556.5" r="3.5" fill="#F5F6F8" fill-opacity="0.6"/>
<circle cx="1412.5" cy="573.5" r="3.5" fill="#F5F6F8" fill-opacity="0.6"/>
<circle cx="1412.5" cy="590.5" r="3.5" fill="#F5F6F8" fill-opacity="0.6"/>
<circle cx="1412.5" cy="607.5" r="3.5" fill="#F5F6F8" fill-opacity="0.6"/>
<circle cx="1429.5" cy="522.5" r="3.5" fill="#F5F6F8" fill-opacity="0.6"/>
<circle cx="1429.5" cy="539.5" r="3.5" fill="#F5F6F8" fill-opacity="0.6"/>
<circle cx="1429.5" cy="556.5" r="3.5" fill="#F5F6F8" fill-opacity="0.6"/>
<circle cx="1429.5" cy="573.5" r="3.5" fill="#F5F6F8" fill-opacity="0.6"/>
<circle cx="1429.5" cy="590.5" r="3.5" fill="#F5F6F8" fill-opacity="0.6"/>
<circle cx="1429.5" cy="607.5" r="3.5" fill="#F5F6F8" fill-opacity="0.6"/>
<circle cx="1552" cy="285" r="237.5" stroke="#F5F6F8" stroke-opacity="0.3" stroke-width="25"/>
</g>
</svg>
