<svg width="190" height="190" viewBox="0 0 190 190" fill="none" xmlns="http://www.w3.org/2000/svg">
<path d="M33.6112 168.04C67.8872 188.271 123.466 188.271 157.746 168.04C192.026 147.809 192.026 115.007 157.746 94.7796C123.466 74.5522 67.8872 74.5484 33.6074 94.7796C-0.672434 115.011 -0.668636 147.82 33.6112 168.04Z" fill="#F5F5F5"/>
<path d="M148.633 163.799C157.907 163.799 165.425 159.459 165.425 154.105C165.425 148.751 157.907 144.411 148.633 144.411C139.359 144.411 131.841 148.751 131.841 154.105C131.841 159.459 139.359 163.799 148.633 163.799Z" fill="#E0E0E0"/>
<path d="M138.1 29.3132L141.014 30.9966C140.998 30.8705 140.989 30.7437 140.988 30.6166V29.7654C140.988 28.2454 142.044 27.6526 143.344 28.405C143.903 28.7489 144.383 29.2089 144.75 29.754C144.962 27.854 146.444 27.1624 148.246 28.1998C150.191 29.3398 151.768 32.0568 151.768 34.3064V35.568C151.781 36.0718 151.68 36.5719 151.472 37.031L153.889 38.4294C154.271 38.6789 154.589 39.0157 154.817 39.4121C155.044 39.8084 155.174 40.2531 155.196 40.7094C155.196 41.5416 154.611 41.8798 153.889 41.4694L138.1 32.3494C137.717 32.0998 137.399 31.7631 137.172 31.3667C136.944 30.9704 136.814 30.5257 136.792 30.0694C136.8 29.2334 137.378 28.88 138.1 29.3132Z" fill="#EBEBEB"/>
<path d="M125.628 37.8024L127.828 39.0716C127.816 38.9758 127.81 38.8794 127.809 38.7828V38.1444C127.809 37.0044 128.607 36.5522 129.588 37.1184C130.011 37.377 130.373 37.7245 130.648 38.1368C130.808 36.7118 131.925 36.1798 133.285 36.9626C134.06 37.4678 134.704 38.1484 135.166 38.9493C135.628 39.7502 135.895 40.6487 135.945 41.572V42.5258C135.955 42.9054 135.879 43.2823 135.721 43.6278L137.545 44.6842C137.832 44.8708 138.071 45.1226 138.243 45.4191C138.415 45.7155 138.514 46.0483 138.533 46.3904C138.533 47.0212 138.092 47.2758 137.545 46.9604L125.628 40.0786C125.342 39.8927 125.103 39.6422 124.932 39.3471C124.76 39.052 124.66 38.7208 124.64 38.38C124.64 37.7416 125.085 37.487 125.628 37.8024Z" fill="#EBEBEB"/>
<path d="M28.0745 109.676C27.8579 109.793 23.8945 110.922 22.4125 108.976C20.9305 107.031 23.3815 104.002 22.0021 102.896C20.6227 101.791 16.7543 102.896 15.8233 100.552C14.8923 98.2072 17.6511 97.1888 16.1007 94.8214C15.1241 93.3318 12.7225 92.4958 12.5097 91.1164C12.1601 88.8136 15.9753 87.7534 19.2433 89.9308C22.5113 92.1082 24.4835 91.1088 25.5209 90.9606C26.5583 90.8124 28.7889 91.1392 28.7167 94.7606C28.6445 98.382 28.0745 109.676 28.0745 109.676Z" fill="#CFD8DC"/>
<path d="M28.3366 104.5C28.285 104.501 28.2351 104.482 28.1959 104.449C28.1568 104.415 28.1312 104.369 28.1238 104.318C26.9838 97.4168 18.962 91.7966 14.7896 90.592C14.7342 90.5764 14.6872 90.5394 14.6591 90.4891C14.6309 90.4389 14.6239 90.3795 14.6395 90.3241C14.6551 90.2687 14.6921 90.2217 14.7424 90.1936C14.7926 90.1654 14.852 90.1584 14.9074 90.174C19.1748 91.409 27.3828 97.166 28.5494 104.234C28.5582 104.29 28.5443 104.348 28.5109 104.394C28.4774 104.44 28.4271 104.472 28.3708 104.481L28.3366 104.5Z" fill="white"/>
<path d="M18.8745 98.724C18.8267 98.7257 18.7797 98.7112 18.7412 98.6829C18.7026 98.6546 18.6747 98.6141 18.662 98.568C18.6492 98.5219 18.6524 98.4728 18.671 98.4287C18.6895 98.3846 18.7224 98.3481 18.7643 98.325C18.8935 98.2452 21.9791 96.425 25.0229 97.2838C25.0781 97.3006 25.1247 97.338 25.153 97.3882C25.1813 97.4385 25.1891 97.4977 25.1749 97.5536C25.159 97.6083 25.1221 97.6546 25.0723 97.6823C25.0226 97.7101 24.9638 97.7171 24.9089 97.7018C22.0399 96.9 18.9999 98.6784 18.9999 98.6974C18.9616 98.7183 18.918 98.7275 18.8745 98.724Z" fill="white"/>
<path d="M29.6133 112.328C29.6539 112.881 29.824 113.416 30.1098 113.891C30.3957 114.365 30.7892 114.766 31.2587 115.06L77.3641 141.66C77.874 141.919 78.4377 142.054 79.0095 142.054C79.5813 142.054 80.145 141.919 80.6549 141.66L143.735 105.237C144.232 104.975 144.648 104.582 144.939 104.1C145.229 103.619 145.382 103.067 145.382 102.505C145.382 101.943 145.229 101.391 144.939 100.91C144.648 100.428 144.232 100.035 143.735 99.7728L97.6333 73.1728C97.1234 72.9141 96.5597 72.7793 95.9879 72.7793C95.4161 72.7793 94.8524 72.9141 94.3425 73.1728L31.2625 109.596C30.7923 109.89 30.398 110.29 30.1115 110.765C29.825 111.24 29.6543 111.775 29.6133 112.328Z" fill="#37474F"/>
<path d="M79.0097 138.51V142.071C78.4378 142.086 77.8714 141.955 77.3643 141.691L31.2589 115.091C30.7769 114.837 30.3708 114.459 30.0821 113.997C29.7933 113.535 29.6323 113.005 29.6153 112.46C29.5983 111.916 29.726 111.376 29.9853 110.897C30.2447 110.418 30.6264 110.016 31.0917 109.733C30.3545 110.261 30.4115 111.036 31.2589 111.526L77.3643 138.126C77.8711 138.392 78.4375 138.525 79.0097 138.51Z" fill="#263238"/>
<path d="M28.0706 109.653C27.6119 109.342 27.233 108.928 26.9649 108.443C26.6968 107.958 26.547 107.417 26.5278 106.864V51.8434C26.559 51.2725 26.7242 50.717 27.0101 50.2219C27.296 49.7267 27.6944 49.3059 28.1732 48.9934L91.2532 12.5742C91.7427 12.3149 92.2863 12.1743 92.8401 12.1638C93.3939 12.1532 93.9424 12.273 94.4414 12.5134C94.9005 12.8247 95.2798 13.2398 95.5485 13.7251C95.8172 14.2103 95.9678 14.7521 95.988 15.3064V70.3228C95.9574 70.8938 95.7925 71.4496 95.5066 71.9448C95.2206 72.44 94.8219 72.8608 94.3426 73.1728L31.2626 109.596C30.7727 109.856 30.2281 109.997 29.6735 110.007C29.1188 110.017 28.5696 109.895 28.0706 109.653Z" fill="#455A64"/>
<path d="M31.065 109.695C30.5933 109.907 30.0806 110.014 29.5632 110.007C29.0458 109.999 28.5363 109.879 28.0706 109.653C27.6125 109.342 27.2341 108.927 26.9661 108.442C26.6981 107.958 26.5479 107.417 26.5278 106.864V51.8434C26.5465 51.2712 26.7127 50.7136 27.0104 50.2246L30.096 52.003C29.8005 52.493 29.6345 53.05 29.6134 53.6218V108.646C29.6134 109.619 30.248 110.056 31.065 109.695Z" fill="#263238"/>
<path d="M29.6133 53.6256V108.646C29.6133 109.695 30.3505 110.12 31.2587 109.596L94.3387 73.1728C94.8179 72.8608 95.2167 72.44 95.5026 71.9448C95.7885 71.4496 95.9535 70.8938 95.9841 70.3228V15.3064C95.9841 14.2576 95.2469 13.832 94.3387 14.3564L31.2587 50.7756C30.7801 51.0883 30.3818 51.5092 30.096 52.0043C29.8101 52.4994 29.6448 53.0548 29.6133 53.6256Z" fill="#37474F"/>
<path d="M31.2588 111.496L77.3642 138.096C77.8741 138.355 78.4378 138.489 79.0096 138.489C79.5814 138.489 80.1451 138.355 80.655 138.096L143.735 101.673C144.643 101.148 144.643 100.297 143.735 99.7728L97.6334 73.1728C97.1235 72.9141 96.5598 72.7793 95.988 72.7793C95.4162 72.7793 94.8525 72.9141 94.3426 73.1728L31.2626 109.596C30.3506 110.12 30.3506 110.96 31.2588 111.496Z" fill="#455A64"/>
<path d="M32.1442 53.8308L92.9443 18.7264C93.4915 18.411 93.9323 18.6656 93.9323 19.2964V66.9218C93.914 67.2645 93.815 67.5981 93.6433 67.8953C93.4716 68.1924 93.2321 68.4448 92.9443 68.6318L32.1442 103.74C31.597 104.055 31.1562 103.801 31.1562 103.17V55.5408C31.1745 55.1981 31.2735 54.8645 31.4452 54.5673C31.6169 54.2702 31.8565 54.0178 32.1442 53.8308Z" fill="white"/>
<path opacity="0.6" d="M32.1442 53.8308L92.9443 18.7264C93.4915 18.411 93.9323 18.6656 93.9323 19.2964V66.9218C93.914 67.2645 93.815 67.5981 93.6433 67.8953C93.4716 68.1924 93.2321 68.4448 92.9443 68.6318L32.1442 103.74C31.597 104.055 31.1562 103.801 31.1562 103.17V55.5408C31.1745 55.1981 31.2735 54.8645 31.4452 54.5673C31.6169 54.2702 31.8565 54.0178 32.1442 53.8308Z" fill="#CFD8DC"/>
<path d="M62.4225 50.8174C64.0413 49.8826 65.3561 50.6426 65.3561 52.5122C65.3004 53.5294 65.0057 54.5192 64.496 55.4012C63.9863 56.2833 63.276 57.0328 62.4225 57.589C60.8037 58.5238 59.4927 57.7676 59.4927 55.898C59.5474 54.8805 59.8412 53.8902 60.3502 53.0074C60.8592 52.1247 61.5692 51.3744 62.4225 50.8174Z" fill="#F0F0F0"/>
<path d="M68.2027 60.819C68.2027 57.7486 66.0443 56.3844 63.3843 57.9196L61.7237 58.9C59.0637 60.42 56.9053 64.1706 56.9053 67.26V68.0884L68.2027 61.5676V60.819Z" fill="#F0F0F0"/>
<path d="M73.9136 62.32C73.8072 62.073 73.5336 62.0122 73.2258 62.187L53.4962 73.587C53.2843 73.7264 53.108 73.9135 52.9814 74.1332C52.8547 74.3529 52.7811 74.5992 52.7666 74.8524V77.1704C52.7666 77.5504 53.0022 77.7594 53.3214 77.672L53.3746 77.653C53.4162 77.6363 53.4568 77.6173 53.4962 77.596L73.2258 66.196C73.4385 66.0575 73.6154 65.8706 73.7422 65.6507C73.869 65.4308 73.9421 65.1841 73.9554 64.9306V62.624C73.959 62.521 73.9448 62.4182 73.9136 62.32Z" fill="#F0F0F0"/>
<path d="M55.2785 73.8758C55.6585 73.6516 55.9739 73.834 55.9739 74.2748C55.9616 74.5158 55.8922 74.7504 55.7712 74.9592C55.6503 75.168 55.4814 75.345 55.2785 75.4756C54.8985 75.696 54.5869 75.5174 54.5869 75.0728C54.5994 74.8328 54.6685 74.5992 54.7888 74.3911C54.909 74.183 55.0768 74.0064 55.2785 73.8758Z" fill="#CFD8DC"/>
<path d="M57.5738 72.5496C57.9538 72.3292 58.2654 72.5078 58.2654 72.9524C58.253 73.1924 58.1838 73.426 58.0636 73.6341C57.9434 73.8422 57.7755 74.0188 57.5738 74.1494C57.1938 74.3736 56.8784 74.1912 56.8784 73.7694C56.8877 73.5252 56.9558 73.2867 57.0768 73.0744C57.1979 72.862 57.3684 72.682 57.5738 72.5496Z" fill="#CFD8DC"/>
<path d="M59.8653 71.2272C60.2453 71.0068 60.5569 71.1854 60.5569 71.6262C60.5451 71.8668 60.4762 72.1012 60.3559 72.31C60.2357 72.5188 60.0675 72.696 59.8653 72.827C59.4853 73.0474 59.1699 72.8688 59.1699 72.428C59.1822 72.187 59.2517 71.9524 59.3726 71.7436C59.4935 71.5348 59.6624 71.3578 59.8653 71.2272Z" fill="#CFD8DC"/>
<path d="M62.1564 69.92C62.5364 69.6958 62.8518 69.8782 62.8518 70.3C62.8396 70.541 62.7701 70.7756 62.6492 70.9844C62.5282 71.1932 62.3593 71.3702 62.1564 71.5008C61.7764 71.7212 61.4648 71.5426 61.4648 71.1208C61.4767 70.8802 61.5456 70.6458 61.6658 70.437C61.7861 70.2282 61.9542 70.051 62.1564 69.92Z" fill="#CFD8DC"/>
<path d="M64.448 68.5786C64.828 68.3582 65.1433 68.5368 65.1433 68.9814C65.1296 69.222 65.0595 69.4561 64.9387 69.6646C64.8179 69.8732 64.6498 70.0505 64.448 70.1822C64.068 70.4026 63.7563 70.224 63.7563 69.7794C63.7697 69.5391 63.8392 69.3053 63.9594 69.0968C64.0795 68.8882 64.2468 68.7107 64.448 68.5786Z" fill="#CFD8DC"/>
<path d="M66.7433 67.26C67.1233 67.0396 67.4349 67.2182 67.4349 67.64C67.423 67.8806 67.3541 68.115 67.2338 68.3238C67.1136 68.5326 66.9454 68.7098 66.7433 68.8408C66.3633 69.0612 66.0479 68.8826 66.0479 68.4608C66.0601 68.2198 66.1296 67.9852 66.2505 67.7764C66.3715 67.5676 66.5404 67.3906 66.7433 67.26Z" fill="#CFD8DC"/>
<path d="M69.0349 65.9338C69.4149 65.7134 69.7265 65.892 69.7265 66.3328C69.7146 66.5734 69.6457 66.8078 69.5255 67.0166C69.4052 67.2254 69.2371 67.4026 69.0349 67.5336C68.6549 67.754 68.3433 67.5754 68.3433 67.1346C68.3551 66.894 68.424 66.6596 68.5443 66.4508C68.6645 66.242 68.8327 66.0648 69.0349 65.9338Z" fill="#CFD8DC"/>
<path d="M71.3259 64.6C71.7059 64.3796 72.0213 64.5582 72.0213 65.0028C72.0075 65.2434 71.9374 65.4775 71.8166 65.686C71.6958 65.8946 71.5277 66.0719 71.3259 66.2036C70.9459 66.424 70.6343 66.2454 70.6343 65.8008C70.6482 65.5607 70.718 65.3271 70.8381 65.1186C70.9581 64.9102 71.1252 64.7326 71.3259 64.6Z" fill="#CFD8DC"/>
<path d="M36.6095 110.071L95.1637 76.2508C95.4187 76.1216 95.7005 76.0543 95.9864 76.0543C96.2722 76.0543 96.5541 76.1216 96.8091 76.2508L99.8035 77.9798C99.9027 78.0135 99.9889 78.0774 100.05 78.1626C100.111 78.2478 100.144 78.35 100.144 78.4548C100.144 78.5596 100.111 78.6618 100.05 78.747C99.9889 78.8322 99.9027 78.8961 99.8035 78.9298L41.2417 112.746C40.9867 112.875 40.7048 112.943 40.419 112.943C40.1331 112.943 39.8513 112.875 39.5963 112.746L36.6095 111.021C36.5102 110.987 36.424 110.923 36.3629 110.838C36.3019 110.753 36.269 110.651 36.269 110.546C36.269 110.441 36.3019 110.339 36.3629 110.254C36.424 110.168 36.5102 110.104 36.6095 110.071Z" fill="#37474F"/>
<path d="M44.3271 114.528L102.881 80.7082C103.136 80.579 103.418 80.5117 103.704 80.5117C103.99 80.5117 104.272 80.579 104.527 80.7082L122.949 91.3482C123.048 91.3819 123.135 91.4458 123.196 91.531C123.257 91.6162 123.289 91.7184 123.289 91.8232C123.289 91.928 123.257 92.0302 123.196 92.1154C123.135 92.2006 123.048 92.2645 122.949 92.2982L64.4633 126.065C64.2073 126.193 63.925 126.26 63.6387 126.26C63.3524 126.26 63.07 126.193 62.8141 126.065L44.3309 115.471C44.2324 115.437 44.1467 115.374 44.0859 115.29C44.0251 115.206 43.9921 115.105 43.9917 115.001C43.9913 114.897 44.0234 114.795 44.0835 114.711C44.1437 114.626 44.2288 114.562 44.3271 114.528Z" fill="#263238"/>
<path d="M96.8163 95.931L98.6517 94.8708C98.7277 94.8252 98.7239 94.7492 98.6517 94.7036L96.5199 93.48C96.4746 93.4567 96.4245 93.4445 96.3736 93.4445C96.3227 93.4445 96.2725 93.4567 96.2273 93.48L94.3919 94.5402C94.3159 94.582 94.3197 94.658 94.3919 94.7074L96.5123 95.931C96.5589 95.9563 96.6112 95.9695 96.6643 95.9695C96.7173 95.9695 96.7696 95.9563 96.8163 95.931ZM93.1987 91.7244L91.3671 92.7808C91.2873 92.8264 91.2911 92.9024 91.3671 92.9518L93.4875 94.1754C93.533 94.1979 93.583 94.2095 93.6338 94.2095C93.6845 94.2095 93.7346 94.1979 93.7801 94.1754L95.6155 93.1152C95.6915 93.0696 95.6877 92.9936 95.6155 92.948L93.4799 91.732C93.4367 91.7093 93.3889 91.6969 93.3401 91.6956C93.2914 91.6942 93.243 91.7041 93.1987 91.7244ZM87.2745 95.1444L84.1737 96.9342C84.0939 96.9798 84.1015 97.0558 84.1737 97.1052L86.2903 98.3288C86.3358 98.3513 86.3858 98.3629 86.4366 98.3629C86.4873 98.3629 86.5374 98.3513 86.5829 98.3288L89.6875 96.539C89.7635 96.4934 89.7597 96.4174 89.6875 96.3718L87.5671 95.1444C87.5216 95.1219 87.4715 95.1103 87.4208 95.1103C87.37 95.1103 87.32 95.1219 87.2745 95.1444ZM90.5197 93.271L88.6843 94.3312C88.6083 94.373 88.6121 94.449 88.6843 94.4984L90.8199 95.722C90.8654 95.7444 90.9154 95.7561 90.9662 95.7561C91.0169 95.7561 91.067 95.7444 91.1125 95.722L92.9441 94.6618C93.0239 94.6162 93.0201 94.5402 92.9441 94.4946L90.8199 93.2786C90.7743 93.2528 90.7231 93.2386 90.6707 93.2373C90.6184 93.236 90.5665 93.2475 90.5197 93.271ZM83.3263 97.4244L81.4947 98.4808C81.4149 98.5264 81.4187 98.6024 81.4947 98.6518L83.6151 99.8754C83.6603 99.8987 83.7105 99.9109 83.7614 99.9109C83.8123 99.9109 83.8624 99.8987 83.9077 99.8754L85.7431 98.819C85.8191 98.7734 85.8153 98.6974 85.7431 98.648L83.6227 97.4244C83.5767 97.4013 83.5259 97.3893 83.4745 97.3893C83.423 97.3893 83.3723 97.4013 83.3263 97.4244ZM80.6473 98.971L78.8157 100.027C78.7359 100.073 78.7397 100.149 78.8157 100.198L80.9399 101.422C80.9854 101.444 81.0354 101.456 81.0862 101.456C81.1369 101.456 81.187 101.444 81.2325 101.422L83.0679 100.362C83.1439 100.316 83.1401 100.24 83.0679 100.195L80.9399 98.9786C80.8952 98.9541 80.8454 98.9406 80.7945 98.9393C80.7436 98.938 80.6931 98.9488 80.6473 98.971ZM88.9845 103.949L90.8199 102.889C90.8959 102.843 90.8921 102.767 90.8199 102.722L88.6995 101.498C88.6542 101.475 88.6041 101.462 88.5532 101.462C88.5023 101.462 88.4521 101.475 88.4069 101.498L86.5753 102.558C86.4955 102.6 86.5031 102.676 86.5753 102.725L88.6919 103.949C88.7371 103.972 88.7873 103.985 88.8382 103.985C88.8891 103.985 88.9392 103.972 88.9845 103.949ZM86.3245 105.496L88.1599 104.435C88.2359 104.39 88.2321 104.318 88.1599 104.268L86.0395 103.045C85.9942 103.021 85.9441 103.009 85.8932 103.009C85.8423 103.009 85.7921 103.021 85.7469 103.045L83.9153 104.105C83.8355 104.15 83.8393 104.223 83.9153 104.272L86.0357 105.496C86.0779 105.515 86.1239 105.526 86.1706 105.526C86.2172 105.526 86.2632 105.515 86.3055 105.496H86.3245ZM83.6455 107.042L85.4809 105.982C85.5569 105.94 85.5531 105.864 85.4809 105.815L83.3605 104.591C83.3152 104.568 83.2651 104.556 83.2142 104.556C83.1633 104.556 83.1131 104.568 83.0679 104.591L81.2059 105.64C81.1261 105.686 81.1299 105.762 81.2059 105.807L83.3263 107.031C83.3715 107.057 83.4226 107.072 83.4749 107.074C83.5273 107.076 83.5793 107.065 83.6265 107.042H83.6455ZM80.9855 108.589L82.8209 107.529C82.8969 107.487 82.8931 107.411 82.8209 107.361L80.7005 106.138C80.655 106.115 80.6049 106.104 80.5542 106.104C80.5034 106.104 80.4534 106.115 80.4079 106.138L78.5725 107.198C78.4965 107.244 78.5003 107.32 78.5725 107.365L80.6929 108.589C80.732 108.605 80.7739 108.614 80.8164 108.614C80.8588 108.614 80.9007 108.605 80.9399 108.589H80.9855ZM94.1753 97.4776L96.0069 96.4174C96.0867 96.3718 96.0829 96.2996 96.0069 96.2502L93.8599 95.0266C93.8146 95.0033 93.7645 94.9911 93.7136 94.9911C93.6627 94.9911 93.6125 95.0033 93.5673 95.0266L91.7319 96.0868C91.6559 96.1324 91.6597 96.2046 91.7319 96.254L93.8599 97.47C93.9025 97.4921 93.9497 97.5042 93.9977 97.5055C94.0457 97.5068 94.0934 97.4973 94.1373 97.4776H94.1753ZM91.7053 102.418L95.7599 100.039C95.8359 99.9932 95.8321 99.9172 95.7599 99.8716L90.5957 96.9C90.5504 96.8767 90.5003 96.8645 90.4494 96.8645C90.3985 96.8645 90.3483 96.8767 90.3031 96.9L88.1903 98.1198C88.1105 98.1654 88.1143 98.2414 88.1903 98.2908L90.9187 99.864C91.0023 99.9134 91.0061 99.9894 90.9187 100.031L89.2277 101.008C89.1479 101.053 89.1555 101.129 89.2277 101.179L91.3481 102.402C91.3969 102.429 91.4518 102.443 91.5077 102.443C91.5635 102.443 91.6184 102.429 91.6673 102.402L91.7053 102.418ZM78.0253 100.518L76.1899 101.578C76.1139 101.62 76.1177 101.696 76.1899 101.745L78.2799 102.98C78.3254 103.002 78.3754 103.014 78.4262 103.014C78.4769 103.014 78.527 103.002 78.5725 102.98L80.4041 101.92C80.4839 101.874 80.4801 101.798 80.4041 101.753L78.2799 100.525C78.2329 100.497 78.1796 100.482 78.125 100.481C78.0705 100.479 78.0165 100.492 77.9683 100.518H78.0253ZM75.3463 102.064L73.5109 103.124C73.4349 103.17 73.4387 103.242 73.5109 103.292L75.6313 104.515C75.6765 104.539 75.7267 104.551 75.7776 104.551C75.8285 104.551 75.8786 104.539 75.9239 104.515L77.7555 103.455C77.8353 103.409 77.8315 103.333 77.7555 103.288L75.6351 102.064C75.5835 102.031 75.5235 102.013 75.4622 102.013C75.4008 102.013 75.3408 102.031 75.2893 102.064H75.3463ZM61.9551 119.411C62.0003 119.435 62.0505 119.447 62.1014 119.447C62.1523 119.447 62.2024 119.435 62.2477 119.411L64.0831 118.351C64.1591 118.305 64.1553 118.229 64.0831 118.184L61.9627 116.96C61.9174 116.937 61.8673 116.925 61.8164 116.925C61.7655 116.925 61.7153 116.937 61.6701 116.96L59.8385 118.02C59.7587 118.062 59.7625 118.138 59.8385 118.188L61.9551 119.411ZM53.9105 114.441L52.0181 115.52C51.9421 115.562 51.9459 115.638 52.0181 115.687L54.1385 116.911C54.184 116.933 54.234 116.945 54.2848 116.945C54.3355 116.945 54.3856 116.933 54.4311 116.911L56.2627 115.851C56.3425 115.805 56.3387 115.729 56.2627 115.683L54.1423 114.46C54.099 114.434 54.0503 114.419 54.0001 114.416C53.9499 114.412 53.8997 114.421 53.8535 114.441H53.9105ZM58.2235 118.07C58.2687 118.093 58.3189 118.105 58.3698 118.105C58.4207 118.105 58.4708 118.093 58.5161 118.07L60.3477 117.01C60.4275 116.964 60.4199 116.888 60.3477 116.842L58.2273 115.619C58.182 115.595 58.1319 115.583 58.081 115.583C58.0301 115.583 57.9799 115.595 57.9347 115.619L56.1031 116.679C56.0271 116.725 56.0309 116.797 56.1031 116.846L58.2235 118.07ZM66.6861 120.35L68.5215 119.29C68.5975 119.244 68.5937 119.168 68.5215 119.122L66.4011 117.899C66.3558 117.875 66.3057 117.863 66.2548 117.863C66.2039 117.863 66.1537 117.875 66.1085 117.899L64.2199 118.94C64.1401 118.982 64.1439 119.058 64.2199 119.107L66.3403 120.331C66.3835 120.356 66.432 120.372 66.482 120.376C66.5321 120.379 66.5823 120.372 66.6291 120.354L66.6861 120.35ZM63.7145 121.87C63.7597 121.893 63.8099 121.905 63.8608 121.905C63.9117 121.905 63.9618 121.893 64.0071 121.87L65.8425 120.81C65.9185 120.764 65.9147 120.688 65.8425 120.642L63.7221 119.419C63.6768 119.395 63.6267 119.383 63.5758 119.383C63.5249 119.383 63.4747 119.395 63.4295 119.419L61.5941 120.479C61.5181 120.521 61.5219 120.597 61.5941 120.646L63.7145 121.87ZM56.5895 112.871L54.7541 113.928C54.6781 113.973 54.6819 114.049 54.7541 114.099L56.8745 115.322C56.92 115.345 56.97 115.357 57.0208 115.357C57.0715 115.357 57.1216 115.345 57.1671 115.322L58.9987 114.262C59.0785 114.217 59.0747 114.141 58.9987 114.095L56.8783 112.868C56.8238 112.84 56.7626 112.827 56.7016 112.832C56.6405 112.837 56.582 112.858 56.5325 112.894L56.5895 112.871ZM69.9199 105.157L68.0845 106.218C68.0085 106.263 68.0123 106.339 68.0845 106.385L70.2049 107.608C70.2501 107.632 70.3003 107.644 70.3512 107.644C70.4021 107.644 70.4522 107.632 70.4975 107.608L72.3291 106.548C72.4089 106.506 72.4013 106.43 72.3291 106.381L70.2087 105.157C70.1638 105.135 70.1144 105.123 70.0643 105.123C70.0141 105.123 69.9647 105.135 69.9199 105.157ZM59.2115 111.34L57.3799 112.404C57.3001 112.45 57.3039 112.526 57.3799 112.575L59.5003 113.799C59.5455 113.822 59.5957 113.834 59.6466 113.834C59.6975 113.834 59.7476 113.822 59.7929 113.799L61.6283 112.742C61.7043 112.697 61.7005 112.621 61.6283 112.571L59.5041 111.34C59.4586 111.318 59.4085 111.306 59.3578 111.306C59.307 111.306 59.257 111.318 59.2115 111.34ZM72.6103 103.603L70.7749 104.663C70.6989 104.709 70.7027 104.785 70.7749 104.831L72.8953 106.054C72.9405 106.078 72.9907 106.09 73.0416 106.09C73.0925 106.09 73.1426 106.078 73.1879 106.054L75.0195 104.994C75.0993 104.948 75.0917 104.876 75.0195 104.827L72.8991 103.603C72.8537 103.582 72.8039 103.571 72.7537 103.572C72.7036 103.574 72.6544 103.587 72.6103 103.611V103.603ZM67.2599 106.704L65.4283 107.764C65.3485 107.81 65.3561 107.886 65.4283 107.931L67.5487 109.155C67.5939 109.178 67.6441 109.19 67.695 109.19C67.7459 109.19 67.796 109.178 67.8413 109.155L69.6729 108.099C69.7489 108.053 69.7451 107.977 69.6729 107.928L67.5525 106.704C67.507 106.682 67.4569 106.67 67.4062 106.67C67.3554 106.67 67.3054 106.682 67.2599 106.704ZM64.5809 108.254L62.7493 109.311C62.6695 109.356 62.6771 109.432 62.7493 109.478L64.8659 110.705C64.9114 110.728 64.9614 110.74 65.0122 110.74C65.0629 110.74 65.113 110.728 65.1585 110.705L66.9939 109.649C67.0699 109.603 67.0661 109.527 66.9939 109.478L64.8735 108.254C64.8268 108.229 64.7745 108.216 64.7215 108.216C64.6684 108.216 64.6161 108.229 64.5695 108.254H64.5809ZM61.9209 109.801L60.0893 110.857C60.0095 110.903 60.0133 110.979 60.0893 111.028L62.2097 112.252C62.2552 112.274 62.3052 112.286 62.356 112.286C62.4067 112.286 62.4568 112.274 62.5023 112.252L64.3377 111.196C64.4137 111.15 64.4099 111.074 64.3377 111.025L62.1831 109.82C62.1376 109.798 62.0875 109.786 62.0368 109.786C61.986 109.786 61.936 109.798 61.8905 109.82L61.9209 109.801ZM75.6009 111.682L77.4325 110.626C77.5123 110.58 77.5047 110.504 77.4325 110.455L75.3121 109.231C75.2668 109.208 75.2167 109.195 75.1658 109.195C75.1149 109.195 75.0647 109.208 75.0195 109.231L73.1841 110.287C73.1081 110.333 73.1119 110.409 73.1841 110.458L75.3045 111.682C75.349 111.703 75.3976 111.714 75.447 111.714C75.4963 111.714 75.545 111.703 75.5895 111.682H75.6009ZM99.1343 88.3044L97.2799 89.3646C97.2039 89.4064 97.2077 89.4824 97.2799 89.5318L99.4003 90.7554C99.4458 90.7779 99.4958 90.7895 99.5466 90.7895C99.5973 90.7895 99.6474 90.7779 99.6929 90.7554L101.524 89.6952C101.604 89.6496 101.6 89.5736 101.524 89.528L99.4041 88.3044C99.3603 88.2829 99.3122 88.2718 99.2635 88.2718C99.2147 88.2718 99.1666 88.2829 99.1229 88.3044H99.1343ZM95.8891 90.1778L94.0575 91.2342C93.9777 91.2798 93.9815 91.3558 94.0575 91.4052L96.1779 92.6288C96.2231 92.6521 96.2733 92.6643 96.3242 92.6643C96.3751 92.6643 96.4252 92.6521 96.4705 92.6288L98.3059 91.5724C98.3819 91.5268 98.3781 91.4508 98.3059 91.4014L96.1855 90.1778C96.138 90.1528 96.0852 90.1398 96.0316 90.1398C95.9779 90.1398 95.9251 90.1528 95.8777 90.1778H95.8891ZM101.813 86.7578L99.9779 87.8142C99.9019 87.8598 99.9057 87.9358 99.9779 87.9852L102.098 89.2088C102.144 89.2312 102.194 89.2429 102.245 89.2429C102.295 89.2429 102.345 89.2312 102.391 89.2088L104.222 88.1486C104.302 88.103 104.298 88.027 104.222 87.9814L102.102 86.754C102.055 86.7309 102.004 86.7192 101.951 86.7199C101.899 86.7205 101.848 86.7335 101.802 86.7578H101.813ZM87.9319 101.08L89.7673 100.02C89.8433 99.9742 89.8395 99.8982 89.7673 99.8526L87.6469 98.6252C87.6014 98.6027 87.5513 98.5911 87.5006 98.5911C87.4498 98.5911 87.3998 98.6027 87.3543 98.6252L85.4999 99.6588C85.4239 99.7044 85.4277 99.7804 85.4999 99.8298L87.6203 101.053C87.666 101.083 87.7183 101.101 87.7727 101.106C87.8271 101.111 87.8818 101.102 87.9319 101.08ZM104.773 85.234C104.728 85.2115 104.678 85.1999 104.627 85.1999C104.576 85.1999 104.526 85.2115 104.481 85.234L102.649 86.26C102.569 86.3056 102.573 86.3816 102.649 86.431L104.77 87.6546C104.815 87.6779 104.865 87.6901 104.916 87.6901C104.967 87.6901 105.017 87.6779 105.062 87.6546L106.898 86.5982C106.974 86.5526 106.97 86.4766 106.898 86.4272L104.773 85.234ZM78.2799 110.135L80.1115 109.079C80.1913 109.033 80.1875 108.957 80.1115 108.908L77.9911 107.684C77.9456 107.662 77.8955 107.65 77.8448 107.65C77.794 107.65 77.744 107.662 77.6985 107.684L75.8631 108.745C75.7871 108.79 75.7909 108.866 75.8631 108.912L77.9835 110.139C78.0298 110.162 78.0807 110.173 78.1321 110.172C78.1836 110.172 78.2342 110.159 78.2799 110.135ZM111.138 91.1658L112.97 90.1056C113.05 90.06 113.046 89.984 112.97 89.9384L110.85 88.7148C110.804 88.6915 110.754 88.6793 110.703 88.6793C110.652 88.6793 110.602 88.6915 110.557 88.7148L108.722 89.775C108.646 89.8168 108.649 89.8928 108.722 89.9422L110.842 91.1658C110.886 91.1879 110.935 91.1994 110.985 91.1994C111.034 91.1994 111.083 91.1879 111.127 91.1658H111.138ZM105.438 90.9644L107.27 89.9042C107.35 89.8586 107.346 89.7826 107.27 89.737L105.15 88.5134C105.104 88.4901 105.054 88.4779 105.003 88.4779C104.952 88.4779 104.902 88.4901 104.857 88.5134L102.98 89.566C102.904 89.6078 102.908 89.6838 102.98 89.7332L105.1 90.9568C105.148 90.986 105.203 91.002 105.259 91.0034C105.315 91.0047 105.37 90.9913 105.419 90.9644H105.438ZM107.821 86.963C107.776 86.9405 107.726 86.9289 107.675 86.9289C107.624 86.9289 107.574 86.9405 107.528 86.963L105.693 88.0194C105.617 88.065 105.621 88.141 105.693 88.1904L107.813 89.414C107.859 89.4365 107.909 89.4481 107.96 89.4481C108.011 89.4481 108.061 89.4365 108.106 89.414L109.941 88.3538C110.017 88.3082 110.014 88.2322 109.941 88.1866L107.821 86.963ZM108.383 86.64L113.532 89.6116C113.578 89.6341 113.628 89.6457 113.679 89.6457C113.729 89.6457 113.78 89.6341 113.825 89.6116L115.66 88.5514C115.736 88.5058 115.733 88.4298 115.66 88.3842L110.511 85.4088C110.466 85.3863 110.416 85.3747 110.365 85.3747C110.314 85.3747 110.264 85.3863 110.219 85.4088L108.387 86.4652C108.277 86.5146 108.3 86.5906 108.364 86.64H108.383ZM102.17 90.06L100.32 91.1126C100.244 91.1582 100.248 91.2304 100.32 91.2798L102.44 92.5034C102.485 92.5267 102.536 92.5389 102.587 92.5389C102.637 92.5389 102.688 92.5267 102.733 92.5034L104.564 91.4432C104.644 91.3976 104.64 91.3254 104.564 91.276L102.444 90.06C102.399 90.0367 102.349 90.0245 102.298 90.0245C102.247 90.0245 102.197 90.0367 102.151 90.06H102.17ZM82.0039 101.703L80.1685 102.763C80.0925 102.809 80.0963 102.881 80.1685 102.931L82.2889 104.154C82.3341 104.178 82.3843 104.19 82.4352 104.19C82.4861 104.19 82.5362 104.178 82.5815 104.154L84.4131 103.094C84.4929 103.048 84.4853 102.976 84.4131 102.927L82.2965 101.703C82.2495 101.675 82.1962 101.66 82.1417 101.659C82.0871 101.657 82.0331 101.67 81.9849 101.696L82.0039 101.703ZM108.155 92.72C108.201 92.7433 108.251 92.7555 108.302 92.7555C108.353 92.7555 108.403 92.7433 108.448 92.72L110.28 91.6598C110.359 91.6142 110.356 91.542 110.28 91.4926L108.159 90.269C108.114 90.2457 108.064 90.2335 108.013 90.2335C107.962 90.2335 107.912 90.2457 107.867 90.269L106.02 91.314C105.944 91.3596 105.948 91.4318 106.02 91.4812L108.155 92.72ZM84.6639 100.149L82.8399 101.209C82.7639 101.251 82.7677 101.327 82.8399 101.376L84.9603 102.6C85.0055 102.623 85.0557 102.635 85.1066 102.635C85.1575 102.635 85.2076 102.623 85.2529 102.6L87.0845 101.54C87.1643 101.494 87.1605 101.418 87.0845 101.373L84.9641 100.149C84.9179 100.124 84.8663 100.111 84.814 100.111C84.7616 100.111 84.7101 100.124 84.6639 100.149ZM64.5771 117.865C64.6226 117.887 64.6726 117.899 64.7234 117.899C64.7741 117.899 64.8242 117.887 64.8697 117.865L66.7051 116.804C66.7811 116.759 66.7773 116.683 66.7051 116.637L64.5847 115.414C64.5394 115.39 64.4893 115.378 64.4384 115.378C64.3875 115.378 64.3373 115.39 64.2921 115.414L62.4605 116.474C62.3807 116.516 62.3845 116.592 62.4605 116.641L64.5771 117.865ZM60.5491 114.065L58.7137 115.14C58.6377 115.182 58.6415 115.258 58.7137 115.307L60.8341 116.531C60.8796 116.553 60.9296 116.565 60.9804 116.565C61.0311 116.565 61.0812 116.553 61.1267 116.531L62.9583 115.471C63.0381 115.425 63.0305 115.349 62.9583 115.303L60.8417 114.08C60.797 114.055 60.7472 114.042 60.6963 114.04C60.6454 114.039 60.5949 114.05 60.5491 114.072V114.065ZM67.5487 116.318L69.3841 115.258C69.4601 115.212 69.4563 115.136 69.3841 115.091L67.2599 113.871C67.2144 113.848 67.1643 113.837 67.1136 113.837C67.0628 113.837 67.0128 113.848 66.9673 113.871L65.1357 114.927C65.0559 114.973 65.0635 115.049 65.1357 115.098L67.2599 116.318C67.3043 116.341 67.3534 116.354 67.4034 116.355C67.4534 116.356 67.5031 116.346 67.5487 116.326V116.318ZM70.2315 114.768L72.0631 113.711C72.1391 113.666 72.1353 113.59 72.0631 113.54L69.9199 112.324C69.8744 112.302 69.8243 112.29 69.7736 112.29C69.7228 112.29 69.6728 112.302 69.6273 112.324L67.7957 113.381C67.7159 113.426 67.7235 113.502 67.7957 113.552L69.9161 114.775C69.9654 114.8 70.0205 114.812 70.0758 114.809C70.1311 114.807 70.1847 114.79 70.2315 114.76V114.768ZM72.9105 113.221L74.7421 112.165C74.8219 112.119 74.8143 112.043 74.7421 111.994L72.6217 110.77C72.5768 110.748 72.5274 110.736 72.4773 110.736C72.4271 110.736 72.3777 110.748 72.3329 110.77L70.4975 111.826C70.4215 111.872 70.4253 111.948 70.4975 111.997L72.6179 113.24C72.6634 113.262 72.7134 113.274 72.7642 113.274C72.8149 113.274 72.865 113.262 72.9105 113.24V113.221ZM63.2281 112.518L61.3927 113.574C61.3167 113.62 61.3205 113.696 61.3927 113.745L63.5131 114.969C63.5586 114.991 63.6086 115.003 63.6594 115.003C63.7101 115.003 63.7602 114.991 63.8057 114.969L65.6373 113.909C65.7171 113.863 65.7133 113.787 65.6373 113.742L63.5169 112.514C63.471 112.494 63.4212 112.485 63.3711 112.487C63.3211 112.489 63.2722 112.502 63.2281 112.526V112.518ZM65.9071 110.971L64.0717 112.028C63.9957 112.073 63.9995 112.149 64.0717 112.199L66.1921 113.422C66.2373 113.446 66.2875 113.458 66.3384 113.458C66.3893 113.458 66.4394 113.446 66.4847 113.422L68.3163 112.366C68.3961 112.32 68.3923 112.244 68.3163 112.195L66.1959 110.971C66.1503 110.951 66.1006 110.941 66.0506 110.942C66.0006 110.943 65.9515 110.956 65.9071 110.979V110.971ZM76.6231 104.781L74.7915 105.841C74.7117 105.887 74.7193 105.963 74.7915 106.009L76.9119 107.232C76.9564 107.256 77.006 107.268 77.0563 107.268C77.1065 107.268 77.1561 107.256 77.2007 107.232L79.0361 106.172C79.1121 106.13 79.1083 106.054 79.0361 106.005L76.9157 104.781C76.8696 104.76 76.8192 104.75 76.7685 104.751C76.7177 104.752 76.668 104.765 76.6231 104.789V104.781ZM73.9631 106.328L72.1315 107.388C72.0517 107.434 72.0593 107.51 72.1315 107.555L74.2481 108.783C74.2936 108.805 74.3436 108.817 74.3944 108.817C74.4451 108.817 74.4952 108.805 74.5407 108.783L76.3761 107.726C76.4521 107.681 76.4483 107.605 76.3761 107.555L74.2557 106.332C74.2074 106.307 74.1537 106.294 74.0994 106.294C74.045 106.295 73.9917 106.309 73.9441 106.335L73.9631 106.328ZM79.3249 103.235L77.4895 104.295C77.4135 104.34 77.4173 104.416 77.4895 104.462L79.6099 105.686C79.6551 105.709 79.7053 105.721 79.7562 105.721C79.8071 105.721 79.8572 105.709 79.9025 105.686L81.7341 104.625C81.8139 104.584 81.8063 104.508 81.7341 104.458L79.6137 103.235C79.5661 103.209 79.5127 103.196 79.4588 103.198C79.4048 103.199 79.3521 103.214 79.3059 103.242L79.3249 103.235ZM68.5861 109.44L66.7545 110.496C66.6747 110.542 66.6785 110.618 66.7545 110.667L68.8749 111.891C68.9204 111.913 68.9704 111.925 69.0212 111.925C69.0719 111.925 69.122 111.913 69.1675 111.891L71.0029 110.835C71.0789 110.789 71.0751 110.713 71.0029 110.664L68.8787 109.44C68.8332 109.418 68.7831 109.406 68.7324 109.406C68.6816 109.406 68.6316 109.418 68.5861 109.44ZM71.2461 107.893L69.4145 108.95C69.3347 108.995 69.3385 109.071 69.4145 109.121L71.5349 110.344C71.5804 110.367 71.6304 110.379 71.6812 110.379C71.7319 110.379 71.782 110.367 71.8275 110.344L73.6629 109.288C73.7389 109.242 73.7351 109.166 73.6629 109.117L71.5425 107.893C71.4998 107.871 71.4527 107.859 71.4046 107.858C71.3566 107.857 71.3089 107.866 71.2651 107.886L71.2461 107.893ZM69.2891 118.815L71.1245 117.754C71.2005 117.709 71.1967 117.633 71.1245 117.587L69.0041 116.36C68.9586 116.337 68.9085 116.326 68.8578 116.326C68.807 116.326 68.757 116.337 68.7115 116.36L66.8799 117.42C66.8001 117.466 66.8039 117.542 66.8799 117.591L68.9965 118.815C69.045 118.839 69.0989 118.851 69.1532 118.85C69.2076 118.848 69.2607 118.834 69.3081 118.807L69.2891 118.815ZM53.5799 117.219L51.4633 115.995C51.418 115.972 51.3679 115.959 51.317 115.959C51.2661 115.959 51.2159 115.972 51.1707 115.995L49.3391 117.04C49.2631 117.082 49.2669 117.158 49.3391 117.207L51.4595 118.431C51.5047 118.454 51.5549 118.466 51.6058 118.466C51.6567 118.466 51.7068 118.454 51.7521 118.431L53.5837 117.371C53.6749 117.34 53.6673 117.264 53.5799 117.219ZM57.5965 118.397L55.4799 117.173C55.4346 117.15 55.3845 117.137 55.3336 117.137C55.2827 117.137 55.2325 117.15 55.1873 117.173L52.3677 118.803C52.2917 118.849 52.2955 118.921 52.3677 118.97L54.4881 120.194C54.5333 120.217 54.5835 120.229 54.6344 120.229C54.6853 120.229 54.7354 120.217 54.7807 120.194L57.6003 118.564C57.6877 118.518 57.6839 118.446 57.6003 118.397H57.5965ZM50.3309 114.851L48.2143 113.62C48.1688 113.598 48.1187 113.586 48.068 113.586C48.0172 113.586 47.9672 113.598 47.9217 113.62L45.6645 114.923C45.5847 114.969 45.5923 115.045 45.6645 115.094L47.7811 116.318C47.8266 116.34 47.8766 116.352 47.9274 116.352C47.9781 116.352 48.0282 116.34 48.0737 116.318L50.3309 115.015C50.4221 114.977 50.4183 114.901 50.3347 114.851H50.3309ZM52.0599 113.852C52.1051 113.875 52.1553 113.887 52.2062 113.887C52.2571 113.887 52.3072 113.875 52.3525 113.852L54.1841 112.792C54.2639 112.746 54.2563 112.674 54.1841 112.624L52.0599 111.408C52.0146 111.385 51.9645 111.373 51.9136 111.373C51.8627 111.373 51.8125 111.385 51.7673 111.408L49.9319 112.48C49.8559 112.526 49.8597 112.598 49.9319 112.647L52.0599 113.852ZM61.3319 119.738L59.2115 118.514C59.1662 118.491 59.1161 118.479 59.0652 118.479C59.0143 118.479 58.9641 118.491 58.9189 118.514L55.3925 120.551C55.3165 120.597 55.3203 120.673 55.3925 120.718L57.5129 121.942C57.5581 121.965 57.6083 121.978 57.6592 121.978C57.7101 121.978 57.7602 121.965 57.8055 121.942L61.3281 119.905C61.4231 119.86 61.4193 119.787 61.3357 119.738H61.3319ZM63.0913 122.219L60.9709 120.996C60.9256 120.972 60.8755 120.96 60.8246 120.96C60.7737 120.96 60.7235 120.972 60.6783 120.996L58.4211 122.299C58.3451 122.345 58.3489 122.421 58.4211 122.466L60.5415 123.694C60.587 123.716 60.637 123.728 60.6878 123.728C60.7385 123.728 60.7886 123.716 60.8341 123.694L63.0875 122.39C63.1825 122.36 63.1787 122.269 63.0799 122.219H63.0913ZM71.9795 102.349C72.0247 102.373 72.0749 102.385 72.1258 102.385C72.1767 102.385 72.2268 102.373 72.2721 102.349L74.1075 101.289C74.1835 101.247 74.1797 101.171 74.1075 101.122L71.9871 99.8982C71.9418 99.8749 71.8917 99.8627 71.8408 99.8627C71.7899 99.8627 71.7397 99.8749 71.6945 99.8982L69.8629 100.958C69.7831 101.004 69.7907 101.08 69.8629 101.126L71.9795 102.349ZM66.6215 105.446C66.667 105.469 66.717 105.48 66.7678 105.48C66.8185 105.48 66.8686 105.469 66.9141 105.446L68.7495 104.39C68.8255 104.344 68.8217 104.268 68.7495 104.219L66.6291 102.995C66.5836 102.973 66.5335 102.961 66.4828 102.961C66.432 102.961 66.382 102.973 66.3365 102.995L64.5049 104.055C64.4251 104.101 64.4289 104.177 64.5049 104.223L66.6215 105.446ZM54.7389 112.305C54.7841 112.329 54.8343 112.341 54.8852 112.341C54.9361 112.341 54.9862 112.329 55.0315 112.305L56.8631 111.245C56.9429 111.199 56.9391 111.123 56.8631 111.078L54.7427 109.854C54.6974 109.831 54.6473 109.819 54.5964 109.819C54.5455 109.819 54.4953 109.831 54.4501 109.854L52.6147 110.914C52.5387 110.956 52.5425 111.032 52.6147 111.082L54.7389 112.305ZM69.3005 103.896C69.3457 103.919 69.3959 103.931 69.4468 103.931C69.4977 103.931 69.5478 103.919 69.5931 103.896L71.4285 102.836C71.5045 102.794 71.5007 102.718 71.4285 102.668L69.3005 101.46C69.255 101.438 69.2049 101.426 69.1542 101.426C69.1034 101.426 69.0534 101.438 69.0079 101.46L67.1763 102.52C67.0965 102.566 67.1003 102.642 67.1763 102.687L69.3005 103.896ZM63.9425 106.993C63.988 107.015 64.038 107.027 64.0888 107.027C64.1395 107.027 64.1896 107.015 64.2351 106.993L66.0705 105.936C66.1465 105.891 66.1427 105.815 66.0705 105.765L63.9501 104.542C63.9048 104.518 63.8547 104.506 63.8038 104.506C63.7529 104.506 63.7027 104.518 63.6575 104.542L61.8221 105.598C61.7461 105.644 61.7499 105.72 61.8221 105.769L63.9425 106.993ZM64.5619 122.417C64.5166 122.394 64.4665 122.381 64.4156 122.381C64.3647 122.381 64.3145 122.394 64.2693 122.417L61.4497 124.043C61.3737 124.089 61.3775 124.165 61.4497 124.214L63.5701 125.438C63.6156 125.46 63.6656 125.472 63.7164 125.472C63.7671 125.472 63.8172 125.46 63.8627 125.438L66.6823 123.812C66.7583 123.766 66.7545 123.69 66.6823 123.641L64.5619 122.417ZM60.1007 109.212C60.1459 109.235 60.1961 109.248 60.247 109.248C60.2979 109.248 60.348 109.235 60.3933 109.212L62.2287 108.156C62.3047 108.11 62.3009 108.034 62.2287 107.985L60.0969 106.78C60.0514 106.758 60.0013 106.746 59.9506 106.746C59.8998 106.746 59.8498 106.758 59.8043 106.78L57.9727 107.836C57.8929 107.882 57.8967 107.958 57.9727 108.007L60.1007 109.212ZM57.4407 110.759C57.4862 110.781 57.5362 110.793 57.587 110.793C57.6377 110.793 57.6878 110.781 57.7333 110.759L59.5649 109.698C59.6447 109.653 59.6409 109.577 59.5649 109.531L57.4179 108.3C57.3726 108.277 57.3225 108.264 57.2716 108.264C57.2207 108.264 57.1705 108.277 57.1253 108.3L55.2899 109.356C55.2139 109.402 55.2177 109.478 55.2899 109.527L57.4407 110.759ZM114.228 93.7574C114.182 93.7349 114.132 93.7233 114.082 93.7233C114.031 93.7233 113.981 93.7349 113.935 93.7574L109.421 96.3642C109.345 96.4098 109.349 96.4858 109.421 96.5352L111.541 97.7588C111.587 97.7813 111.637 97.7929 111.688 97.7929C111.738 97.7929 111.788 97.7813 111.834 97.7588L116.344 95.152C116.424 95.1102 116.42 95.0342 116.344 94.9848L114.228 93.7574ZM108.304 97.1774C108.258 97.1541 108.208 97.1419 108.157 97.1419C108.106 97.1419 108.056 97.1541 108.011 97.1774L106.179 98.2376C106.1 98.2832 106.103 98.3592 106.179 98.4048L108.3 99.6284C108.345 99.6517 108.395 99.6639 108.446 99.6639C108.497 99.6639 108.547 99.6517 108.592 99.6284L110.428 98.5682C110.504 98.5264 110.5 98.4504 110.428 98.401L108.304 97.1774ZM72.0061 117.257L73.8415 116.2C73.9175 116.155 73.9137 116.079 73.8415 116.029L71.7211 114.806C71.6756 114.783 71.6255 114.771 71.5748 114.771C71.524 114.771 71.474 114.783 71.4285 114.806L69.5969 115.862C69.5171 115.908 69.5247 115.984 69.5969 116.033L71.7173 117.257C71.7594 117.277 71.8055 117.287 71.8522 117.287C71.8989 117.287 71.945 117.277 71.9871 117.257H72.0061ZM102.946 100.271C102.9 100.247 102.85 100.235 102.799 100.235C102.748 100.235 102.698 100.247 102.653 100.271L100.818 101.327C100.742 101.373 100.745 101.449 100.818 101.498L102.938 102.722C102.984 102.744 103.034 102.756 103.084 102.756C103.135 102.756 103.185 102.744 103.231 102.722L105.062 101.665C105.142 101.62 105.138 101.544 105.062 101.494L102.946 100.271ZM116.907 92.2108C116.862 92.1875 116.811 92.1753 116.761 92.1753C116.71 92.1753 116.66 92.1875 116.614 92.2108L114.76 93.2634C114.684 93.309 114.688 93.385 114.76 93.4306L116.88 94.6542C116.925 94.6775 116.976 94.6897 117.027 94.6897C117.077 94.6897 117.128 94.6775 117.173 94.6542L119.004 93.594C119.084 93.5522 119.08 93.4762 119.004 93.4268L116.907 92.2108ZM121.706 91.8878L116.538 88.92C116.493 88.8967 116.443 88.8845 116.392 88.8845C116.341 88.8845 116.291 88.8967 116.246 88.92L114.414 89.9802C114.334 90.022 114.338 90.098 114.414 90.1474L119.571 93.1C119.616 93.1233 119.666 93.1355 119.717 93.1355C119.768 93.1355 119.818 93.1233 119.863 93.1L121.699 92.0398C121.775 92.0094 121.771 91.9372 121.687 91.8878H121.706ZM92.9327 106.05C92.8872 106.028 92.8371 106.016 92.7864 106.016C92.7356 106.016 92.6856 106.028 92.6401 106.05L90.3829 107.354C90.3031 107.396 90.3107 107.472 90.3829 107.521L92.5033 108.745C92.5485 108.768 92.5987 108.78 92.6496 108.78C92.7005 108.78 92.7506 108.768 92.7959 108.745L95.0493 107.441C95.1291 107.396 95.1253 107.32 95.0493 107.274L92.9327 106.05ZM99.7005 102.144C99.655 102.122 99.6049 102.11 99.5542 102.11C99.5034 102.11 99.4534 102.122 99.4079 102.144L96.5883 103.774C96.5085 103.82 96.5161 103.896 96.5883 103.941L98.7087 105.165C98.7539 105.188 98.8041 105.2 98.855 105.2C98.9059 105.2 98.956 105.188 99.0013 105.165L101.821 103.535C101.897 103.493 101.893 103.417 101.821 103.368L99.7005 102.144ZM86.7273 109.634C86.682 109.61 86.6319 109.598 86.581 109.598C86.5301 109.598 86.4799 109.61 86.4347 109.634L71.3259 118.34C71.2461 118.385 71.2537 118.461 71.3259 118.511L73.4425 119.734C73.488 119.757 73.538 119.768 73.5888 119.768C73.6395 119.768 73.6896 119.757 73.7351 119.734L88.8249 111.025C88.9047 110.979 88.9009 110.903 88.8249 110.854L86.7273 109.634ZM70.7901 118.834C70.7446 118.811 70.6945 118.799 70.6438 118.799C70.593 118.799 70.543 118.811 70.4975 118.834L68.2403 120.137C68.1643 120.179 68.1681 120.255 68.2403 120.304L70.3607 121.528C70.4059 121.551 70.4561 121.563 70.507 121.563C70.5579 121.563 70.608 121.551 70.6533 121.528L72.9105 120.224C72.9865 120.179 72.9827 120.103 72.9105 120.057L70.7901 118.834ZM89.8281 107.844C89.7828 107.821 89.7327 107.808 89.6818 107.808C89.6309 107.808 89.5807 107.821 89.5355 107.844L87.2821 109.147C87.2023 109.193 87.2061 109.269 87.2821 109.315L89.4025 110.542C89.448 110.564 89.498 110.576 89.5488 110.576C89.5995 110.576 89.6496 110.564 89.6951 110.542L91.9523 109.239C92.0283 109.193 92.0245 109.121 91.9523 109.071L89.8281 107.844ZM67.6893 120.627C67.644 120.604 67.5939 120.592 67.543 120.592C67.4921 120.592 67.4419 120.604 67.3967 120.627L65.1395 121.931C65.0597 121.976 65.0673 122.052 65.1395 122.098L67.2599 123.325C67.3047 123.348 67.3541 123.359 67.4043 123.359C67.4544 123.359 67.5038 123.348 67.5487 123.325L69.8059 122.022C69.8857 121.976 69.8819 121.904 69.8059 121.855L67.6893 120.627ZM96.0335 104.261C95.988 104.238 95.9379 104.226 95.8872 104.226C95.8364 104.226 95.7864 104.238 95.7409 104.261L93.4799 105.556C93.4039 105.602 93.4077 105.678 93.4799 105.727L95.6003 106.951C95.6455 106.974 95.6957 106.986 95.7466 106.986C95.7975 106.986 95.8476 106.974 95.8929 106.951L98.1501 105.651C98.2261 105.606 98.2223 105.53 98.1501 105.48L96.0335 104.261ZM105.625 98.724C105.579 98.7015 105.529 98.6899 105.478 98.6899C105.428 98.6899 105.378 98.7015 105.332 98.724L103.497 99.7842C103.421 99.8298 103.424 99.9058 103.497 99.9514L105.617 101.179C105.663 101.201 105.713 101.213 105.763 101.213C105.814 101.213 105.864 101.201 105.91 101.179L107.741 100.122C107.821 100.077 107.817 100.001 107.741 99.9514L105.625 98.724ZM111.496 94.4604L113.327 93.4002C113.407 93.3584 113.403 93.2824 113.327 93.233L111.207 92.0094C111.162 91.9861 111.111 91.9739 111.061 91.9739C111.01 91.9739 110.96 91.9861 110.914 92.0094L109.06 93.062C108.984 93.1076 108.988 93.1836 109.06 93.2292L111.18 94.4528C111.225 94.4779 111.276 94.4918 111.328 94.4931C111.379 94.4944 111.43 94.4832 111.477 94.4604H111.496ZM99.5143 94.3844L101.35 93.3242C101.426 93.2786 101.422 93.2026 101.35 93.157L99.2293 91.9334C99.184 91.9101 99.1339 91.8979 99.083 91.8979C99.0321 91.8979 98.9819 91.9101 98.9367 91.9334L97.1051 92.9898C97.0253 93.0354 97.0291 93.1114 97.1051 93.1608L99.2255 94.3844C99.2679 94.4034 99.3139 94.4132 99.3604 94.4132C99.4069 94.4132 99.4528 94.4034 99.4953 94.3844H99.5143ZM93.4343 104.884L98.7923 101.787C98.8683 101.745 98.8645 101.669 98.7923 101.62L96.6719 100.396C96.6266 100.373 96.5765 100.36 96.5256 100.36C96.4747 100.36 96.4245 100.373 96.3793 100.396L91.0213 103.489C90.9415 103.535 90.9491 103.611 91.0213 103.66L93.1417 104.884C93.1864 104.904 93.2353 104.915 93.2846 104.914C93.3339 104.914 93.3824 104.902 93.4267 104.88L93.4343 104.884ZM108.513 95.9994C108.558 96.0227 108.608 96.0349 108.659 96.0349C108.71 96.0349 108.76 96.0227 108.805 95.9994L110.637 94.943C110.717 94.8974 110.709 94.8214 110.637 94.772L108.52 93.5484C108.475 93.5259 108.425 93.5143 108.374 93.5143C108.323 93.5143 108.273 93.5259 108.228 93.5484L106.373 94.62C106.297 94.6656 106.301 94.7416 106.373 94.7872L108.513 95.9994ZM105.777 94.259L107.608 93.1988C107.688 93.157 107.684 93.081 107.608 93.0316L105.492 91.808C105.446 91.7847 105.396 91.7725 105.345 91.7725C105.294 91.7725 105.244 91.7847 105.199 91.808L103.36 92.8606C103.284 92.9062 103.288 92.9822 103.36 93.0278L105.48 94.2514C105.524 94.2753 105.574 94.2884 105.624 94.2897C105.674 94.2911 105.724 94.2805 105.769 94.259H105.777ZM90.7515 106.419L92.5869 105.359C92.6629 105.313 92.6591 105.237 92.5869 105.192L90.4399 103.979C90.3946 103.956 90.3445 103.944 90.2936 103.944C90.2427 103.944 90.1925 103.956 90.1473 103.979L88.3157 105.04C88.2359 105.081 88.2435 105.157 88.3157 105.207L90.4323 106.43C90.4802 106.456 90.5337 106.469 90.5881 106.469C90.6424 106.469 90.6959 106.456 90.7439 106.43L90.7515 106.419ZM102.6 99.4194C102.645 99.4427 102.695 99.4549 102.746 99.4549C102.797 99.4549 102.847 99.4427 102.892 99.4194L104.724 98.3592C104.804 98.3174 104.8 98.2414 104.724 98.192L102.604 96.9684C102.558 96.9451 102.508 96.9329 102.457 96.9329C102.406 96.9329 102.356 96.9451 102.311 96.9684L100.449 98.04C100.373 98.0856 100.377 98.1616 100.449 98.2072L102.6 99.4194ZM77.3679 114.163L79.1995 113.107C79.2793 113.061 79.2717 112.985 79.1995 112.936L77.0525 111.72C77.0072 111.697 76.9571 111.684 76.9062 111.684C76.8553 111.684 76.8051 111.697 76.7599 111.72L74.9245 112.776C74.8485 112.822 74.8523 112.898 74.9245 112.947L77.0449 114.171C77.0924 114.194 77.1449 114.206 77.1978 114.204C77.2507 114.203 77.3025 114.189 77.3489 114.163H77.3679ZM80.0279 112.617L81.8595 111.56C81.9393 111.515 81.9355 111.439 81.8595 111.389L79.7391 110.166C79.6936 110.143 79.6435 110.132 79.5928 110.132C79.542 110.132 79.492 110.143 79.4465 110.166L77.6111 111.226C77.5351 111.272 77.5389 111.348 77.6111 111.393L79.7315 112.617C79.7772 112.641 79.828 112.653 79.8797 112.653C79.9313 112.653 79.9821 112.641 80.0279 112.617ZM74.6699 115.71L76.5015 114.654C76.5813 114.608 76.5737 114.532 76.5015 114.483L74.3811 113.259C74.3356 113.237 74.2855 113.225 74.2348 113.225C74.184 113.225 74.134 113.237 74.0885 113.259L72.2569 114.315C72.1809 114.361 72.1847 114.437 72.2569 114.486L74.3773 115.71C74.4228 115.732 74.4728 115.744 74.5236 115.744C74.5743 115.744 74.6244 115.732 74.6699 115.71ZM85.3859 109.524L87.2213 108.463C87.2973 108.418 87.2935 108.346 87.2213 108.296L85.1009 107.073C85.0556 107.049 85.0055 107.037 84.9546 107.037C84.9037 107.037 84.8535 107.049 84.8083 107.073L82.9767 108.133C82.8969 108.178 82.9007 108.251 82.9767 108.3L85.0971 109.524C85.1418 109.546 85.1913 109.558 85.2415 109.558C85.2916 109.558 85.3411 109.546 85.3859 109.524ZM82.7259 111.07L84.5575 110.01C84.6373 109.968 84.6335 109.892 84.5575 109.843L82.4371 108.619C82.3918 108.596 82.3417 108.584 82.2908 108.584C82.2399 108.584 82.1897 108.596 82.1445 108.619L80.3091 109.679C80.2331 109.725 80.2369 109.801 80.3091 109.847L82.4295 111.07C82.4727 111.091 82.5201 111.102 82.5682 111.102C82.6162 111.102 82.6636 111.091 82.7069 111.07H82.7259ZM88.0839 107.977L89.9193 106.917C89.9953 106.871 89.9915 106.795 89.9193 106.75L87.7799 105.526C87.7346 105.503 87.6845 105.49 87.6336 105.49C87.5827 105.49 87.5325 105.503 87.4873 105.526L85.6557 106.586C85.5759 106.628 85.5797 106.704 85.6557 106.753L87.7761 107.977C87.8208 108 87.8703 108.012 87.9205 108.012C87.9706 108.012 88.0201 108 88.0649 107.977H88.0839ZM100.32 85.0896C100.365 85.1129 100.415 85.1251 100.466 85.1251C100.517 85.1251 100.567 85.1129 100.612 85.0896L102.448 84.0294C102.524 83.9838 102.52 83.9116 102.448 83.8622L101.882 83.5354C101.836 83.5121 101.786 83.4999 101.735 83.4999C101.684 83.4999 101.634 83.5121 101.589 83.5354L99.7575 84.5918C99.6815 84.6374 99.6853 84.7134 99.7575 84.7628L100.32 85.0896ZM87.1377 93.6016C87.1832 93.6241 87.2332 93.6357 87.284 93.6357C87.3347 93.6357 87.3848 93.6241 87.4303 93.6016L89.2619 92.5452C89.3417 92.4996 89.3379 92.4236 89.2619 92.3742L87.1453 91.1506C87.1 91.1273 87.0499 91.1151 86.999 91.1151C86.9481 91.1151 86.8979 91.1273 86.8527 91.1506L85.0173 92.207C84.9413 92.2526 84.9451 92.3286 85.0173 92.378L87.1377 93.6016ZM92.4957 90.5046C92.5409 90.5279 92.5911 90.5401 92.642 90.5401C92.6929 90.5401 92.743 90.5279 92.7883 90.5046L94.6199 89.452C94.6997 89.4102 94.6959 89.3342 94.6199 89.2848L92.4995 88.0612C92.454 88.0387 92.4039 88.0271 92.3532 88.0271C92.3024 88.0271 92.2524 88.0387 92.2069 88.0612L90.3715 89.1214C90.2955 89.167 90.2993 89.243 90.3715 89.2886L92.4957 90.5046ZM83.8659 95.4902C83.9114 95.5126 83.9614 95.5243 84.0122 95.5243C84.0629 95.5243 84.113 95.5126 84.1585 95.4902L85.9901 94.4338C86.0699 94.3882 86.0623 94.3122 85.9901 94.2628L83.8735 93.0392C83.828 93.0167 83.7779 93.0051 83.7272 93.0051C83.6764 93.0051 83.6264 93.0167 83.5809 93.0392L81.7455 94.0956C81.6695 94.1412 81.6733 94.2172 81.7455 94.2666L83.8659 95.4902ZM89.8167 92.0702C89.8622 92.0926 89.9122 92.1043 89.963 92.1043C90.0137 92.1043 90.0638 92.0926 90.1093 92.0702L91.9409 91.0138C92.0207 90.9682 92.0169 90.8922 91.9409 90.8428L89.8205 89.6192C89.775 89.5967 89.7249 89.5851 89.6742 89.5851C89.6234 89.5851 89.5734 89.5967 89.5279 89.6192L87.6925 90.6794C87.6165 90.725 87.6203 90.801 87.6925 90.8466L89.8167 92.0702ZM78.5079 98.5986C78.5527 98.621 78.6021 98.6327 78.6523 98.6327C78.7024 98.6327 78.7518 98.621 78.7967 98.5986L80.6321 97.5384C80.7081 97.4928 80.7043 97.4168 80.6321 97.3712L78.5041 96.14C78.4586 96.1175 78.4085 96.1059 78.3578 96.1059C78.307 96.1059 78.257 96.1175 78.2115 96.14L76.3799 97.1888C76.3001 97.2344 76.3077 97.3104 76.3799 97.3598L78.5079 98.5986ZM81.1679 97.052C81.2131 97.0753 81.2633 97.0875 81.3142 97.0875C81.3651 97.0875 81.4152 97.0753 81.4605 97.052L83.2921 95.9956C83.3719 95.95 83.3643 95.874 83.2921 95.8246L81.1717 94.601C81.1268 94.5786 81.0774 94.5669 81.0273 94.5669C80.9771 94.5669 80.9277 94.5786 80.8829 94.601L79.0475 95.6574C78.9715 95.703 78.9753 95.779 79.0475 95.8284L81.1679 97.052ZM94.9429 88.198C94.9881 88.2213 95.0383 88.2335 95.0892 88.2335C95.1401 88.2335 95.1902 88.2213 95.2355 88.198L97.0671 87.1378C97.1469 87.096 97.1431 87.02 97.0671 86.9706L96.5199 86.64C96.4744 86.6175 96.4243 86.6059 96.3736 86.6059C96.3228 86.6059 96.2728 86.6175 96.2273 86.64L94.3957 87.6964C94.3159 87.742 94.3197 87.818 94.3957 87.8674L94.9429 88.198ZM102.98 83.5582C103.025 83.5815 103.075 83.5937 103.126 83.5937C103.177 83.5937 103.227 83.5815 103.272 83.5582L105.108 82.498C105.184 82.4524 105.18 82.3764 105.108 82.3308L104.545 82.004C104.5 81.9815 104.45 81.9699 104.399 81.9699C104.348 81.9699 104.298 81.9815 104.253 82.004L102.417 83.0642C102.341 83.1098 102.345 83.1858 102.417 83.2314L102.98 83.5582ZM107.433 86.1308C107.479 86.1533 107.529 86.1649 107.58 86.1649C107.631 86.1649 107.681 86.1533 107.726 86.1308L109.561 85.0744C109.637 85.0288 109.634 84.9528 109.561 84.9034L107.441 83.6798C107.396 83.6573 107.346 83.6457 107.295 83.6457C107.244 83.6457 107.194 83.6573 107.148 83.6798L105.328 84.74C105.248 84.7856 105.252 84.8616 105.328 84.911L107.433 86.1308ZM114.133 92.929L115.964 91.8688C116.044 91.8232 116.04 91.751 115.964 91.7016L113.844 90.478C113.799 90.4547 113.749 90.4425 113.698 90.4425C113.647 90.4425 113.597 90.4547 113.551 90.478L111.72 91.5154C111.644 91.561 111.648 91.6332 111.72 91.6826L113.84 92.9062C113.888 92.9347 113.942 92.9504 113.997 92.9517C114.052 92.953 114.107 92.94 114.156 92.9138L114.133 92.929ZM97.6599 86.64C97.7051 86.6633 97.7553 86.6755 97.8062 86.6755C97.8571 86.6755 97.9072 86.6633 97.9525 86.64L99.7841 85.5798C99.8639 85.538 99.8601 85.462 99.7841 85.4126L99.2179 85.0858C99.1724 85.0633 99.1223 85.0517 99.0716 85.0517C99.0208 85.0517 98.9708 85.0633 98.9253 85.0858L97.0937 86.1422C97.0139 86.1878 97.0215 86.2638 97.0937 86.3132L97.6599 86.64ZM75.8289 100.13C75.8741 100.153 75.9243 100.165 75.9752 100.165C76.0261 100.165 76.0762 100.153 76.1215 100.13L77.9569 99.0698C78.0329 99.0242 78.0291 98.9482 77.9569 98.9026L75.8365 97.679C75.7912 97.6557 75.7411 97.6435 75.6902 97.6435C75.6393 97.6435 75.5891 97.6557 75.5439 97.679L73.7199 98.7392C73.6401 98.781 73.6477 98.857 73.7199 98.9064L75.8289 100.13Z" fill="#455A64"/>
<path d="M87.7117 116.215L105.804 105.769C106.11 105.614 106.448 105.533 106.792 105.533C107.135 105.533 107.473 105.614 107.78 105.769L118.154 111.758C118.701 112.073 118.701 112.583 118.154 112.898L100.062 123.344C99.7556 123.5 99.4171 123.581 99.0737 123.581C98.7304 123.581 98.3919 123.5 98.0857 123.344L87.7117 117.355C87.1683 117.04 87.1683 116.527 87.7117 116.215Z" fill="#263238"/>
<path d="M120.984 65.9832H120.961L117.872 64.2048C117.693 64.125 117.431 64.2048 117.112 64.4404C114.239 66.6368 110.375 67.3208 107.232 66.3176C107.029 66.1278 106.836 65.9274 106.654 65.7172L106.597 65.6526C106.507 65.5476 106.399 65.4589 106.278 65.3904L106.225 65.36L103.132 63.5854C102.778 63.4182 102.459 63.5854 102.246 64.1098C99.2596 71.5312 92.8946 79.0514 88.65 80.9324C88.329 81.0764 88.0437 81.2891 87.814 81.5556C87.5089 81.8868 87.3406 82.3213 87.3428 82.7716L87.9546 99.4346C87.9546 104.249 89.9876 109.334 94.1334 111.807L97.333 113.654L97.39 113.685C99.1199 114.656 101.076 115.153 103.06 115.125C103.504 115.125 103.956 115.106 104.424 115.06C105.333 114.911 106.176 114.49 106.841 113.852C116.116 104.272 120.627 91.3064 120.627 84.132L121.22 66.6824C121.243 66.3062 121.151 66.0744 120.984 65.9832Z" fill="#CFD8DC"/>
<path d="M121.22 66.6824L120.608 84.113C120.608 91.2874 116.098 104.253 106.822 113.833C106.157 114.471 105.314 114.892 104.405 115.041C103.938 115.087 103.485 115.106 103.041 115.106C101.057 115.134 99.1011 114.637 97.3712 113.666L97.3142 113.635L97.204 113.567C93.0582 111.093 91.0252 106.009 91.0252 101.194L90.44 84.531C90.4378 84.0807 90.6061 83.6462 90.9112 83.315C91.1408 83.0485 91.4262 82.8358 91.7472 82.6918C95.9918 80.7918 102.357 73.2906 105.344 65.8692C105.556 65.3448 105.879 65.1738 106.233 65.341L106.286 65.3714C106.407 65.4399 106.515 65.5286 106.605 65.6336L106.662 65.6982C109.831 69.388 116.063 69.3842 120.224 66.1998C120.54 65.9604 120.802 65.8844 120.984 65.9642H121.007C121.152 66.0744 121.243 66.3062 121.22 66.6824Z" fill="#CFD8DC"/>
<path opacity="0.4" d="M120.965 65.9604C120.786 65.8806 120.524 65.9604 120.205 66.196C116.287 69.1942 110.53 69.3728 107.228 66.2948C110.386 67.3018 114.243 66.6178 117.108 64.4176C117.423 64.1782 117.686 64.1022 117.868 64.182L120.965 65.9604Z" fill="white"/>
<path opacity="0.4" d="M106.214 65.3372C105.86 65.17 105.537 65.3372 105.325 65.8654C102.338 73.2868 95.9728 80.807 91.7282 82.688C91.4072 82.832 91.1218 83.0448 90.8922 83.3112C90.8124 83.402 90.7412 83.5 90.6794 83.6038L87.5938 81.8216C87.6553 81.7197 87.7252 81.6231 87.8028 81.5328C87.8454 81.4832 87.8911 81.4362 87.9396 81.3922L87.9928 81.339L88.046 81.2896C88.2215 81.1333 88.4202 81.0051 88.635 80.9096C92.8796 79.0286 99.2446 71.5084 102.231 64.087C102.444 63.5626 102.763 63.3954 103.117 63.5626L106.214 65.3372Z" fill="white"/>
<path d="M87.9431 81.3846C87.9589 81.3662 87.9768 81.3496 87.9963 81.3352L87.9431 81.3884C87.9431 81.3884 87.9393 81.3846 87.9431 81.3846Z" fill="#CFD8DC"/>
<path opacity="0.15" d="M87.9966 81.32L87.9434 81.3732C87.959 81.3535 87.9768 81.3356 87.9966 81.32Z" fill="black"/>
<path opacity="0.15" d="M97.3786 113.662L97.3216 113.635L94.122 111.785C89.9762 109.311 87.9432 104.226 87.9432 99.4118L87.3314 82.7488C87.3248 82.4205 87.416 82.0978 87.5936 81.8216L90.6792 83.6038C90.5043 83.8796 90.4145 84.2007 90.4208 84.5272L91.0326 101.19C91.0326 106.005 93.0656 111.07 97.2114 113.563L97.3216 113.631L97.3786 113.662Z" fill="black"/>
<path d="M108.3 98.3326L103.36 101.183L104.12 92.2488C103.531 91.9372 103.151 91.1696 103.151 90.0638C103.151 88.0992 104.348 85.8116 105.811 84.9604C107.274 84.1092 108.471 85.0136 108.471 86.9782C108.441 88.1441 108.109 89.2822 107.506 90.2804L108.3 98.3326Z" fill="#455A64"/>
<path d="M108.292 98.3326L103.82 95.7486L103.356 101.183L108.292 98.3326Z" fill="#37474F"/>
<path d="M105.826 84.9604C104.857 85.519 104.017 86.6894 103.546 87.9814L107.54 90.2804C108.143 89.2822 108.475 88.1441 108.505 86.9782C108.494 85.0136 107.3 84.1092 105.826 84.9604Z" fill="#37474F"/>
<path d="M44.0498 150.229V151.711C44.0498 153.459 45.1898 155.203 47.5002 156.537C50.9734 158.54 56.073 159.03 60.348 158.008L64.3152 160.288L67.3552 159.596L69.4338 160.801L69.5478 163.313L70.6878 163.962L73.5036 164.209L75.5252 165.349V166.767L78.0674 168.23H84.5274L86.8416 166.896V165.399L66.1924 154.975C67.0684 154.118 67.5801 152.955 67.6212 151.73V150.21C67.3096 148.759 66.1012 148.01 64.1746 146.897C59.5728 144.237 52.1172 144.237 47.5154 146.897C45.433 148.113 44.2588 148.667 44.0498 150.229ZM50.373 148.493C51.1043 148.122 51.9128 147.928 52.7328 147.928C53.5528 147.928 54.3613 148.122 55.0926 148.493C56.396 149.253 56.396 150.465 55.0926 151.217C54.3613 151.588 53.5528 151.781 52.7328 151.781C51.9128 151.781 51.1043 151.588 50.373 151.217C49.0696 150.48 49.0696 149.245 50.373 148.493Z" fill="#CFD8DC"/>
<path opacity="0.1" d="M44.0498 150.229V151.711C44.0498 153.459 45.1898 155.203 47.5002 156.537C50.9734 158.54 56.073 159.03 60.348 158.008L64.3152 160.288L67.3552 159.596L69.4338 160.801L69.5478 163.313L70.6878 163.962L73.5036 164.209L75.5252 165.349V166.767L78.0674 168.23H84.5274L86.8416 166.896V165.399L66.1924 154.975C67.0684 154.118 67.5801 152.955 67.6212 151.73V150.21C67.3096 148.759 66.1012 148.01 64.1746 146.897C59.5728 144.237 52.1172 144.237 47.5154 146.897C45.433 148.113 44.2588 148.667 44.0498 150.229ZM50.373 148.493C51.1043 148.122 51.9128 147.928 52.7328 147.928C53.5528 147.928 54.3613 148.122 55.0926 148.493C56.396 149.253 56.396 150.465 55.0926 151.217C54.3613 151.588 53.5528 151.781 52.7328 151.781C51.9128 151.781 51.1043 151.588 50.373 151.217C49.0696 150.48 49.0696 149.245 50.373 148.493Z" fill="black"/>
<path d="M47.5004 155.04C50.9736 157.046 56.0732 157.537 60.3482 156.511L64.3154 158.791L67.3554 158.103L69.434 159.304L69.548 161.819L70.688 162.465L73.5038 162.712L75.7002 163.936L75.5254 165.258L78.0676 166.725H84.5276L86.8418 165.391L66.1926 153.467C68.6246 150.887 67.9558 147.592 64.1748 145.411C59.573 142.751 52.1174 142.751 47.5156 145.411C42.9138 148.071 42.8986 152.38 47.5004 155.04ZM50.3732 146.995C51.1045 146.625 51.913 146.431 52.733 146.431C53.553 146.431 54.3615 146.625 55.0928 146.995C56.3962 147.755 56.3962 148.968 55.0928 149.72C54.3615 150.091 53.553 150.284 52.733 150.284C51.913 150.284 51.1045 150.091 50.3732 149.72C49.0698 148.96 49.0698 147.744 50.3732 146.992V146.995Z" fill="#CFD8DC"/>
<path opacity="0.3" d="M55.8296 155.724C52.9074 155.724 50.1828 155.078 48.1536 153.908C46.3752 152.882 45.353 151.54 45.353 150.229C45.353 148.918 46.3752 147.569 48.1536 146.547C50.1828 145.377 52.9074 144.731 55.8296 144.731C58.7518 144.731 61.4764 145.377 63.5056 146.547C65.284 147.577 66.3062 148.914 66.3062 150.229C66.3062 151.544 65.284 152.889 63.5056 153.908C61.4764 155.078 58.7518 155.724 55.8296 155.724ZM55.8296 145.255C52.9986 145.255 50.3652 145.874 48.412 146.999C46.8008 147.93 45.8774 149.108 45.8774 150.229C45.8774 151.35 46.8008 152.509 48.412 153.455C50.3652 154.595 52.9986 155.203 55.8296 155.203C58.6606 155.203 61.294 154.58 63.2472 153.455C64.8584 152.524 65.7818 151.346 65.7818 150.229C65.7818 149.112 64.8584 147.949 63.2472 146.999C61.294 145.874 58.6606 145.255 55.8296 145.255Z" fill="black"/>
<path opacity="0.1" d="M51.5889 156.56V158.08C54.4771 158.708 57.4687 158.687 60.3479 158.019V156.522C57.4667 157.181 54.4756 157.194 51.5889 156.56Z" fill="black"/>
<path opacity="0.1" d="M64.3154 158.798V160.299L67.363 159.608V158.11L64.3154 158.798Z" fill="black"/>
<path opacity="0.1" d="M69.4414 159.311V160.812L69.5554 163.324V161.827L69.4414 159.311Z" fill="black"/>
<path opacity="0.1" d="M70.6763 162.473V163.974L73.4921 164.221V162.72L70.6763 162.473Z" fill="black"/>
<path opacity="0.1" d="M84.5123 166.733H78.0562V168.234H84.5123V166.733Z" fill="black"/>
<path opacity="0.15" d="M86.8264 165.395V166.896L84.5122 168.23V166.733L85.523 166.147V166.793L86.0854 166.47V165.817L86.8264 165.395Z" fill="black"/>
<path d="M86.0853 165.817L85.5229 166.147V166.793L86.0853 166.47V165.817Z" fill="#CFD8DC"/>
<path opacity="0.15" d="M86.0856 165.817V166.47L64.9082 154.242L65.4668 153.915L86.0856 165.817Z" fill="black"/>
<path opacity="0.15" d="M65.4668 153.915V154.569L64.9082 154.242L65.4668 153.915Z" fill="black"/>
<path d="M157.522 109.653C157.791 99.7728 156.997 97.3826 154.36 95.57L153.342 101.304C153.342 101.304 154.542 108.064 154.413 110.314C154.299 112.294 154.105 114.768 153.653 116.364C153.567 116.647 153.38 116.888 153.129 117.044C152.581 117.43 152.094 117.895 151.681 118.423C151.301 118.837 150.951 118.94 151.001 119.073C151.078 119.218 151.207 119.328 151.362 119.382C151.517 119.437 151.686 119.431 151.837 119.366C152.174 119.234 152.493 119.061 152.787 118.849C152.556 119.457 152.227 120.023 151.814 120.525C150.872 121.665 150.83 122.387 152.73 122.406C153.923 122.406 154.873 121.68 155.77 119.058C156.118 118.097 156.398 117.113 156.606 116.113C157.043 113.517 157.48 111.245 157.522 109.653Z" fill="#B16668"/>
<path d="M152.145 94.8176C152.954 94.6742 153.789 94.7975 154.523 95.1689C155.257 95.5402 155.85 96.1397 156.214 96.8772C157.32 98.8494 157.59 102.247 157.734 105.617C157.734 105.617 155.542 107.453 152.912 106.552L152.145 94.8176Z" fill="#CFD8DC"/>
<path opacity="0.7" d="M152.145 94.8176C152.954 94.6742 153.789 94.7975 154.523 95.1689C155.257 95.5402 155.85 96.1397 156.214 96.8772C157.32 98.8494 157.59 102.247 157.734 105.617C157.734 105.617 155.542 107.453 152.912 106.552L152.145 94.8176Z" fill="black"/>
<path d="M155.846 149.256C156.043 149.332 156.093 149.712 156.123 150.469C156.146 151.039 156.271 152.038 155.599 152.239C154.926 152.441 153.946 152.334 153.516 151.795C152.997 151.072 152.441 150.376 151.852 149.709C151.191 148.998 150.472 148.329 150.203 147.33C149.963 146.429 150.165 146.038 150.78 145.776C151.628 145.396 152.958 146.593 153.623 146.779C154.193 146.938 155.644 149.18 155.846 149.256Z" fill="#263238"/>
<path d="M155.846 148.553V149.484C155.496 149.707 155.093 149.83 154.68 149.841C154.266 149.851 153.857 149.749 153.497 149.545C153.455 149.458 153.254 148.219 153.254 148.219L155.846 148.553Z" fill="#B16668"/>
<path d="M148.322 154.607C148.485 155.106 148.622 155.613 148.732 156.127C148.846 156.689 149.01 157.647 148.816 158.05C148.622 158.452 147.851 158.745 146.661 158.737C145.901 158.737 144.693 159.254 143.872 159.714C143.051 160.174 141.258 160.375 140.357 160.269C139.301 160.143 138.206 159.532 138.035 159.095C137.864 158.658 138.088 158.202 140.585 157.138C140.608 157.138 144.051 155.998 145.255 154.679L148.322 154.607Z" fill="#263238"/>
<path d="M148.321 153.604V154.687C148.321 155.067 147.862 155.667 146.657 155.625C145.813 155.595 145.221 155.367 145.255 154.671V153.664L148.321 153.604Z" fill="#B16668"/>
<path d="M156.45 136.23C156.243 134.585 155.875 132.965 155.352 131.393C155.352 131.393 155.682 127.213 155.842 123.264C156.013 118.989 155.842 113.62 155.914 112.552C155.914 112.552 142.124 109.763 141.877 114.703C141.63 119.643 142.424 132.217 142.587 134.387C142.751 136.557 143.123 138.48 143.572 141.987C144.02 145.494 145.255 153.657 145.255 153.657C145.732 153.899 146.261 154.021 146.796 154.01C147.331 153.999 147.855 153.857 148.322 153.596C148.322 153.596 149.294 143.716 149.192 141.212C149.113 139.357 148.794 137.52 148.242 135.747C148.242 135.747 148.504 131.674 148.736 128.147C148.968 124.621 149.211 122.9 149.264 121.361L149.56 121.212C149.56 121.212 149.864 127.327 150.028 129.496C150.191 131.666 150.533 133.745 151.168 137.777C151.715 141.276 153.338 148.675 153.338 148.675C154.911 149.526 155.853 148.561 155.853 148.561C155.853 148.561 156.872 139.266 156.45 136.23Z" fill="#37474F"/>
<path d="M149.264 121.353C149.264 121.353 152.608 119.7 154.28 118.218C154.28 118.218 152.726 120.407 150.685 121.38C150.685 121.38 149.96 128.98 149.963 128.82L149.542 121.342L149.264 121.353Z" fill="#263238"/>
<path d="M146.285 93.2558L147.102 97.7474L151.16 97.4472L150.309 92.359L146.285 93.2558Z" fill="#B16668"/>
<path d="M155.443 97.1204C155.044 95.9006 153.493 94.5706 151.943 94.8404C149.641 95.2376 147.374 95.8105 145.16 96.5542C143.742 97.0596 142.447 98.287 142.329 102.957C142.329 102.957 141.854 113.84 141.846 115.946C144.809 117.108 148.035 117.426 151.168 116.865C155.431 115.934 155.948 114.163 155.948 114.163C155.948 114.163 156.001 106.335 155.872 102.957C155.758 100.084 155.72 97.9602 155.443 97.1204Z" fill="#CFD8DC"/>
<g opacity="0.15">
<path d="M155.443 97.1204C155.044 95.9006 153.493 94.5706 151.943 94.8404C149.641 95.2376 147.374 95.8105 145.16 96.5542C143.742 97.0596 142.447 98.287 142.329 102.957C142.329 102.957 141.854 113.84 141.846 115.946C144.809 117.108 148.035 117.426 151.168 116.865C155.431 115.934 155.948 114.163 155.948 114.163C155.948 114.163 156.001 106.335 155.872 102.957C155.758 100.084 155.72 97.9602 155.443 97.1204Z" fill="black"/>
</g>
<path d="M143.158 87.78C143.158 87.78 142.128 89.4216 142.253 89.5774C142.379 89.7332 143.165 89.8586 143.165 89.8586L143.158 87.78Z" fill="#9A4A4D"/>
<path d="M146.011 83.2542C143.868 83.7558 143.267 84.7172 143.142 88.1486C143.009 91.7282 143.4 92.8454 143.879 93.3166C144.206 93.6358 145.969 93.6548 146.855 93.3888C147.96 93.0582 150.457 92.1082 151.593 90.2842C152.931 88.1334 153.231 85.2568 151.722 84.113C149.594 82.5018 146.885 83.049 146.011 83.2542Z" fill="#B16668"/>
<path d="M143.165 84.1472C143.657 84.8643 144.352 85.4186 145.16 85.7394C145.571 86.2068 145.346 88.0194 146.068 88.3234C146.068 88.3234 146.38 86.9934 147.497 87.1378C148.614 87.2822 148.808 88.7034 148.12 89.5888C147.433 90.4742 146.768 90.155 146.768 90.155C146.768 90.155 146.844 92.055 147.706 93.0962C147.706 93.0962 148.664 93.385 150.412 92.9708C151.483 92.7162 152.977 91.3368 153.585 89.8966C154.873 86.8566 154.903 84.132 152.962 83.3606C152.722 81.9736 151.613 81.377 150.359 81.1186C147.657 80.56 145.916 82.2586 143.838 82.099C142.648 82.0154 142.428 82.8818 143.165 84.1472Z" fill="#263238"/>
<path d="M153.003 83.8242L154.276 83.0376C154.235 82.9343 154.172 82.8412 154.091 82.765C154.011 82.6887 153.914 82.631 153.809 82.5961C153.703 82.5611 153.591 82.5497 153.481 82.5626C153.371 82.5756 153.265 82.6125 153.17 82.6709C153.076 82.7293 152.995 82.8077 152.934 82.9006C152.873 82.9935 152.833 83.0987 152.817 83.2086C152.801 83.3186 152.81 83.4307 152.842 83.537C152.874 83.6434 152.929 83.7414 153.003 83.8242Z" fill="#263238"/>
<path d="M127.999 104.641C128.664 104.937 136.526 110.743 137.75 110.067C138.974 109.391 145.263 102.045 145.263 102.045C145.794 101.225 146.077 100.268 146.077 99.2902C146.077 98.3126 145.794 97.3558 145.263 96.5352C145.263 96.5352 143.249 96.9152 142.192 98.5036C141.136 100.092 136.583 105.811 136.583 105.811C135.459 105.249 134.336 104.679 133.217 104.101C132.297 103.622 131.374 103.147 130.473 102.634C130.22 102.517 129.981 102.37 129.762 102.197C129.318 101.756 129.382 100.677 129.405 100.115C129.405 99.845 129.405 99.5752 129.443 99.3054C129.481 98.9748 129.546 98.1654 128.949 98.4238C128.836 98.4777 128.738 98.5586 128.664 98.6594C128.573 98.7831 128.501 98.9202 128.451 99.066C128.341 99.4156 128.375 99.7994 128.273 100.153C128.26 100.205 128.236 100.253 128.201 100.293C128.148 100.335 128.081 100.355 128.014 100.35C127.148 100.324 126.327 99.1078 125.928 98.4504C125.79 98.1369 125.561 97.8722 125.271 97.6904C124.8 97.4662 124.23 97.7854 123.922 98.211C123.551 98.7704 123.4 99.4469 123.496 100.111C123.576 101.02 123.981 101.87 124.636 102.505C125.626 103.405 126.764 104.127 127.999 104.641Z" fill="#B16668"/>
<path d="M145.92 96.2996C145.054 96.3984 143.614 96.463 142.2 98.0628C140.536 99.94 138.366 102.98 138.366 102.98C138.587 103.879 139.064 104.695 139.738 105.33C140.412 105.965 141.255 106.392 142.166 106.56C142.166 106.56 145.141 103.52 145.966 101.832C146.79 100.145 146.927 97.432 145.92 96.2996Z" fill="#CFD8DC"/>
<path opacity="0.7" d="M145.92 96.2996C145.054 96.3984 143.614 96.463 142.2 98.0628C140.536 99.94 138.366 102.98 138.366 102.98C138.587 103.879 139.064 104.695 139.738 105.33C140.412 105.965 141.255 106.392 142.166 106.56C142.166 106.56 145.141 103.52 145.966 101.832C146.79 100.145 146.927 97.432 145.92 96.2996Z" fill="black"/>
</svg>
