<svg width="264" height="125" viewBox="0 0 264 125" fill="none" xmlns="http://www.w3.org/2000/svg">
<path d="M10.08 99.5L2.4 73.148L0.96 68.396V65.516H10.08L16.08 90.284H17.04L21.6 65.516H34.224L37.968 84.188L38.736 90.284H39.696L45.648 65.516H54.672V68.396L53.232 73.148L45.648 99.5H33.216L28.272 74.444H27.264L26.448 80.252L22.512 99.5H10.08ZM59.4806 99.5L58.5206 96.62L59.4806 91.82V65.516H83.2406L85.6406 66.956L82.4726 73.676L78.1526 73.196H68.1206V78.476H81.0326V85.916H75.3686L68.1206 85.436V91.82H82.4726L88.1846 96.428L85.3526 99.5H59.4806ZM92.5275 99.5L91.5675 96.62L92.5275 91.82V65.516H101.168V85.244L100.688 91.82H101.648L110.24 91.34L113.648 90.86L117.872 96.428L115.52 99.5H92.5275ZM135.59 99.98C133.414 99.98 131.302 99.74 129.254 99.26C127.206 98.748 125.35 97.852 123.686 96.572C122.054 95.292 120.758 93.516 119.798 91.244C118.838 88.972 118.358 86.06 118.358 82.508C118.358 79.212 118.838 76.444 119.798 74.204C120.758 71.964 122.038 70.172 123.638 68.828C125.238 67.484 126.982 66.524 128.87 65.948C130.79 65.34 132.71 65.036 134.63 65.036C136.262 65.036 137.846 65.164 139.382 65.42C140.95 65.676 142.086 65.964 142.79 66.284L148.118 70.652L143.798 77.612L135.59 73.388C133.318 73.388 131.398 74.14 129.83 75.644C128.262 77.116 127.478 79.404 127.478 82.508C127.478 84.716 127.862 86.508 128.63 87.884C129.43 89.26 130.518 90.268 131.894 90.908C133.27 91.548 134.838 91.868 136.598 91.868C138.454 91.868 140.038 91.724 141.35 91.436C142.662 91.116 143.814 90.748 144.806 90.332C145.798 89.884 146.742 89.452 147.638 89.036V97.1C146.518 97.804 145.03 98.46 143.174 99.068C141.318 99.676 138.79 99.98 135.59 99.98ZM167.489 99.98C165.441 99.98 163.441 99.74 161.489 99.26C159.569 98.748 157.825 97.852 156.257 96.572C154.721 95.292 153.489 93.516 152.561 91.244C151.665 88.972 151.217 86.06 151.217 82.508C151.217 78.956 151.665 76.044 152.561 73.772C153.489 71.5 154.721 69.724 156.257 68.444C157.825 67.164 159.569 66.284 161.489 65.804C163.441 65.292 165.441 65.036 167.489 65.036C169.537 65.036 171.521 65.292 173.441 65.804C175.393 66.316 177.137 67.212 178.673 68.492C180.241 69.772 181.473 71.548 182.369 73.82C183.297 76.092 183.761 78.988 183.761 82.508C183.761 86.028 183.297 88.924 182.369 91.196C181.473 93.468 180.241 95.244 178.673 96.524C177.137 97.804 175.393 98.7 173.441 99.212C171.521 99.724 169.537 99.98 167.489 99.98ZM167.489 91.82C169.857 91.82 171.649 91.116 172.865 89.708C174.081 88.3 174.689 85.9 174.689 82.508C174.689 79.116 174.081 76.716 172.865 75.308C171.649 73.9 169.857 73.196 167.489 73.196C165.153 73.196 163.377 73.916 162.161 75.356C160.945 76.796 160.337 79.18 160.337 82.508C160.337 85.836 160.945 88.22 162.161 89.66C163.377 91.1 165.153 91.82 167.489 91.82ZM189.512 99.5V73.244L188.552 68.444L189.56 65.564H198.728L208.136 83.804H209.096L216.872 65.564H226.424L226.904 68.444L226.424 73.052V99.5H217.736L217.88 95.42V82.028H217.352L215.432 86.636L211.112 94.7H205.352L198.728 82.028H198.248V85.916L198.728 99.5H189.512ZM233.621 99.5L232.661 96.62L233.621 91.82V65.516H257.381L259.781 66.956L256.613 73.676L252.293 73.196H242.261V78.476H255.173V85.916H249.509L242.261 85.436V91.82H256.613L262.325 96.428L259.493 99.5H233.621Z" fill="#343434"/>
<path d="M106.386 15.1688C90.2201 10.8265 72.1883 17.9098 56.6271 11.7342C56.2446 11.5838 55.8418 11.4206 55.4364 11.492C55.11 11.5481 54.8321 11.7495 54.5644 11.9433C49.0926 15.9464 43.6183 19.947 38.1465 23.9501C41.66 23.5371 53.1773 24.0292 56.3339 24.1745C62.4762 24.4601 68.611 24.9547 74.7202 25.661C87.0227 27.0812 99.2284 29.348 111.22 32.4434C117.951 34.1797 124.519 36.727 131.233 38.3894C127.487 27.1807 117.737 18.2183 106.386 15.1688Z" fill="#CDD7E5"/>
<path d="M111.651 15.7704C102.597 12.0121 92.6194 11.1554 82.8207 10.9488C76.1557 10.8086 68.9169 10.7653 63.6619 6.6627C66.1326 6.37968 68.5548 5.67594 70.7961 4.59485C71.7267 6.14255 73.5371 6.90493 75.2709 7.41743C83.7845 9.92894 92.956 8.69995 101.694 10.2579C113.056 12.2849 123.449 19.2483 129.642 28.9858C130.789 30.7885 131.898 33.0858 132.396 35.6356C130.723 31.6911 126.937 26.7956 125.047 24.8093C121.309 20.8776 116.653 17.8434 111.653 15.7704H111.651Z" fill="#CDD7E5"/>
<path d="M105.011 7.46083C100.674 6.53272 95.9341 6.44093 91.5281 5.95138C89.3813 5.7117 87.2242 5.41848 85.1767 4.73004C83.1293 4.04161 81.1812 2.92737 79.7916 1.27258C81.5663 1.46636 83.3893 1.19608 85.0314 0.5C85.2175 1.28532 85.7988 1.91767 86.4235 2.43017C88.1472 3.83763 90.3247 4.58981 92.5149 4.99267C94.7051 5.39298 96.9387 5.46692 99.1545 5.676C104.94 6.22165 110.807 7.7719 115.672 11.0483C117.028 11.9611 119.907 14.3681 121.019 15.5716C116.182 11.4104 110.302 8.59547 105.011 7.46338V7.46083Z" fill="#CDD7E5"/>
<path d="M132.393 42.2573C132.393 42.2573 93.7872 27.3846 35.4539 27.2189L30 31.1837C30 31.1837 78.7896 26.5559 132.393 42.2548V42.2573Z" fill="#174A9D"/>
<path d="M158.401 15.2631C174.569 10.9209 192.598 18.0041 208.159 11.8286C208.542 11.6782 208.944 11.515 209.35 11.5864C209.676 11.6425 209.954 11.8439 210.222 12.0377C215.694 16.0408 221.168 20.0414 226.64 24.0445C223.126 23.6314 211.609 24.1235 208.452 24.2689C202.31 24.5544 196.175 25.0491 190.066 25.7554C177.763 27.1756 165.558 29.4423 153.566 32.5377C146.835 34.2741 140.267 36.8213 133.553 38.4838C137.299 27.275 147.049 18.3126 158.401 15.2631Z" fill="#CDD7E5"/>
<path d="M153.135 15.8649C162.19 12.1066 172.167 11.2499 181.968 11.0433C188.633 10.9031 195.872 10.8597 201.127 6.75719C198.656 6.47416 196.234 5.77043 193.993 4.68933C193.062 6.23703 191.252 6.99941 189.518 7.51191C181.004 10.0234 171.833 8.79444 163.095 10.3523C151.733 12.3794 141.34 19.3428 135.147 29.0803C134.002 30.883 132.89 33.1803 132.393 35.7301C134.066 31.7856 137.852 26.89 139.741 24.9038C143.479 20.9721 148.135 17.9379 153.135 15.8649Z" fill="#CDD7E5"/>
<path d="M159.775 7.55775C164.112 6.62964 168.852 6.53785 173.258 6.0483C175.405 5.80862 177.562 5.5154 179.609 4.82697C181.657 4.13853 183.605 3.02429 184.994 1.3695C183.22 1.56328 181.397 1.29301 179.755 0.596924C179.569 1.38225 178.987 2.01459 178.363 2.52709C176.639 3.93456 174.461 4.68673 172.271 5.08959C170.081 5.4899 167.847 5.56384 165.632 5.77292C159.846 6.31857 153.979 7.86882 149.114 11.1453C147.758 12.0581 144.879 14.465 143.767 15.6685C148.602 11.5073 154.484 8.6924 159.775 7.5603V7.55775Z" fill="#CDD7E5"/>
<path d="M132.393 42.3542C132.393 42.3542 170.999 27.4815 229.332 27.3158L234.786 31.2807C234.786 31.2807 185.997 26.6529 132.393 42.3517V42.3542Z" fill="#174A9D"/>
<path d="M57.3793 33.5933C57.3793 33.5933 99.3075 34.5392 132.393 44.7102V49.44C132.393 49.44 114.624 40.215 57.3793 33.5907V33.5933Z" fill="#FFCA42"/>
<path d="M207.407 33.5933C207.407 33.5933 165.479 34.5392 132.393 44.7102V49.44C132.393 49.44 150.162 40.215 207.407 33.5907V33.5933Z" fill="#FFCA42"/>
</svg>
