<svg width="27" height="27" viewBox="0 0 27 27" fill="none" xmlns="http://www.w3.org/2000/svg">
<path d="M16.875 9.00006H24.2325C23.8397 7.95929 23.2296 7.01429 22.4427 6.22808L18.5232 2.30633C17.736 1.52032 16.7907 0.910555 15.75 0.517578V7.87508C15.75 8.49634 16.2537 9.00006 16.875 9.00006Z" fill="white"/>
<path d="M24.723 11.25H16.875C15.0111 11.25 13.5 9.73893 13.5 7.87498V0.027C13.3189 0.0146074 13.1378 0 12.9544 0H7.87499C4.76994 0.00374414 2.25372 2.51996 2.25003 5.62502V21.375C2.25372 24.48 4.76994 26.9963 7.87499 27H19.125C22.23 26.9963 24.7463 24.48 24.75 21.375V11.7956C24.75 11.6123 24.7354 11.4311 24.723 11.25Z" fill="white"/>
</svg>
