<svg width="19" height="20" viewBox="0 0 19 20" fill="none" xmlns="http://www.w3.org/2000/svg">
<mask id="mask0_50_722" style="mask-type:alpha" maskUnits="userSpaceOnUse" x="0" y="0" width="19" height="20">
<path d="M0.54541 0.863813V19.1384H18.4547V0.861572H0.54541V0.863813Z" fill="white"/>
</mask>
<g mask="url(#mask0_50_722)">
<path fill-rule="evenodd" clip-rule="evenodd" d="M6.69734 1.36357C4.44949 2.1472 2.59349 3.77261 1.52022 5.89747C1.15277 6.62427 0.885151 7.39737 0.724607 8.1958C0.32274 10.1986 0.601178 12.2782 1.51574 14.1047C2.11364 15.2884 2.95989 16.3292 3.99672 17.156C4.97652 17.9366 6.10686 18.5065 7.31703 18.8302C8.83991 19.2381 10.4603 19.2291 11.9932 18.8795C13.3877 18.5645 14.677 17.8944 15.736 16.9341C16.842 15.9178 17.632 14.5809 18.05 13.1421C18.5072 11.5755 18.5655 9.90021 18.2809 8.28993H9.68483V11.8545H14.6647C14.5653 12.4238 14.3523 12.9673 14.0382 13.4524C13.7242 13.9376 13.3157 14.3546 12.837 14.6784C12.2286 15.0811 11.5427 15.3521 10.8233 15.474C10.1062 15.5973 9.35874 15.6118 8.64156 15.4695C7.91056 15.3197 7.21847 15.0202 6.60882 14.5899C5.63258 13.9005 4.90009 12.9192 4.51668 11.7873C4.12635 10.6342 4.12635 9.38473 4.51668 8.23166C4.79151 7.42152 5.24494 6.68354 5.84345 6.07228C6.58507 5.30942 7.53483 4.78172 8.57433 4.55501C9.46354 4.36666 10.3857 4.40364 11.257 4.66258C11.9952 4.88929 12.6697 5.28661 13.2259 5.82239L14.9068 4.14151C15.2015 3.84231 15.5108 3.5532 15.7954 3.2428C14.943 2.4493 13.9432 1.83065 12.8527 1.42184C10.8685 0.698294 8.69604 0.677724 6.69846 1.36357" fill="white"/>
</g>
<mask id="mask1_50_722" style="mask-type:alpha" maskUnits="userSpaceOnUse" x="1" y="0" width="15" height="9">
<path d="M15.7957 0.862671H1.52051V8.22494H15.7968V0.862671H15.7957Z" fill="white"/>
</mask>
<g mask="url(#mask1_50_722)">
<path fill-rule="evenodd" clip-rule="evenodd" d="M6.69875 1.36355C8.69621 0.678705 10.8678 0.697685 12.853 1.41734C13.9433 1.82075 14.9407 2.44828 15.7957 3.23941C15.5111 3.5487 15.2018 3.83893 14.9071 4.13813L13.2262 5.81901C12.6688 5.28489 11.9947 4.88782 11.2573 4.6592C10.3865 4.39746 9.46371 4.36007 8.57461 4.5505C7.54367 4.77238 6.58557 5.3125 5.84374 6.0689C5.24465 6.6784 4.79109 7.41544 4.51696 8.22491C3.51964 7.45058 2.52231 6.6785 1.52051 5.90193C2.59219 3.77487 4.44856 2.14753 6.69763 1.36355" fill="#EA4335"/>
</g>
<path fill-rule="evenodd" clip-rule="evenodd" d="M0.730522 8.19029C0.891887 7.39468 1.15635 6.61923 1.52614 5.89197C2.52346 6.66741 3.52079 7.43838 4.52259 8.21495C4.1295 9.36795 4.1295 10.6187 4.52259 11.7717C3.52527 12.5483 2.52795 13.3237 1.53062 14.0947C0.60824 12.2723 0.326396 10.1924 0.730522 8.19029Z" fill="#FBBC05"/>
<path fill-rule="evenodd" clip-rule="evenodd" d="M9.6848 8.2843H18.2808C18.5731 9.89824 18.4942 11.5575 18.05 13.1364C17.632 14.5764 16.842 15.9121 15.736 16.9296L12.8337 14.675C13.3122 14.3509 13.7206 13.9338 14.0344 13.4484C14.3483 12.963 14.5611 12.4194 14.6602 11.85H9.6792C9.6848 10.6622 9.6848 9.47213 9.6848 8.2843Z" fill="#4285F4"/>
<path fill-rule="evenodd" clip-rule="evenodd" d="M1.52051 14.1002C2.51783 13.3281 3.51516 12.5527 4.51248 11.7761C4.8972 12.908 5.62936 13.8896 6.60462 14.581C7.21508 15.0105 7.90738 15.31 8.63848 15.4606C9.35566 15.6074 10.0975 15.5884 10.8192 15.4651C11.5389 15.3433 12.2252 15.0723 12.834 14.6695L15.7363 16.9241C14.6908 17.8923 13.3786 18.5501 11.9935 18.8694C10.4606 19.218 8.84019 19.228 7.31731 18.8201C6.10637 18.4985 4.97562 17.9284 3.99701 17.146C2.96198 16.3207 2.11725 15.2818 1.52051 14.1002Z" fill="#34A853"/>
</svg>
