<svg width="20" height="20" viewBox="0 0 20 20" fill="none" xmlns="http://www.w3.org/2000/svg">
<path d="M4.16667 8.33333C3.25 8.33333 2.5 9.08333 2.5 9.99999C2.5 10.9167 3.25 11.6667 4.16667 11.6667C5.08333 11.6667 5.83333 10.9167 5.83333 9.99999C5.83333 9.08333 5.08333 8.33333 4.16667 8.33333Z" stroke="#2B343B"/>
<path d="M15.8333 8.33333C14.9166 8.33333 14.1666 9.08333 14.1666 9.99999C14.1666 10.9167 14.9166 11.6667 15.8333 11.6667C16.75 11.6667 17.5 10.9167 17.5 9.99999C17.5 9.08333 16.75 8.33333 15.8333 8.33333Z" stroke="#2B343B"/>
<path d="M10 8.33333C9.08337 8.33333 8.33337 9.08333 8.33337 9.99999C8.33337 10.9167 9.08337 11.6667 10 11.6667C10.9167 11.6667 11.6667 10.9167 11.6667 9.99999C11.6667 9.08333 10.9167 8.33333 10 8.33333Z" stroke="#2B343B"/>
</svg>
